rawline-700.ufo
<glyph name="quotedbl" format="2">
  <advance width="804"/>
  <unicode hex="0022"/>
  <outline>
    <contour>
      <point x="125" y="1022" type="line"/>
      <point x="125" y="1481" type="line"/>
      <point x="358" y="1481" type="line"/>
      <point x="358" y="1022" type="line"/>
    </contour>
    <contour>
      <point x="446" y="1022" type="line"/>
      <point x="446" y="1481" type="line"/>
      <point x="680" y="1481" type="line"/>
      <point x="680" y="1022" type="line"/>
    </contour>
  </outline>
</glyph>
<glyph name="numbersign" format="2">
  <advance width="1476"/>
  <unicode hex="0023"/>
  <outline>
    <contour>
      <point x="1403" y="868" type="line"/>
      <point x="1104" y="868" type="line"/>
      <point x="1038" y="588" type="line"/>
      <point x="1307" y="588" type="line"/>
      <point x="1307" y="383" type="line"/>
      <point x="989" y="383" type="line"/>
      <point x="895" y="0" type="line"/>
      <point x="674" y="0" type="line"/>
      <point x="770" y="383" type="line"/>
      <point x="524" y="383" type="line"/>
      <point x="432" y="0" type="line"/>
      <point x="211" y="0" type="line"/>
      <point x="305" y="383" type="line"/>
      <point x="76" y="383" type="line"/>
      <point x="76" y="588" type="line"/>
      <point x="354" y="588" type="line"/>
      <point x="422" y="868" type="line"/>
      <point x="172" y="868" type="line"/>
      <point x="172" y="1061" type="line"/>
      <point x="469" y="1061" type="line"/>
      <point x="565" y="1454" type="line"/>
      <point x="786" y="1454" type="line"/>
      <point x="688" y="1061" type="line"/>
      <point x="934" y="1061" type="line"/>
      <point x="1028" y="1454" type="line"/>
      <point x="1249" y="1454" type="line"/>
      <point x="1153" y="1061" type="line"/>
      <point x="1403" y="1061" type="line"/>
    </contour>
    <contour>
      <point x="819" y="588" type="line"/>
      <point x="885" y="868" type="line"/>
      <point x="641" y="868" type="line"/>
      <point x="573" y="588" type="line"/>
    </contour>
  </outline>
</glyph>
<glyph name="dollar" format="2">
  <advance width="1298"/>
  <unicode hex="0024"/>
  <anchor x="668" y="1466" name="Anchor-1"/>
  <anchor x="680" y="0" name="Anchor-0"/>
  <outline>
    <contour>
      <point x="1219" y="416" type="qcurve" smooth="yes"/>
      <point x="1219" y="329"/>
      <point x="1167" y="188"/>
      <point x="1077" y="91"/>
      <point x="951" y="23"/>
      <point x="809" y="-10"/>
      <point x="727" y="-14" type="qcurve"/>
      <point x="727" y="-240" type="line"/>
      <point x="590" y="-240" type="line"/>
      <point x="590" y="-12" type="line"/>
      <point x="449" y="0"/>
      <point x="179" y="96"/>
      <point x="70" y="172" type="qcurve"/>
      <point x="195" y="416" type="line"/>
      <point x="238" y="373"/>
      <point x="479" y="259"/>
      <point x="608" y="242" type="qcurve"/>
      <point x="608" y="596" type="line"/>
      <point x="541" y="614" type="line" smooth="yes"/>
      <point x="432" y="645"/>
      <point x="286" y="710"/>
      <point x="178" y="802"/>
      <point x="129" y="925"/>
      <point x="129" y="1008" type="qcurve" smooth="yes"/>
      <point x="129" y="1205"/>
      <point x="385" y="1442"/>
      <point x="590" y="1462" type="qcurve"/>
      <point x="590" y="1669" type="line"/>
      <point x="727" y="1669" type="line"/>
      <point x="727" y="1462" type="line"/>
      <point x="958" y="1443"/>
      <point x="1167" y="1303" type="qcurve"/>
      <point x="1042" y="1073" type="line"/>
      <point x="1010" y="1108"/>
      <point x="812" y="1201"/>
      <point x="707" y="1212" type="qcurve"/>
      <point x="707" y="858" type="line"/>
      <point x="752" y="846" type="line" smooth="yes"/>
      <point x="845" y="822"/>
      <point x="978" y="775"/>
      <point x="1101" y="704"/>
      <point x="1175" y="617"/>
      <point x="1219" y="494"/>
    </contour>
    <contour>
      <point x="420" y="1053" type="qcurve" smooth="yes"/>
      <point x="420" y="989"/>
      <point x="508" y="916"/>
      <point x="608" y="885" type="qcurve"/>
      <point x="608" y="1214" type="line"/>
      <point x="515" y="1207"/>
      <point x="420" y="1124"/>
    </contour>
    <contour>
      <point x="707" y="238" type="line"/>
      <point x="918" y="247"/>
      <point x="918" y="387" type="qcurve" smooth="yes"/>
      <point x="918" y="453"/>
      <point x="816" y="531"/>
      <point x="707" y="567" type="qcurve"/>
    </contour>
  </outline>
</glyph>
<glyph name="percent" format="2">
  <advance width="1609"/>
  <unicode hex="0025"/>
  <outline>
    <contour>
      <point x="72" y="1165" type="qcurve" smooth="yes"/>
      <point x="72" y="1294"/>
      <point x="269" y="1475"/>
      <point x="551" y="1475"/>
      <point x="748" y="1294"/>
      <point x="748" y="1165" type="qcurve" smooth="yes"/>
      <point x="748" y="1035"/>
      <point x="551" y="854"/>
      <point x="269" y="854"/>
      <point x="72" y="1035"/>
    </contour>
    <contour>
      <point x="186" y="96" type="line"/>
      <point x="764" y="770" type="line"/>
      <point x="1296" y="1470" type="line"/>
      <point x="1421" y="1360" type="line"/>
      <point x="860" y="696" type="line"/>
      <point x="311" y="-14" type="line"/>
    </contour>
    <contour>
      <point x="555" y="1165" type="qcurve" smooth="yes"/>
      <point x="555" y="1235"/>
      <point x="469" y="1337"/>
      <point x="410" y="1337" type="qcurve" smooth="yes"/>
      <point x="350" y="1337"/>
      <point x="264" y="1234"/>
      <point x="264" y="1165" type="qcurve" smooth="yes"/>
      <point x="264" y="1093"/>
      <point x="350" y="991"/>
      <point x="470" y="991"/>
      <point x="555" y="1094"/>
    </contour>
    <contour>
      <point x="862" y="289" type="qcurve" smooth="yes"/>
      <point x="862" y="419"/>
      <point x="1059" y="600"/>
      <point x="1200" y="600" type="qcurve" smooth="yes"/>
      <point x="1342" y="600"/>
      <point x="1538" y="420"/>
      <point x="1538" y="289" type="qcurve" smooth="yes"/>
      <point x="1538" y="160"/>
      <point x="1342" y="-20"/>
      <point x="1200" y="-20" type="qcurve" smooth="yes"/>
      <point x="1059" y="-20"/>
      <point x="862" y="160"/>
    </contour>
    <contour>
      <point x="1346" y="289" type="qcurve" smooth="yes"/>
      <point x="1346" y="360"/>
      <point x="1259" y="463"/>
      <point x="1200" y="463" type="qcurve" smooth="yes"/>
      <point x="1140" y="463"/>
      <point x="1055" y="360"/>
      <point x="1055" y="289" type="qcurve" smooth="yes"/>
      <point x="1055" y="219"/>
      <point x="1141" y="117"/>
      <point x="1200" y="117" type="qcurve" smooth="yes"/>
      <point x="1260" y="117"/>
      <point x="1346" y="220"/>
    </contour>
  </outline>
</glyph>
<glyph name="ampersand" format="2">
  <advance width="1458"/>
  <unicode hex="0026"/>
  <outline>
    <contour>
      <point x="1458" y="0" type="line"/>
      <point x="1098" y="0" type="line"/>
      <point x="983" y="121" type="line"/>
      <point x="801" y="-20"/>
      <point x="573" y="-20" type="qcurve" smooth="yes"/>
      <point x="354" y="-20"/>
      <point x="82" y="233"/>
      <point x="82" y="412" type="qcurve" smooth="yes"/>
      <point x="82" y="632"/>
      <point x="332" y="815" type="qcurve"/>
      <point x="247" y="911"/>
      <point x="178" y="1048"/>
      <point x="178" y="1124" type="qcurve" smooth="yes"/>
      <point x="178" y="1279"/>
      <point x="406" y="1473"/>
      <point x="578" y="1473" type="qcurve" smooth="yes"/>
      <point x="681" y="1473"/>
      <point x="854" y="1403"/>
      <point x="965" y="1253"/>
      <point x="965" y="1151" type="qcurve" smooth="yes"/>
      <point x="965" y="1040"/>
      <point x="835" y="861"/>
      <point x="717" y="778" type="qcurve"/>
      <point x="995" y="485" type="line"/>
      <point x="1061" y="627"/>
      <point x="1061" y="797" type="qcurve"/>
      <point x="1284" y="797" type="line"/>
      <point x="1284" y="525"/>
      <point x="1157" y="315" type="qcurve"/>
    </contour>
    <contour>
      <point x="578" y="1270" type="qcurve" smooth="yes"/>
      <point x="513" y="1270"/>
      <point x="428" y="1191"/>
      <point x="428" y="1133" type="qcurve" smooth="yes"/>
      <point x="428" y="1100"/>
      <point x="475" y="1033"/>
      <point x="549" y="954" type="qcurve"/>
      <point x="635" y="1010"/>
      <point x="713" y="1095"/>
      <point x="713" y="1147" type="qcurve" smooth="yes"/>
      <point x="713" y="1202"/>
      <point x="637" y="1270"/>
    </contour>
    <contour>
      <point x="600" y="195" type="qcurve" smooth="yes"/>
      <point x="726" y="195"/>
      <point x="836" y="279" type="qcurve"/>
      <point x="500" y="635" type="line"/>
      <point x="424" y="577"/>
      <point x="346" y="472"/>
      <point x="346" y="410" type="qcurve" smooth="yes"/>
      <point x="346" y="321"/>
      <point x="491" y="195"/>
    </contour>
  </outline>
</glyph>
<glyph name="quotesingle" format="2">
  <advance width="481"/>
  <unicode hex="0027"/>
  <outline>
    <contour>
      <point x="125" y="1022" type="line"/>
      <point x="125" y="1481" type="line"/>
      <point x="358" y="1481" type="line"/>
      <point x="358" y="1022" type="line"/>
    </contour>
  </outline>
</glyph>
<glyph name="parenleft" format="2">
  <advance width="634"/>
  <unicode hex="0028"/>
  <outline>
    <contour>
      <point x="375" y="1550" type="qcurve"/>
      <point x="584" y="1462" type="line"/>
      <point x="548" y="1407"/>
      <point x="466" y="1245"/>
      <point x="381" y="1039"/>
      <point x="326" y="804"/>
      <point x="326" y="705" type="qcurve" smooth="yes"/>
      <point x="326" y="424"/>
      <point x="578" y="-8" type="qcurve"/>
      <point x="377" y="-109" type="line"/>
      <point x="70" y="350"/>
      <point x="70" y="711" type="qcurve" smooth="yes"/>
      <point x="70" y="901"/>
      <point x="227" y="1299"/>
    </contour>
  </outline>
</glyph>
<glyph name="parenright" format="2">
  <advance width="632"/>
  <unicode hex="0029"/>
  <outline>
    <contour>
      <point x="256" y="-109" type="qcurve"/>
      <point x="55" y="-8" type="line"/>
      <point x="307" y="415"/>
      <point x="307" y="705" type="qcurve" smooth="yes"/>
      <point x="307" y="804"/>
      <point x="252" y="1039"/>
      <point x="167" y="1245"/>
      <point x="85" y="1407"/>
      <point x="49" y="1462" type="qcurve"/>
      <point x="260" y="1550" type="line"/>
      <point x="407" y="1301"/>
      <point x="563" y="902"/>
      <point x="563" y="711" type="qcurve" smooth="yes"/>
      <point x="563" y="350"/>
    </contour>
  </outline>
</glyph>
<glyph name="asterisk" format="2">
  <advance width="706"/>
  <unicode hex="002A"/>
  <outline>
    <contour>
      <point x="154" y="1065" type="line"/>
      <point x="250" y="1210" type="line"/>
      <point x="104" y="1255" type="line"/>
      <point x="141" y="1374" type="line"/>
      <point x="291" y="1311" type="line"/>
      <point x="281" y="1468" type="line"/>
      <point x="426" y="1468" type="line"/>
      <point x="416" y="1311" type="line"/>
      <point x="563" y="1374" type="line"/>
      <point x="600" y="1255" type="line"/>
      <point x="457" y="1210" type="line"/>
      <point x="553" y="1065" type="line"/>
      <point x="446" y="995" type="line"/>
      <point x="354" y="1149" type="line"/>
      <point x="260" y="995" type="line"/>
    </contour>
  </outline>
</glyph>
<glyph name="plus" format="2">
  <advance width="862"/>
  <unicode hex="002B"/>
  <outline>
    <contour>
      <point x="766" y="838" type="line"/>
      <point x="766" y="616" type="line"/>
      <point x="555" y="616" type="line"/>
      <point x="555" y="385" type="line"/>
      <point x="307" y="385" type="line"/>
      <point x="307" y="616" type="line"/>
      <point x="96" y="616" type="line"/>
      <point x="96" y="838" type="line"/>
      <point x="307" y="838" type="line"/>
      <point x="307" y="1069" type="line"/>
      <point x="555" y="1069" type="line"/>
      <point x="555" y="838" type="line"/>
    </contour>
  </outline>
</glyph>
<glyph name="comma" format="2">
  <advance width="475"/>
  <unicode hex="002C"/>
  <outline>
    <contour>
      <point x="150" y="-236" type="line"/>
      <point x="205" y="8" type="line"/>
      <point x="119" y="8" type="line"/>
      <point x="119" y="295" type="line"/>
      <point x="356" y="295" type="line"/>
      <point x="356" y="8" type="line"/>
      <point x="272" y="-236" type="line"/>
    </contour>
  </outline>
</glyph>
<glyph name="hyphen" format="2">
  <advance width="856"/>
  <unicode hex="002D"/>
  <outline>
    <contour>
      <point x="119" y="438" type="line"/>
      <point x="119" y="686" type="line"/>
      <point x="739" y="686" type="line"/>
      <point x="739" y="438" type="line"/>
    </contour>
  </outline>
</glyph>
<glyph name="zero" format="2">
  <advance width="1435"/>
  <unicode hex="0030"/>
  <outline>
    <contour>
      <point x="86" y="717" type="qcurve" smooth="yes"/>
      <point x="86" y="849"/>
      <point x="176" y="1111"/>
      <point x="334" y="1322"/>
      <point x="577" y="1454"/>
      <point x="717" y="1454" type="qcurve" smooth="yes"/>
      <point x="838" y="1454"/>
      <point x="1048" y="1362"/>
      <point x="1194" y="1210"/>
      <point x="1300" y="1017"/>
      <point x="1350" y="814"/>
      <point x="1350" y="717" type="qcurve" smooth="yes"/>
      <point x="1350" y="611"/>
      <point x="1294" y="399"/>
      <point x="1184" y="211"/>
      <point x="1034" y="66"/>
      <point x="831" y="-19"/>
      <point x="717" y="-20" type="qcurve" smooth="yes"/>
      <point x="597" y="-19"/>
      <point x="388" y="72"/>
      <point x="241" y="221"/>
      <point x="136" y="413"/>
      <point x="86" y="617"/>
    </contour>
    <contour>
      <point x="717" y="229" type="qcurve" smooth="yes"/>
      <point x="804" y="229"/>
      <point x="943" y="323"/>
      <point x="1023" y="471"/>
      <point x="1065" y="636"/>
      <point x="1065" y="717" type="qcurve" smooth="yes"/>
      <point x="1065" y="804"/>
      <point x="1019" y="974"/>
      <point x="935" y="1116"/>
      <point x="799" y="1204"/>
      <point x="717" y="1204" type="qcurve" smooth="yes"/>
      <point x="647" y="1204"/>
      <point x="530" y="1142"/>
      <point x="451" y="1042"/>
      <point x="396" y="912"/>
      <point x="371" y="781"/>
      <point x="371" y="717" type="qcurve" smooth="yes"/>
      <point x="373" y="629"/>
      <point x="417" y="460"/>
      <point x="498" y="317"/>
      <point x="633" y="229"/>
    </contour>
  </outline>
</glyph>
<glyph name="one" format="2">
  <advance width="1003"/>
  <unicode hex="0031"/>
  <outline>
    <contour>
      <point x="958" y="248" type="line"/>
      <point x="958" y="0" type="line"/>
      <point x="135" y="0" type="line"/>
      <point x="135" y="248" type="line"/>
      <point x="418" y="248" type="line"/>
      <point x="418" y="1194" type="line"/>
      <point x="380" y="1141"/>
      <point x="165" y="1018"/>
      <point x="88" y="1018" type="qcurve"/>
      <point x="88" y="1272" type="line"/>
      <point x="129" y="1272"/>
      <point x="226" y="1311"/>
      <point x="306" y="1366"/>
      <point x="377" y="1425"/>
      <point x="416" y="1464"/>
      <point x="418" y="1468" type="qcurve"/>
      <point x="698" y="1468" type="line"/>
      <point x="698" y="248" type="line"/>
    </contour>
  </outline>
</glyph>
<glyph name="two" format="2">
  <advance width="1245"/>
  <unicode hex="0032"/>
  <outline>
    <contour>
      <point x="84" y="0" type="line"/>
      <point x="84" y="249"/>
      <point x="220" y="529"/>
      <point x="387" y="631" type="qcurve" smooth="yes"/>
      <point x="425" y="654"/>
      <point x="544" y="716"/>
      <point x="629" y="760"/>
      <point x="727" y="825"/>
      <point x="788" y="887"/>
      <point x="829" y="975"/>
      <point x="829" y="1026" type="qcurve" smooth="yes"/>
      <point x="829" y="1116"/>
      <point x="714" y="1225"/>
      <point x="614" y="1225" type="qcurve" smooth="yes"/>
      <point x="509" y="1225"/>
      <point x="328" y="1122"/>
      <point x="262" y="1051" type="qcurve"/>
      <point x="90" y="1231" type="line"/>
      <point x="122" y="1268"/>
      <point x="218" y="1344"/>
      <point x="358" y="1423"/>
      <point x="548" y="1473"/>
      <point x="649" y="1473" type="qcurve" smooth="yes"/>
      <point x="881" y="1473"/>
      <point x="1139" y="1232"/>
      <point x="1139" y="1038" type="qcurve" smooth="yes"/>
      <point x="1139" y="966"/>
      <point x="1096" y="841"/>
      <point x="1035" y="753"/>
      <point x="931" y="665"/>
      <point x="846" y="611"/>
      <point x="782" y="575" type="qcurve" smooth="yes"/>
      <point x="645" y="502"/>
      <point x="492" y="389"/>
      <point x="436" y="308"/>
      <point x="416" y="248" type="qcurve"/>
      <point x="1141" y="248" type="line"/>
      <point x="1141" y="0" type="line"/>
    </contour>
  </outline>
</glyph>
<glyph name="colon" format="2">
  <advance width="505"/>
  <unicode hex="003A"/>
  <outline>
    <contour>
      <point x="141" y="766" type="line"/>
      <point x="141" y="1061" type="line"/>
      <point x="365" y="1061" type="line"/>
      <point x="365" y="766" type="line"/>
    </contour>
    <contour>
      <point x="141" y="0" type="line"/>
      <point x="141" y="295" type="line"/>
      <point x="365" y="295" type="line"/>
      <point x="365" y="0" type="line"/>
    </contour>
  </outline>
</glyph>
<glyph name="semicolon" format="2">
  <advance width="530"/>
  <unicode hex="003B"/>
  <outline>
    <contour>
      <point x="147" y="766" type="line"/>
      <point x="147" y="1061" type="line"/>
      <point x="373" y="1061" type="line"/>
      <point x="373" y="766" type="line"/>
    </contour>
    <contour>
      <point x="176" y="-236" type="line"/>
      <point x="231" y="8" type="line"/>
      <point x="145" y="8" type="line"/>
      <point x="145" y="295" type="line"/>
      <point x="385" y="295" type="line"/>
      <point x="385" y="8" type="line"/>
      <point x="301" y="-236" type="line"/>
    </contour>
  </outline>
</glyph>
<glyph name="less" format="2">
  <advance width="1054"/>
  <unicode hex="003C"/>
  <outline>
    <contour>
      <point x="66" y="590" type="line"/>
      <point x="930" y="1112" type="line"/>
      <point x="930" y="821" type="line"/>
      <point x="465" y="530" type="line"/>
      <point x="930" y="252" type="line"/>
      <point x="930" y="-55" type="line"/>
      <point x="66" y="457" type="line"/>
    </contour>
  </outline>
</glyph>
<glyph name="greater" format="2">
  <advance width="1054"/>
  <unicode hex="003E"/>
  <outline>
    <contour>
      <point x="989" y="457" type="line"/>
      <point x="125" y="-55" type="line"/>
      <point x="125" y="252" type="line"/>
      <point x="590" y="530" type="line"/>
      <point x="125" y="821" type="line"/>
      <point x="125" y="1112" type="line"/>
      <point x="989" y="590" type="line"/>
    </contour>
  </outline>
</glyph>
<glyph name="question" format="2">
  <advance width="995"/>
  <unicode hex="003F"/>
  <outline>
    <contour>
      <point x="250" y="477" type="line"/>
      <point x="250" y="587"/>
      <point x="322" y="741"/>
      <point x="418" y="797" type="qcurve" smooth="yes"/>
      <point x="430" y="804"/>
      <point x="501" y="843"/>
      <point x="548" y="870"/>
      <point x="614" y="920"/>
      <point x="654" y="968"/>
      <point x="684" y="1036"/>
      <point x="684" y="1073" type="qcurve" smooth="yes"/>
      <point x="684" y="1154"/>
      <point x="569" y="1249"/>
      <point x="489" y="1249" type="qcurve" smooth="yes"/>
      <point x="348" y="1249"/>
      <point x="248" y="1085" type="qcurve"/>
      <point x="70" y="1208" type="line"/>
      <point x="123" y="1332"/>
      <point x="356" y="1473"/>
      <point x="498" y="1473" type="qcurve" smooth="yes"/>
      <point x="579" y="1473"/>
      <point x="726" y="1425"/>
      <point x="850" y="1332"/>
      <point x="924" y="1172"/>
      <point x="924" y="1069" type="qcurve" smooth="yes"/>
      <point x="924" y="947"/>
      <point x="816" y="791"/>
      <point x="709" y="725" type="qcurve" smooth="yes"/>
      <point x="690" y="713"/>
      <point x="619" y="673"/>
      <point x="579" y="649"/>
      <point x="525" y="607"/>
      <point x="496" y="568"/>
      <point x="475" y="511"/>
      <point x="475" y="477" type="qcurve"/>
    </contour>
    <contour>
      <point x="254" y="0" type="line"/>
      <point x="254" y="283" type="line"/>
      <point x="481" y="283" type="line"/>
      <point x="481" y="0" type="line"/>
    </contour>
  </outline>
</glyph>
<glyph name="at" format="2">
  <advance width="1730"/>
  <unicode hex="0040"/>
  <outline>
    <contour>
      <point x="1628" y="455" type="qcurve" smooth="yes"/>
      <point x="1628" y="423"/>
      <point x="1625" y="359"/>
      <point x="1610" y="257"/>
      <point x="1585" y="170"/>
      <point x="1538" y="76"/>
      <point x="1473" y="10"/>
      <point x="1374" y="-33"/>
      <point x="1313" y="-33" type="qcurve" smooth="yes"/>
      <point x="1140" y="-33"/>
      <point x="1118" y="135" type="qcurve"/>
      <point x="1054" y="71"/>
      <point x="871" y="-4"/>
      <point x="770" y="-4" type="qcurve" smooth="yes"/>
      <point x="621" y="-4"/>
      <point x="457" y="154"/>
      <point x="457" y="283" type="qcurve" smooth="yes"/>
      <point x="457" y="364"/>
      <point x="523" y="484"/>
      <point x="636" y="551"/>
      <point x="766" y="582"/>
      <point x="840" y="582" type="qcurve" smooth="yes"/>
      <point x="968" y="582"/>
      <point x="1071" y="537" type="qcurve"/>
      <point x="1071" y="659"/>
      <point x="968" y="788"/>
      <point x="838" y="788" type="qcurve" smooth="yes"/>
      <point x="673" y="788"/>
      <point x="565" y="698" type="qcurve"/>
      <point x="512" y="844" type="line"/>
      <point x="665" y="946"/>
      <point x="864" y="946" type="qcurve" smooth="yes"/>
      <point x="938" y="946"/>
      <point x="1054" y="917"/>
      <point x="1131" y="872"/>
      <point x="1186" y="799"/>
      <point x="1215" y="731"/>
      <point x="1231" y="636"/>
      <point x="1235" y="566"/>
      <point x="1235" y="518" type="qcurve" smooth="yes"/>
      <point x="1235" y="322" type="line" smooth="yes"/>
      <point x="1235" y="268"/>
      <point x="1241" y="198"/>
      <point x="1260" y="126"/>
      <point x="1305" y="90"/>
      <point x="1339" y="90" type="qcurve" smooth="yes"/>
      <point x="1381" y="90"/>
      <point x="1446" y="146"/>
      <point x="1482" y="227"/>
      <point x="1506" y="333"/>
      <point x="1513" y="419"/>
      <point x="1513" y="459" type="qcurve" smooth="yes"/>
      <point x="1513" y="648"/>
      <point x="1349" y="951"/>
      <point x="1048" y="1124"/>
      <point x="856" y="1124" type="qcurve" smooth="yes"/>
      <point x="666" y="1124"/>
      <point x="367" y="956"/>
      <point x="201" y="659"/>
      <point x="201" y="471" type="qcurve" smooth="yes"/>
      <point x="201" y="289"/>
      <point x="356" y="-11"/>
      <point x="647" y="-188"/>
      <point x="834" y="-188" type="qcurve" smooth="yes"/>
      <point x="923" y="-188"/>
      <point x="1064" y="-150"/>
      <point x="1153" y="-111" type="qcurve"/>
      <point x="1186" y="-217" type="line"/>
      <point x="1018" y="-299"/>
      <point x="829" y="-299" type="qcurve" smooth="yes"/>
      <point x="676" y="-299"/>
      <point x="404" y="-186"/>
      <point x="203" y="13"/>
      <point x="86" y="303"/>
      <point x="86" y="471" type="qcurve" smooth="yes"/>
      <point x="86" y="613"/>
      <point x="169" y="860"/>
      <point x="315" y="1040"/>
      <point x="511" y="1170"/>
      <point x="741" y="1235"/>
      <point x="864" y="1235" type="qcurve" smooth="yes"/>
      <point x="985" y="1235"/>
      <point x="1210" y="1171"/>
      <point x="1403" y="1040"/>
      <point x="1546" y="857"/>
      <point x="1628" y="603"/>
    </contour>
    <contour>
      <point x="1069" y="330" type="qcurve" smooth="yes"/>
      <point x="1069" y="408" type="line"/>
      <point x="936" y="451"/>
      <point x="840" y="451" type="qcurve" smooth="yes"/>
      <point x="739" y="451"/>
      <point x="621" y="373"/>
      <point x="621" y="289" type="qcurve" smooth="yes"/>
      <point x="621" y="219"/>
      <point x="709" y="137"/>
      <point x="786" y="137" type="qcurve" smooth="yes"/>
      <point x="888" y="137"/>
      <point x="965" y="178" type="qcurve"/>
      <point x="1069" y="227"/>
    </contour>
  </outline>
</glyph>
<glyph name="C" format="2">
  <advance width="1404"/>
  <unicode hex="0043"/>
  <anchor x="0" y="0" name="Anchor-11"/>
  <anchor x="0" y="0" name="Anchor-10"/>
  <anchor x="778" y="1452" name="Anchor-9"/>
  <anchor x="0" y="0" name="Anchor-8"/>
  <anchor x="770" y="0" name="Anchor-7"/>
  <outline>
    <contour>
      <point x="780" y="1462" type="qcurve" smooth="yes"/>
      <point x="975" y="1462"/>
      <point x="1274" y="1290"/>
      <point x="1346" y="1145" type="qcurve"/>
      <point x="1128" y="995" type="line"/>
      <point x="1093" y="1073"/>
      <point x="969" y="1174"/>
      <point x="842" y="1212"/>
      <point x="772" y="1212" type="qcurve" smooth="yes"/>
      <point x="670" y="1212"/>
      <point x="505" y="1127"/>
      <point x="404" y="987"/>
      <point x="350" y="818"/>
      <point x="350" y="729" type="qcurve" smooth="yes"/>
      <point x="350" y="600"/>
      <point x="456" y="376"/>
      <point x="654" y="238"/>
      <point x="776" y="238" type="qcurve" smooth="yes"/>
      <point x="846" y="238"/>
      <point x="980" y="281"/>
      <point x="1103" y="384"/>
      <point x="1135" y="459" type="qcurve"/>
      <point x="1366" y="326" type="line"/>
      <point x="1323" y="222"/>
      <point x="1126" y="65"/>
      <point x="889" y="-12"/>
      <point x="647" y="-12"/>
      <point x="425" y="72"/>
      <point x="256" y="219"/>
      <point x="129" y="408"/>
      <point x="63" y="627"/>
      <point x="63" y="737" type="qcurve" smooth="yes"/>
      <point x="63" y="871"/>
      <point x="162" y="1129"/>
      <point x="340" y="1335"/>
      <point x="616" y="1462"/>
    </contour>
  </outline>
</glyph>
<glyph name="H" format="2">
  <advance width="1525"/>
  <unicode hex="0048"/>
  <anchor x="0" y="0" name="Anchor-11"/>
  <anchor x="764" y="727" name="Anchor-10"/>
  <anchor x="768" y="1450" name="Anchor-9"/>
  <anchor x="0" y="0" name="Anchor-8"/>
  <anchor x="764" y="0" name="Anchor-7"/>
  <outline>
    <contour>
      <point x="1374" y="1454" type="line"/>
      <point x="1374" y="0" type="line"/>
      <point x="1094" y="0" type="line"/>
      <point x="1094" y="621" type="line"/>
      <point x="434" y="621" type="line"/>
      <point x="434" y="0" type="line"/>
      <point x="152" y="0" type="line"/>
      <point x="152" y="1454" type="line"/>
      <point x="434" y="1454" type="line"/>
      <point x="434" y="866" type="line"/>
      <point x="1094" y="866" type="line"/>
      <point x="1094" y="1454" type="line"/>
    </contour>
  </outline>
</glyph>
<glyph name="I" format="2">
  <advance width="585"/>
  <unicode hex="0049"/>
  <anchor x="0" y="0" name="Anchor-11"/>
  <anchor x="0" y="0" name="Anchor-10"/>
  <anchor x="293" y="1452" name="Anchor-9"/>
  <anchor x="434" y="0" name="Anchor-8"/>
  <anchor x="293" y="0" name="Anchor-7"/>
  <outline>
    <contour>
      <point x="152" y="0" type="line"/>
      <point x="152" y="1454" type="line"/>
      <point x="434" y="1454" type="line"/>
      <point x="434" y="0" type="line"/>
    </contour>
  </outline>
</glyph>
<glyph name="K" format="2">
  <advance width="1370"/>
  <unicode hex="004B"/>
  <anchor x="0" y="0" name="Anchor-11"/>
  <anchor x="0" y="0" name="Anchor-10"/>
  <anchor x="0" y="0" name="Anchor-9"/>
  <anchor x="0" y="0" name="Anchor-8"/>
  <anchor x="721" y="0" name="Anchor-7"/>
  <outline>
    <contour>
      <point x="152" y="0" type="line"/>
      <point x="152" y="1452" type="line"/>
      <point x="434" y="1452" type="line"/>
      <point x="434" y="762" type="line"/>
      <point x="1044" y="1454" type="line"/>
      <point x="1356" y="1454" type="line"/>
      <point x="799" y="809" type="line"/>
      <point x="1391" y="0" type="line"/>
      <point x="1071" y="0" type="line"/>
      <point x="618" y="627" type="line"/>
      <point x="434" y="434" type="line"/>
      <point x="434" y="0" type="line"/>
    </contour>
  </outline>
</glyph>
<glyph name="M" format="2">
  <advance width="1771"/>
  <unicode hex="004D"/>
  <anchor x="0" y="0" name="Anchor-11"/>
  <anchor x="0" y="0" name="Anchor-10"/>
  <anchor x="885" y="1454" name="Anchor-9"/>
  <anchor x="0" y="0" name="Anchor-8"/>
  <anchor x="885" y="0" name="Anchor-7"/>
  <outline>
    <contour>
      <point x="1337" y="0" type="line"/>
      <point x="1337" y="954" type="line"/>
      <point x="965" y="244" type="line"/>
      <point x="807" y="244" type="line"/>
      <point x="434" y="954" type="line"/>
      <point x="434" y="0" type="line"/>
      <point x="152" y="0" type="line"/>
      <point x="152" y="1454" type="line"/>
      <point x="455" y="1454" type="line"/>
      <point x="885" y="627" type="line"/>
      <point x="1319" y="1454" type="line"/>
      <point x="1620" y="1454" type="line"/>
      <point x="1620" y="0" type="line"/>
    </contour>
  </outline>
</glyph>
<glyph name="Q" format="2">
  <advance width="1546"/>
  <unicode hex="0051"/>
  <outline>
    <contour>
      <point x="1491" y="0" type="line"/>
      <point x="1225" y="0" type="line"/>
      <point x="1141" y="94" type="line"/>
      <point x="974" y="-10"/>
      <point x="772" y="-10" type="qcurve" smooth="yes"/>
      <point x="648" y="-9"/>
      <point x="424" y="72"/>
      <point x="254" y="214"/>
      <point x="128" y="399"/>
      <point x="63" y="616"/>
      <point x="63" y="727" type="qcurve" smooth="yes"/>
      <point x="63" y="871"/>
      <point x="172" y="1140"/>
      <point x="359" y="1342"/>
      <point x="627" y="1464"/>
      <point x="778" y="1464" type="qcurve" smooth="yes"/>
      <point x="901" y="1464"/>
      <point x="1125" y="1381"/>
      <point x="1293" y="1236"/>
      <point x="1418" y="1049"/>
      <point x="1483" y="833"/>
      <point x="1483" y="723" type="qcurve" smooth="yes"/>
      <point x="1483" y="584"/>
      <point x="1383" y="323"/>
      <point x="1292" y="223" type="qcurve"/>
    </contour>
    <contour>
      <point x="774" y="240" type="qcurve" smooth="yes"/>
      <point x="882" y="240"/>
      <point x="969" y="289" type="qcurve"/>
      <point x="745" y="539" type="line"/>
      <point x="1012" y="539" type="line"/>
      <point x="1112" y="426" type="line"/>
      <point x="1198" y="556"/>
      <point x="1198" y="727" type="qcurve" smooth="yes"/>
      <point x="1198" y="855"/>
      <point x="1097" y="1075"/>
      <point x="900" y="1214"/>
      <point x="774" y="1214" type="qcurve" smooth="yes"/>
      <point x="675" y="1214"/>
      <point x="511" y="1130"/>
      <point x="407" y="991"/>
      <point x="350" y="818"/>
      <point x="350" y="727" type="qcurve" smooth="yes"/>
      <point x="350" y="599"/>
      <point x="448" y="380"/>
      <point x="645" y="240"/>
    </contour>
  </outline>
</glyph>
<glyph name="R" format="2">
  <advance width="1361"/>
  <unicode hex="0052"/>
  <anchor x="0" y="0" name="Anchor-11"/>
  <anchor x="0" y="0" name="Anchor-10"/>
  <anchor x="641" y="1454" name="Anchor-9"/>
  <anchor x="0" y="0" name="Anchor-8"/>
  <anchor x="700" y="0" name="Anchor-7"/>
  <outline>
    <contour>
      <point x="152" y="0" type="line"/>
      <point x="152" y="1454" type="line"/>
      <point x="795" y="1454" type="line" smooth="yes"/>
      <point x="924" y="1454"/>
      <point x="1140" y="1311"/>
      <point x="1257" y="1091"/>
      <point x="1257" y="971" type="qcurve" smooth="yes"/>
      <point x="1257" y="831"/>
      <point x="1114" y="598"/>
      <point x="995" y="547" type="qcurve"/>
      <point x="1327" y="0" type="line"/>
      <point x="1016" y="0" type="line"/>
      <point x="717" y="487" type="line"/>
      <point x="434" y="487" type="line"/>
      <point x="434" y="0" type="line"/>
    </contour>
    <contour>
      <point x="434" y="735" type="line"/>
      <point x="788" y="735" type="line" smooth="yes"/>
      <point x="866" y="735"/>
      <point x="973" y="872"/>
      <point x="973" y="1070"/>
      <point x="853" y="1206"/>
      <point x="776" y="1206" type="qcurve" smooth="yes"/>
      <point x="434" y="1206" type="line"/>
    </contour>
  </outline>
</glyph>
<glyph name="U" format="2">
  <advance width="1536"/>
  <unicode hex="0055"/>
  <anchor x="1409" y="1315" name="Anchor-11"/>
  <anchor x="0" y="0" name="Anchor-10"/>
  <anchor x="768" y="1452" name="Anchor-9"/>
  <anchor x="928" y="6" name="Anchor-8"/>
  <anchor x="768" y="0" name="Anchor-7"/>
  <outline>
    <contour>
      <point x="768" y="-10" type="qcurve" smooth="yes"/>
      <point x="633" y="-10"/>
      <point x="415" y="69"/>
      <point x="270" y="203"/>
      <point x="173" y="389"/>
      <point x="131" y="596"/>
      <point x="131" y="713" type="qcurve" smooth="yes"/>
      <point x="131" y="1454" type="line"/>
      <point x="414" y="1454" type="line"/>
      <point x="414" y="713" type="line" smooth="yes"/>
      <point x="414" y="617"/>
      <point x="451" y="454"/>
      <point x="530" y="318"/>
      <point x="671" y="240"/>
      <point x="766" y="240" type="qcurve" smooth="yes"/>
      <point x="863" y="240"/>
      <point x="1006" y="319"/>
      <point x="1085" y="457"/>
      <point x="1122" y="618"/>
      <point x="1122" y="713" type="qcurve" smooth="yes"/>
      <point x="1122" y="1454" type="line"/>
      <point x="1403" y="1454" type="line"/>
      <point x="1403" y="713" type="line" smooth="yes"/>
      <point x="1403" y="560"/>
      <point x="1329" y="304"/>
      <point x="1180" y="103"/>
      <point x="931" y="-10"/>
    </contour>
  </outline>
</glyph>
<glyph name="V" format="2">
  <advance width="1384"/>
  <unicode hex="0056"/>
  <outline>
    <contour>
      <point x="301" y="1454" type="line"/>
      <point x="694" y="336" type="line"/>
      <point x="1083" y="1454" type="line"/>
      <point x="1380" y="1454" type="line"/>
      <point x="829" y="0" type="line"/>
      <point x="557" y="0" type="line"/>
      <point x="4" y="1454" type="line"/>
    </contour>
  </outline>
</glyph>
<glyph name="W" format="2">
  <advance width="2156"/>
  <unicode hex="0057"/>
  <anchor x="0" y="0" name="Anchor-11"/>
  <anchor x="0" y="0" name="Anchor-10"/>
  <anchor x="1077" y="1452" name="Anchor-9"/>
  <anchor x="0" y="0" name="Anchor-8"/>
  <anchor x="0" y="0" name="Anchor-7"/>
  <outline>
    <contour>
      <point x="649" y="1450" type="line"/>
      <point x="911" y="1450" type="line"/>
      <point x="1077" y="969" type="line"/>
      <point x="1245" y="1450" type="line"/>
      <point x="1505" y="1450" type="line"/>
      <point x="1255" y="788" type="line"/>
      <point x="1440" y="326" type="line"/>
      <point x="1851" y="1454" type="line"/>
      <point x="2159" y="1454" type="line"/>
      <point x="1577" y="0" type="line"/>
      <point x="1333" y="0" type="line"/>
      <point x="1077" y="610" type="line"/>
      <point x="823" y="0" type="line"/>
      <point x="580" y="0" type="line"/>
      <point x="0" y="1454" type="line"/>
      <point x="303" y="1454" type="line"/>
      <point x="717" y="326" type="line"/>
      <point x="897" y="788" type="line"/>
    </contour>
  </outline>
</glyph>
<glyph name="X" format="2">
  <advance width="1323"/>
  <unicode hex="0058"/>
  <outline>
    <contour>
      <point x="303" y="1454" type="line"/>
      <point x="664" y="918" type="line"/>
      <point x="1022" y="1454" type="line"/>
      <point x="1329" y="1454" type="line"/>
      <point x="825" y="717" type="line"/>
      <point x="1313" y="0" type="line"/>
      <point x="1006" y="0" type="line"/>
      <point x="664" y="516" type="line"/>
      <point x="319" y="0" type="line"/>
      <point x="10" y="0" type="line"/>
      <point x="498" y="717" type="line"/>
      <point x="-6" y="1454" type="line"/>
    </contour>
  </outline>
</glyph>
<glyph name="bracketleft" format="2">
  <advance width="647"/>
  <unicode hex="005B"/>
  <outline>
    <contour>
      <point x="168" y="-82" type="line"/>
      <point x="168" y="1516" type="line"/>
      <point x="551" y="1516" type="line"/>
      <point x="551" y="1296" type="line"/>
      <point x="422" y="1296" type="line"/>
      <point x="422" y="137" type="line"/>
      <point x="551" y="137" type="line"/>
      <point x="551" y="-82" type="line"/>
    </contour>
  </outline>
</glyph>
<glyph name="backslash" format="2">
  <advance width="1304"/>
  <unicode hex="005C"/>
  <outline>
    <contour>
      <point x="360" y="1454" type="line"/>
      <point x="1251" y="0" type="line"/>
      <point x="948" y="0" type="line"/>
      <point x="55" y="1454" type="line"/>
    </contour>
  </outline>
</glyph>
<glyph name="bracketright" format="2">
  <advance width="647"/>
  <unicode hex="005D"/>
  <outline>
    <contour>
      <point x="94" y="-82" type="line"/>
      <point x="94" y="137" type="line"/>
      <point x="225" y="137" type="line"/>
      <point x="225" y="1296" type="line"/>
      <point x="94" y="1296" type="line"/>
      <point x="94" y="1516" type="line"/>
      <point x="479" y="1516" type="line"/>
      <point x="479" y="-82" type="line"/>
    </contour>
  </outline>
</glyph>
<glyph name="asciicircum" format="2">
  <advance width="1198"/>
  <unicode hex="005E"/>
  <outline>
    <contour>
      <point x="80" y="621" type="line"/>
      <point x="485" y="1454" type="line"/>
      <point x="715" y="1454" type="line"/>
      <point x="1118" y="621" type="line"/>
      <point x="893" y="621" type="line"/>
      <point x="600" y="1223" type="line"/>
      <point x="301" y="621" type="line"/>
    </contour>
  </outline>
</glyph>
<glyph name="underscore" format="2">
  <advance width="972"/>
  <unicode hex="005F"/>
  <outline>
    <contour>
      <point x="111" y="-248" type="line"/>
      <point x="111" y="0" type="line"/>
      <point x="862" y="0" type="line"/>
      <point x="862" y="-248" type="line"/>
    </contour>
  </outline>
</glyph>
<glyph name="grave" format="2">
  <advance width="522"/>
  <unicode hex="0060"/>
  <outline>
    <contour>
      <point x="96" y="1495" type="line"/>
      <point x="350" y="1495" type="line"/>
      <point x="463" y="1251" type="line"/>
      <point x="287" y="1198" type="line"/>
    </contour>
  </outline>
</glyph>
<glyph name="b" format="2">
  <advance width="1298"/>
  <unicode hex="0062"/>
  <outline>
    <contour>
      <point x="365" y="186" type="qcurve"/>
      <point x="365" y="0" type="line"/>
      <point x="125" y="0" type="line"/>
      <point x="125" y="1495" type="line"/>
      <point x="399" y="1495" type="line"/>
      <point x="399" y="885" type="line"/>
      <point x="457" y="984"/>
      <point x="646" y="1092"/>
      <point x="768" y="1092" type="qcurve" smooth="yes"/>
      <point x="904" y="1092"/>
      <point x="1121" y="938"/>
      <point x="1237" y="683"/>
      <point x="1237" y="532" type="qcurve" smooth="yes"/>
      <point x="1237" y="379"/>
      <point x="1107" y="126"/>
      <point x="876" y="-20"/>
      <point x="735" y="-20" type="qcurve" smooth="yes"/>
      <point x="614" y="-20"/>
      <point x="421" y="89"/>
    </contour>
    <contour>
      <point x="956" y="530" type="qcurve" smooth="yes"/>
      <point x="956" y="664"/>
      <point x="796" y="858"/>
      <point x="676" y="858" type="qcurve" smooth="yes"/>
      <point x="588" y="858"/>
      <point x="439" y="740"/>
      <point x="399" y="649" type="qcurve"/>
      <point x="399" y="393" type="line"/>
      <point x="426" y="314"/>
      <point x="578" y="213"/>
      <point x="659" y="213" type="qcurve" smooth="yes"/>
      <point x="788" y="213"/>
      <point x="956" y="398"/>
    </contour>
  </outline>
</glyph>
<glyph name="d" format="2">
  <advance width="1320"/>
  <unicode hex="0064"/>
  <anchor x="1282" y="1073" name="Anchor-11"/>
  <anchor x="662" y="537" name="Anchor-10"/>
  <anchor x="662" y="1073" name="Anchor-9"/>
  <anchor x="0" y="0" name="Anchor-8"/>
  <anchor x="662" y="0" name="Anchor-7"/>
  <outline>
    <contour>
      <point x="59" y="537" type="qcurve" smooth="yes"/>
      <point x="59" y="690"/>
      <point x="181" y="944"/>
      <point x="402" y="1092"/>
      <point x="539" y="1092" type="qcurve" smooth="yes"/>
      <point x="654" y="1092"/>
      <point x="845" y="979"/>
      <point x="901" y="885" type="qcurve"/>
      <point x="901" y="1495" type="line"/>
      <point x="1176" y="1495" type="line"/>
      <point x="1176" y="307" type="line" smooth="yes"/>
      <point x="1176" y="263"/>
      <point x="1204" y="226"/>
      <point x="1239" y="223" type="qcurve"/>
      <point x="1239" y="0" type="line"/>
      <point x="1168" y="-14"/>
      <point x="1122" y="-14" type="qcurve" smooth="yes"/>
      <point x="1049" y="-14"/>
      <point x="952" y="59"/>
      <point x="946" y="119" type="qcurve" smooth="yes"/>
      <point x="942" y="186" type="line"/>
      <point x="884" y="87"/>
      <point x="682" y="-20"/>
      <point x="569" y="-20" type="qcurve" smooth="yes"/>
      <point x="423" y="-20"/>
      <point x="189" y="128"/>
      <point x="59" y="383"/>
    </contour>
    <contour>
      <point x="901" y="393" type="qcurve"/>
      <point x="901" y="649" type="line"/>
      <point x="867" y="738"/>
      <point x="708" y="858"/>
      <point x="625" y="858" type="qcurve" smooth="yes"/>
      <point x="504" y="858"/>
      <point x="344" y="663"/>
      <point x="344" y="530" type="qcurve" smooth="yes"/>
      <point x="344" y="396"/>
      <point x="513" y="213"/>
      <point x="641" y="213" type="qcurve" smooth="yes"/>
      <point x="721" y="213"/>
      <point x="874" y="316"/>
    </contour>
  </outline>
</glyph>
<glyph name="f" format="2">
  <advance width="757"/>
  <unicode hex="0066"/>
  <outline>
    <contour>
      <point x="190" y="0" type="line"/>
      <point x="190" y="807" type="line"/>
      <point x="49" y="807" type="line"/>
      <point x="49" y="1016" type="line"/>
      <point x="190" y="1016" type="line"/>
      <point x="190" y="1081" type="line" smooth="yes"/>
      <point x="190" y="1280"/>
      <point x="385" y="1516"/>
      <point x="549" y="1516" type="qcurve" smooth="yes"/>
      <point x="679" y="1516"/>
      <point x="813" y="1452" type="qcurve"/>
      <point x="758" y="1245" type="line"/>
      <point x="688" y="1284"/>
      <point x="608" y="1284" type="qcurve" smooth="yes"/>
      <point x="538" y="1284"/>
      <point x="465" y="1186"/>
      <point x="465" y="1092" type="qcurve" smooth="yes"/>
      <point x="465" y="1016" type="line"/>
      <point x="727" y="1016" type="line"/>
      <point x="727" y="807" type="line"/>
      <point x="465" y="807" type="line"/>
      <point x="465" y="0" type="line"/>
    </contour>
  </outline>
</glyph>
<glyph name="k" format="2">
  <advance width="1142"/>
  <unicode hex="006B"/>
  <anchor x="0" y="0" name="Anchor-11"/>
  <anchor x="0" y="0" name="Anchor-10"/>
  <anchor x="0" y="0" name="Anchor-9"/>
  <anchor x="0" y="0" name="Anchor-8"/>
  <anchor x="592" y="0" name="Anchor-7"/>
  <outline>
    <contour>
      <point x="858" y="0" type="line"/>
      <point x="545" y="463" type="line"/>
      <point x="399" y="319" type="line"/>
      <point x="399" y="0" type="line"/>
      <point x="125" y="0" type="line"/>
      <point x="125" y="1495" type="line"/>
      <point x="399" y="1495" type="line"/>
      <point x="399" y="590" type="line"/>
      <point x="831" y="1071" type="line"/>
      <point x="1122" y="1071" type="line"/>
      <point x="723" y="616" type="line"/>
      <point x="1151" y="0" type="line"/>
    </contour>
  </outline>
</glyph>
<glyph name="v" format="2">
  <advance width="1126"/>
  <unicode hex="0076"/>
  <outline>
    <contour>
      <point x="414" y="0" type="line"/>
      <point x="18" y="1073" type="line"/>
      <point x="303" y="1073" type="line"/>
      <point x="573" y="250" type="line"/>
      <point x="846" y="1073" type="line"/>
      <point x="1106" y="1073" type="line"/>
      <point x="713" y="0" type="line"/>
    </contour>
  </outline>
</glyph>
<glyph name="braceleft" format="2">
  <advance width="649"/>
  <unicode hex="007B"/>
  <outline>
    <contour>
      <point x="434" y="1296" type="line"/>
      <point x="434" y="879" type="line" smooth="yes"/>
      <point x="434" y="800"/>
      <point x="365" y="737" type="qcurve"/>
      <point x="434" y="675"/>
      <point x="434" y="596" type="qcurve" smooth="yes"/>
      <point x="434" y="156" type="line"/>
      <point x="547" y="156" type="line"/>
      <point x="547" y="-63" type="line"/>
      <point x="236" y="-63" type="line" smooth="yes"/>
      <point x="218" y="-63"/>
      <point x="188" y="-35"/>
      <point x="188" y="-2" type="qcurve" smooth="yes"/>
      <point x="188" y="506" type="line" smooth="yes"/>
      <point x="188" y="558"/>
      <point x="127" y="635"/>
      <point x="86" y="643" type="qcurve"/>
      <point x="86" y="836" type="line"/>
      <point x="127" y="836"/>
      <point x="188" y="923"/>
      <point x="188" y="969" type="qcurve" smooth="yes"/>
      <point x="188" y="1454" type="line" smooth="yes"/>
      <point x="188" y="1488"/>
      <point x="219" y="1516"/>
      <point x="236" y="1516" type="qcurve" smooth="yes"/>
      <point x="547" y="1516" type="line"/>
      <point x="547" y="1296" type="line"/>
    </contour>
  </outline>
</glyph>
<glyph name="bar" format="2">
  <advance width="557"/>
  <unicode hex="007C"/>
  <outline>
    <contour>
      <point x="162" y="-266" type="line"/>
      <point x="162" y="1587" type="line"/>
      <point x="395" y="1587" type="line"/>
      <point x="395" y="-266" type="line"/>
    </contour>
  </outline>
</glyph>
<glyph name="braceright" format="2">
  <advance width="649"/>
  <unicode hex="007D"/>
  <outline>
    <contour>
      <point x="102" y="1296" type="line"/>
      <point x="102" y="1516" type="line"/>
      <point x="416" y="1516" type="line" smooth="yes"/>
      <point x="432" y="1516"/>
      <point x="463" y="1487"/>
      <point x="463" y="1454" type="qcurve" smooth="yes"/>
      <point x="463" y="969" type="line" smooth="yes"/>
      <point x="463" y="923"/>
      <point x="524" y="836"/>
      <point x="565" y="836" type="qcurve"/>
      <point x="565" y="643" type="line"/>
      <point x="522" y="635"/>
      <point x="463" y="559"/>
      <point x="463" y="506" type="qcurve" smooth="yes"/>
      <point x="463" y="-2" type="line" smooth="yes"/>
      <point x="463" y="-34"/>
      <point x="433" y="-63"/>
      <point x="416" y="-63" type="qcurve" smooth="yes"/>
      <point x="102" y="-63" type="line"/>
      <point x="102" y="156" type="line"/>
      <point x="215" y="156" type="line"/>
      <point x="215" y="596" type="line" smooth="yes"/>
      <point x="215" y="675"/>
      <point x="287" y="737" type="qcurve"/>
      <point x="215" y="802"/>
      <point x="215" y="879" type="qcurve" smooth="yes"/>
      <point x="215" y="1296" type="line"/>
    </contour>
  </outline>
</glyph>
<glyph name="asciitilde" format="2">
  <advance width="1161"/>
  <unicode hex="007E"/>
  <outline>
    <contour>
      <point x="399" y="737" type="qcurve" smooth="yes"/>
      <point x="461" y="737"/>
      <point x="590" y="682"/>
      <point x="709" y="627"/>
      <point x="760" y="627" type="qcurve" smooth="yes"/>
      <point x="792" y="627"/>
      <point x="845" y="647"/>
      <point x="874" y="675"/>
      <point x="894" y="708"/>
      <point x="901" y="729"/>
      <point x="901" y="733" type="qcurve"/>
      <point x="1053" y="733" type="line"/>
      <point x="1053" y="721"/>
      <point x="1036" y="667"/>
      <point x="991" y="587"/>
      <point x="928" y="517"/>
      <point x="821" y="467"/>
      <point x="758" y="467" type="qcurve" smooth="yes"/>
      <point x="696" y="467"/>
      <point x="565" y="520"/>
      <point x="445" y="573"/>
      <point x="397" y="573" type="qcurve" smooth="yes"/>
      <point x="365" y="573"/>
      <point x="315" y="551"/>
      <point x="289" y="522"/>
      <point x="271" y="489"/>
      <point x="266" y="470"/>
      <point x="266" y="467" type="qcurve"/>
      <point x="115" y="467" type="line"/>
      <point x="115" y="480"/>
      <point x="128" y="527"/>
      <point x="153" y="589"/>
      <point x="200" y="651"/>
      <point x="259" y="704"/>
      <point x="348" y="737"/>
    </contour>
  </outline>
</glyph>
<glyph name="exclamdown" format="2">
  <advance width="624"/>
  <unicode hex="00A1"/>
  <outline>
    <contour>
      <point x="451" y="1458" type="line"/>
      <point x="451" y="1149" type="line"/>
      <point x="176" y="1149" type="line"/>
      <point x="176" y="1458" type="line"/>
    </contour>
    <contour>
      <point x="451" y="911" type="line"/>
      <point x="451" y="-10" type="line"/>
      <point x="176" y="-10" type="line"/>
      <point x="176" y="911" type="line"/>
    </contour>
  </outline>
</glyph>
<glyph name="cent" format="2">
  <advance width="1212"/>
  <unicode hex="00A2"/>
  <outline>
    <contour>
      <point x="565" y="-246" type="line"/>
      <point x="565" y="-18" type="line"/>
      <point x="428" y="-7"/>
      <point x="202" y="157"/>
      <point x="80" y="398"/>
      <point x="80" y="528" type="qcurve" smooth="yes"/>
      <point x="80" y="668"/>
      <point x="191" y="904"/>
      <point x="414" y="1068"/>
      <point x="565" y="1090" type="qcurve"/>
      <point x="565" y="1321" type="line"/>
      <point x="688" y="1321" type="line"/>
      <point x="688" y="1090" type="line"/>
      <point x="832" y="1085"/>
      <point x="1065" y="944"/>
      <point x="1130" y="817" type="qcurve"/>
      <point x="864" y="735" type="line"/>
      <point x="835" y="786"/>
      <point x="742" y="845"/>
      <point x="688" y="850" type="qcurve"/>
      <point x="688" y="219" type="line"/>
      <point x="747" y="229"/>
      <point x="852" y="295"/>
      <point x="868" y="340" type="qcurve"/>
      <point x="1137" y="258" type="line"/>
      <point x="1099" y="170"/>
      <point x="935" y="39"/>
      <point x="763" y="-20"/>
      <point x="688" y="-20" type="qcurve"/>
      <point x="688" y="-246" type="line"/>
    </contour>
    <contour>
      <point x="565" y="231" type="qcurve"/>
      <point x="565" y="838" type="line"/>
      <point x="473" y="820"/>
      <point x="362" y="641"/>
      <point x="362" y="528" type="qcurve" smooth="yes"/>
      <point x="362" y="426"/>
      <point x="474" y="260"/>
    </contour>
  </outline>
</glyph>
<glyph name="sterling" format="2">
  <advance width="1116"/>
  <unicode hex="00A3"/>
  <outline>
    <contour>
      <point x="973" y="236" type="qcurve"/>
      <point x="1040" y="31" type="line"/>
      <point x="926" y="-31"/>
      <point x="805" y="-31" type="qcurve" smooth="yes"/>
      <point x="743" y="-31"/>
      <point x="492" y="29"/>
      <point x="426" y="29" type="qcurve" smooth="yes"/>
      <point x="311" y="29"/>
      <point x="164" y="-16" type="qcurve"/>
      <point x="104" y="178" type="line"/>
      <point x="324" y="362"/>
      <point x="324" y="559" type="qcurve" smooth="yes"/>
      <point x="324" y="573" type="line"/>
      <point x="117" y="573" type="line"/>
      <point x="117" y="780" type="line"/>
      <point x="264" y="780" type="line"/>
      <point x="258" y="792"/>
      <point x="200" y="915"/>
      <point x="181" y="965"/>
      <point x="156" y="1059"/>
      <point x="156" y="1100" type="qcurve" smooth="yes"/>
      <point x="156" y="1252"/>
      <point x="401" y="1464"/>
      <point x="578" y="1464" type="qcurve" smooth="yes"/>
      <point x="702" y="1464"/>
      <point x="926" y="1349"/>
      <point x="1001" y="1249" type="qcurve"/>
      <point x="858" y="1081" type="line"/>
      <point x="807" y="1152"/>
      <point x="648" y="1241"/>
      <point x="498" y="1241"/>
      <point x="401" y="1145"/>
      <point x="401" y="1073" type="qcurve" smooth="yes"/>
      <point x="401" y="1031"/>
      <point x="434" y="941"/>
      <point x="498" y="815"/>
      <point x="512" y="780" type="qcurve"/>
      <point x="889" y="780" type="line"/>
      <point x="889" y="573" type="line"/>
      <point x="559" y="573" type="line"/>
      <point x="559" y="571" type="line" smooth="yes"/>
      <point x="559" y="476"/>
      <point x="479" y="310"/>
      <point x="385" y="213" type="qcurve"/>
      <point x="467" y="238"/>
      <point x="541" y="238" type="qcurve" smooth="yes"/>
      <point x="592" y="238"/>
      <point x="774" y="203"/>
      <point x="819" y="203" type="qcurve" smooth="yes"/>
      <point x="885" y="203"/>
    </contour>
  </outline>
</glyph>
<glyph name="currency" format="2">
  <advance width="1130"/>
  <unicode hex="00A4"/>
  <outline>
    <contour>
      <point x="348" y="1014" type="line"/>
      <point x="440" y="1075"/>
      <point x="567" y="1075" type="qcurve" smooth="yes"/>
      <point x="688" y="1075"/>
      <point x="782" y="1016" type="qcurve"/>
      <point x="924" y="1161" type="line"/>
      <point x="1036" y="1049" type="line"/>
      <point x="897" y="911" type="line"/>
      <point x="961" y="813"/>
      <point x="961" y="690" type="qcurve" smooth="yes"/>
      <point x="961" y="568"/>
      <point x="895" y="471" type="qcurve"/>
      <point x="1036" y="332" type="line"/>
      <point x="934" y="229" type="line"/>
      <point x="786" y="369" type="line"/>
      <point x="690" y="309"/>
      <point x="567" y="309" type="qcurve" smooth="yes"/>
      <point x="438" y="309"/>
      <point x="344" y="371" type="qcurve"/>
      <point x="195" y="229" type="line"/>
      <point x="94" y="332" type="line"/>
      <point x="236" y="473" type="line"/>
      <point x="172" y="571"/>
      <point x="172" y="690" type="qcurve" smooth="yes"/>
      <point x="172" y="816"/>
      <point x="233" y="907" type="qcurve"/>
      <point x="94" y="1049" type="line"/>
      <point x="205" y="1161" type="line"/>
    </contour>
    <contour>
      <point x="649" y="481"/>
      <point x="758" y="600"/>
      <point x="758" y="784"/>
      <point x="649" y="901"/>
      <point x="485" y="901"/>
      <point x="375" y="782"/>
      <point x="375" y="690" type="qcurve" smooth="yes"/>
      <point x="375" y="599"/>
      <point x="485" y="481"/>
    </contour>
  </outline>
</glyph>
<glyph name="yen" format="2">
  <advance width="1458"/>
  <unicode hex="00A5"/>
  <outline>
    <contour>
      <point x="1034" y="823" type="line"/>
      <point x="1184" y="823" type="line"/>
      <point x="1184" y="645" type="line"/>
      <point x="938" y="645" type="line"/>
      <point x="864" y="508" type="line"/>
      <point x="864" y="446" type="line"/>
      <point x="1186" y="446" type="line"/>
      <point x="1186" y="268" type="line"/>
      <point x="864" y="268" type="line"/>
      <point x="864" y="0" type="line"/>
      <point x="584" y="0" type="line"/>
      <point x="584" y="268" type="line"/>
      <point x="266" y="268" type="line"/>
      <point x="266" y="446" type="line"/>
      <point x="584" y="446" type="line"/>
      <point x="584" y="512" type="line"/>
      <point x="514" y="645" type="line"/>
      <point x="268" y="645" type="line"/>
      <point x="268" y="823" type="line"/>
      <point x="420" y="823" type="line"/>
      <point x="59" y="1454" type="line"/>
      <point x="365" y="1454" type="line"/>
      <point x="725" y="754" type="line"/>
      <point x="1087" y="1454" type="line"/>
      <point x="1395" y="1454" type="line"/>
    </contour>
  </outline>
</glyph>
<glyph name="brokenbar" format="2">
  <advance width="563"/>
  <unicode hex="00A6"/>
  <outline>
    <contour>
      <point x="399" y="1587" type="line"/>
      <point x="399" y="780" type="line"/>
      <point x="166" y="780" type="line"/>
      <point x="166" y="1587" type="line"/>
    </contour>
    <contour>
      <point x="399" y="541" type="line"/>
      <point x="399" y="-266" type="line"/>
      <point x="166" y="-266" type="line"/>
      <point x="166" y="541" type="line"/>
    </contour>
  </outline>
</glyph>
<glyph name="section" format="2">
  <advance width="1089"/>
  <unicode hex="00A7"/>
  <outline>
    <contour>
      <point x="1006" y="231" type="qcurve" smooth="yes"/>
      <point x="1006" y="146"/>
      <point x="947" y="4"/>
      <point x="853" y="-89"/>
      <point x="731" y="-152"/>
      <point x="610" y="-180"/>
      <point x="551" y="-180" type="qcurve" smooth="yes"/>
      <point x="474" y="-180"/>
      <point x="329" y="-137"/>
      <point x="217" y="-67"/>
      <point x="139" y="-1"/>
      <point x="109" y="33" type="qcurve"/>
      <point x="285" y="201" type="line"/>
      <point x="400" y="80"/>
      <point x="539" y="80" type="qcurve" smooth="yes"/>
      <point x="612" y="80"/>
      <point x="721" y="157"/>
      <point x="721" y="221" type="qcurve" smooth="yes"/>
      <point x="721" y="255"/>
      <point x="693" y="301"/>
      <point x="640" y="323"/>
      <point x="591" y="332"/>
      <point x="557" y="334" type="qcurve" smooth="yes"/>
      <point x="356" y="347"/>
      <point x="133" y="540"/>
      <point x="133" y="698" type="qcurve" smooth="yes"/>
      <point x="133" y="775"/>
      <point x="172" y="850" type="qcurve"/>
      <point x="138" y="882"/>
      <point x="88" y="1002"/>
      <point x="88" y="1075" type="qcurve" smooth="yes"/>
      <point x="88" y="1234"/>
      <point x="342" y="1464"/>
      <point x="520" y="1464" type="qcurve" smooth="yes"/>
      <point x="588" y="1464"/>
      <point x="712" y="1429"/>
      <point x="799" y="1380"/>
      <point x="881" y="1306"/>
      <point x="928" y="1248"/>
      <point x="954" y="1212" type="qcurve"/>
      <point x="743" y="1112" type="line"/>
      <point x="715" y="1164"/>
      <point x="607" y="1221"/>
      <point x="537" y="1221" type="qcurve" smooth="yes"/>
      <point x="462" y="1221"/>
      <point x="365" y="1143"/>
      <point x="365" y="1079" type="qcurve" smooth="yes"/>
      <point x="365" y="1009"/>
      <point x="456" y="954"/>
      <point x="537" y="952" type="qcurve" smooth="yes"/>
      <point x="601" y="950"/>
      <point x="721" y="927"/>
      <point x="838" y="875"/>
      <point x="924" y="800"/>
      <point x="977" y="681"/>
      <point x="977" y="608" type="qcurve" smooth="yes"/>
      <point x="977" y="554"/>
      <point x="951" y="463"/>
      <point x="934" y="440" type="qcurve"/>
      <point x="1006" y="375"/>
    </contour>
    <contour>
      <point x="680" y="508" type="qcurve"/>
      <point x="717" y="540"/>
      <point x="717" y="600" type="qcurve" smooth="yes"/>
      <point x="717" y="647"/>
      <point x="660" y="709"/>
      <point x="587" y="731"/>
      <point x="547" y="731" type="qcurve" smooth="yes"/>
      <point x="487" y="731"/>
      <point x="432" y="750" type="qcurve"/>
      <point x="399" y="717"/>
      <point x="399" y="662" type="qcurve" smooth="yes"/>
      <point x="399" y="617"/>
      <point x="439" y="560"/>
      <point x="508" y="536"/>
      <point x="578" y="526"/>
      <point x="659" y="516"/>
    </contour>
  </outline>
</glyph>
<glyph name="dieresis" format="2">
  <advance width="935"/>
  <unicode hex="00A8"/>
  <anchor x="469" y="1475" name="Anchor-13"/>
  <outline>
    <contour>
      <point x="158" y="1237" type="line"/>
      <point x="158" y="1481" type="line"/>
      <point x="385" y="1481" type="line"/>
      <point x="385" y="1237" type="line"/>
    </contour>
    <contour>
      <point x="551" y="1237" type="line"/>
      <point x="551" y="1481" type="line"/>
      <point x="778" y="1481" type="line"/>
      <point x="778" y="1237" type="line"/>
    </contour>
  </outline>
</glyph>
<glyph name="copyright" format="2">
  <advance width="1722"/>
  <unicode hex="00A9"/>
  <outline>
    <contour>
      <point x="88" y="727" type="qcurve" smooth="yes"/>
      <point x="88" y="883"/>
      <point x="204" y="1157"/>
      <point x="407" y="1352"/>
      <point x="692" y="1464"/>
      <point x="854" y="1464" type="qcurve" smooth="yes"/>
      <point x="1020" y="1464"/>
      <point x="1310" y="1352"/>
      <point x="1516" y="1157"/>
      <point x="1634" y="883"/>
      <point x="1634" y="727" type="qcurve" smooth="yes"/>
      <point x="1634" y="570"/>
      <point x="1516" y="295"/>
      <point x="1310" y="99"/>
      <point x="1020" y="-14"/>
      <point x="854" y="-14" type="qcurve" smooth="yes"/>
      <point x="692" y="-14"/>
      <point x="407" y="99"/>
      <point x="204" y="295"/>
      <point x="88" y="570"/>
    </contour>
    <contour>
      <point x="1518" y="725" type="qcurve" smooth="yes"/>
      <point x="1518" y="900"/>
      <point x="1346" y="1189"/>
      <point x="1041" y="1356"/>
      <point x="854" y="1356" type="qcurve" smooth="yes"/>
      <point x="718" y="1356"/>
      <point x="477" y="1258"/>
      <point x="305" y="1089"/>
      <point x="205" y="856"/>
      <point x="205" y="594"/>
      <point x="304" y="361"/>
      <point x="476" y="192"/>
      <point x="717" y="94"/>
      <point x="854" y="94" type="qcurve" smooth="yes"/>
      <point x="1039" y="94"/>
      <point x="1342" y="252"/>
      <point x="1518" y="542"/>
    </contour>
    <contour>
      <point x="365" y="727" type="qcurve" smooth="yes"/>
      <point x="365" y="820"/>
      <point x="430" y="990"/>
      <point x="551" y="1125"/>
      <point x="747" y="1206"/>
      <point x="868" y="1206" type="qcurve" smooth="yes"/>
      <point x="1024" y="1206"/>
      <point x="1258" y="1068"/>
      <point x="1313" y="948" type="qcurve"/>
      <point x="1053" y="868" type="line"/>
      <point x="1024" y="925"/>
      <point x="922" y="979"/>
      <point x="866" y="979" type="qcurve" smooth="yes"/>
      <point x="762" y="979"/>
      <point x="639" y="833"/>
      <point x="639" y="727" type="qcurve" smooth="yes"/>
      <point x="639" y="612"/>
      <point x="778" y="475"/>
      <point x="868" y="475" type="qcurve" smooth="yes"/>
      <point x="927" y="475"/>
      <point x="1032" y="535"/>
      <point x="1059" y="588" type="qcurve"/>
      <point x="1319" y="510" type="line"/>
      <point x="1270" y="399"/>
      <point x="1033" y="248"/>
      <point x="872" y="248" type="qcurve" smooth="yes"/>
      <point x="649" y="248"/>
      <point x="365" y="521"/>
    </contour>
  </outline>
</glyph>
<glyph name="ordfeminine" format="2">
  <advance width="909"/>
  <unicode hex="00AA"/>
  <anchor x="0" y="0" name="Anchor-11"/>
  <anchor x="0" y="0" name="Anchor-10"/>
  <anchor x="508" y="1063" name="Anchor-9"/>
  <anchor x="0" y="0" name="Anchor-8"/>
  <anchor x="903" y="23" name="Anchor-7"/>
  <outline>
    <contour>
      <point x="82" y="928" type="qcurve" smooth="yes"/>
      <point x="82" y="1035"/>
      <point x="254" y="1171"/>
      <point x="389" y="1171" type="qcurve" smooth="yes"/>
      <point x="487" y="1171"/>
      <point x="559" y="1139" type="qcurve"/>
      <point x="559" y="1178" type="line" smooth="yes"/>
      <point x="559" y="1246"/>
      <point x="481" y="1321"/>
      <point x="406" y="1321" type="qcurve" smooth="yes"/>
      <point x="301" y="1321"/>
      <point x="180" y="1239" type="qcurve"/>
      <point x="119" y="1364" type="line"/>
      <point x="259" y="1460"/>
      <point x="424" y="1460" type="qcurve" smooth="yes"/>
      <point x="584" y="1460"/>
      <point x="760" y="1302"/>
      <point x="760" y="1153" type="qcurve" smooth="yes"/>
      <point x="760" y="940" type="line" smooth="yes"/>
      <point x="760" y="909"/>
      <point x="782" y="882"/>
      <point x="811" y="881" type="qcurve"/>
      <point x="811" y="707" type="line"/>
      <point x="758" y="698"/>
      <point x="721" y="698" type="qcurve" smooth="yes"/>
      <point x="610" y="698"/>
      <point x="594" y="788" type="qcurve"/>
      <point x="590" y="827" type="line"/>
      <point x="541" y="763"/>
      <point x="405" y="694"/>
      <point x="328" y="694" type="qcurve" smooth="yes"/>
      <point x="224" y="694"/>
      <point x="82" y="828"/>
    </contour>
    <contour>
      <point x="530" y="897" type="qcurve" smooth="yes"/>
      <point x="559" y="923"/>
      <point x="559" y="950" type="qcurve" smooth="yes"/>
      <point x="559" y="1030" type="line"/>
      <point x="495" y="1055"/>
      <point x="424" y="1055" type="qcurve" smooth="yes"/>
      <point x="356" y="1055"/>
      <point x="270" y="995"/>
      <point x="270" y="946" type="qcurve" smooth="yes"/>
      <point x="270" y="902"/>
      <point x="337" y="842"/>
      <point x="387" y="842" type="qcurve" smooth="yes"/>
      <point x="428" y="842"/>
      <point x="507" y="872"/>
    </contour>
  </outline>
</glyph>
<glyph name="guillemotleft" format="2">
  <advance width="1329"/>
  <unicode hex="00AB"/>
  <outline>
    <contour>
      <point x="72" y="590" type="line"/>
      <point x="612" y="977" type="line"/>
      <point x="612" y="754" type="line"/>
      <point x="291" y="530" type="line"/>
      <point x="612" y="319" type="line"/>
      <point x="612" y="94" type="line"/>
      <point x="72" y="457" type="line"/>
    </contour>
    <contour>
      <point x="670" y="590" type="line"/>
      <point x="1208" y="977" type="line"/>
      <point x="1208" y="754" type="line"/>
      <point x="887" y="530" type="line"/>
      <point x="1208" y="319" type="line"/>
      <point x="1208" y="94" type="line"/>
      <point x="670" y="457" type="line"/>
    </contour>
  </outline>
</glyph>
<glyph name="logicalnot" format="2">
  <advance width="1253"/>
  <unicode hex="00AC"/>
  <outline>
    <contour>
      <point x="1120" y="819" type="line"/>
      <point x="1120" y="217" type="line"/>
      <point x="887" y="217" type="line"/>
      <point x="887" y="573" type="line"/>
      <point x="121" y="573" type="line"/>
      <point x="121" y="819" type="line"/>
    </contour>
  </outline>
</glyph>
<glyph name="sfthyphen" format="2">
  <advance width="1234"/>
  <unicode hex="00AD"/>
  <outline>
    <contour>
      <point x="119" y="438" type="line"/>
      <point x="119" y="686" type="line"/>
      <point x="1118" y="686" type="line"/>
      <point x="1118" y="438" type="line"/>
    </contour>
  </outline>
</glyph>
<glyph name="registered" format="2">
  <advance width="1722"/>
  <unicode hex="00AE"/>
  <outline>
    <contour>
      <point x="88" y="727" type="qcurve" smooth="yes"/>
      <point x="88" y="883"/>
      <point x="205" y="1157"/>
      <point x="408" y="1352"/>
      <point x="694" y="1464"/>
      <point x="1022" y="1464"/>
      <point x="1310" y="1352"/>
      <point x="1516" y="1157"/>
      <point x="1634" y="883"/>
      <point x="1634" y="727" type="qcurve" smooth="yes"/>
      <point x="1634" y="570"/>
      <point x="1516" y="295"/>
      <point x="1310" y="99"/>
      <point x="1022" y="-14"/>
      <point x="858" y="-14" type="qcurve" smooth="yes"/>
      <point x="639" y="-14"/>
      <point x="286" y="179"/>
      <point x="88" y="518"/>
    </contour>
    <contour>
      <point x="1513" y="723" type="qcurve" smooth="yes"/>
      <point x="1513" y="899"/>
      <point x="1344" y="1189"/>
      <point x="1043" y="1356"/>
      <point x="858" y="1356" type="qcurve" smooth="yes"/>
      <point x="719" y="1356"/>
      <point x="477" y="1258"/>
      <point x="308" y="1090"/>
      <point x="211" y="857"/>
      <point x="211" y="727" type="qcurve" smooth="yes"/>
      <point x="211" y="551"/>
      <point x="376" y="260"/>
      <point x="673" y="92"/>
      <point x="858" y="92" type="qcurve" smooth="yes"/>
      <point x="1041" y="92"/>
      <point x="1340" y="252"/>
      <point x="1513" y="542"/>
    </contour>
    <contour>
      <point x="526" y="1180" type="line"/>
      <point x="926" y="1180" type="line" smooth="yes"/>
      <point x="1046" y="1180"/>
      <point x="1212" y="993"/>
      <point x="1212" y="879" type="qcurve" smooth="yes"/>
      <point x="1212" y="793"/>
      <point x="1122" y="647"/>
      <point x="1049" y="618" type="qcurve"/>
      <point x="1260" y="279" type="line"/>
      <point x="1040" y="279" type="line"/>
      <point x="852" y="582" type="line"/>
      <point x="721" y="582" type="line"/>
      <point x="721" y="279" type="line"/>
      <point x="526" y="279" type="line"/>
    </contour>
    <contour>
      <point x="909" y="743" type="line" smooth="yes"/>
      <point x="960" y="743"/>
      <point x="1020" y="815"/>
      <point x="1020" y="943"/>
      <point x="954" y="1012"/>
      <point x="905" y="1012" type="qcurve" smooth="yes"/>
      <point x="721" y="1012" type="line"/>
      <point x="721" y="743" type="line"/>
    </contour>
  </outline>
</glyph>
<glyph name="macron" format="2">
  <advance width="858"/>
  <unicode hex="00AF"/>
  <anchor x="430" y="1466" name="Anchor-13"/>
  <outline>
    <contour>
      <point x="123" y="1296" type="line"/>
      <point x="123" y="1466" type="line"/>
      <point x="737" y="1466" type="line"/>
      <point x="737" y="1296" type="line"/>
    </contour>
  </outline>
</glyph>
<glyph name="degree" format="2">
  <advance width="583"/>
  <unicode hex="00B0"/>
  <outline>
    <contour>
      <point x="291" y="1483" type="qcurve" smooth="yes"/>
      <point x="383" y="1483"/>
      <point x="502" y="1367"/>
      <point x="502" y="1280" type="qcurve" smooth="yes"/>
      <point x="502" y="1183"/>
      <point x="384" y="1063"/>
      <point x="291" y="1063" type="qcurve" smooth="yes"/>
      <point x="200" y="1063"/>
      <point x="82" y="1185"/>
      <point x="82" y="1280" type="qcurve" smooth="yes"/>
      <point x="82" y="1367"/>
      <point x="201" y="1483"/>
    </contour>
    <contour>
      <point x="215" y="1242"/>
      <point x="236" y="1221" type="qcurve" smooth="yes"/>
      <point x="265" y="1196"/>
      <point x="291" y="1196" type="qcurve" smooth="yes"/>
      <point x="325" y="1196"/>
      <point x="346" y="1221" type="qcurve" smooth="yes"/>
      <point x="367" y="1242"/>
      <point x="367" y="1302"/>
      <point x="346" y="1327" type="qcurve" smooth="yes"/>
      <point x="326" y="1350"/>
      <point x="291" y="1350" type="qcurve" smooth="yes"/>
      <point x="262" y="1350"/>
      <point x="236" y="1327" type="qcurve"/>
      <point x="215" y="1302"/>
    </contour>
  </outline>
</glyph>
<glyph name="plusminus" format="2">
  <advance width="966"/>
  <unicode hex="00B1"/>
  <outline>
    <contour>
      <point x="846" y="881" type="line"/>
      <point x="846" y="662" type="line"/>
      <point x="606" y="662" type="line"/>
      <point x="606" y="401" type="line"/>
      <point x="360" y="401" type="line"/>
      <point x="360" y="662" type="line"/>
      <point x="121" y="662" type="line"/>
      <point x="121" y="881" type="line"/>
      <point x="360" y="881" type="line"/>
      <point x="360" y="1141" type="line"/>
      <point x="606" y="1141" type="line"/>
      <point x="606" y="881" type="line"/>
    </contour>
    <contour>
      <point x="121" y="57" type="line"/>
      <point x="121" y="279" type="line"/>
      <point x="846" y="279" type="line"/>
      <point x="846" y="57" type="line"/>
    </contour>
  </outline>
</glyph>
<glyph name="twosuperior" format="2">
  <advance width="851"/>
  <unicode hex="00B2"/>
  <outline>
    <contour>
      <point x="61" y="797" type="line"/>
      <point x="61" y="959"/>
      <point x="178" y="1131"/>
      <point x="328" y="1194" type="qcurve" smooth="yes"/>
      <point x="348" y="1203"/>
      <point x="432" y="1236"/>
      <point x="478" y="1256"/>
      <point x="544" y="1291"/>
      <point x="578" y="1323"/>
      <point x="604" y="1370"/>
      <point x="604" y="1397" type="qcurve" smooth="yes"/>
      <point x="604" y="1453"/>
      <point x="509" y="1520"/>
      <point x="426" y="1520" type="qcurve" smooth="yes"/>
      <point x="277" y="1520"/>
      <point x="172" y="1411" type="qcurve"/>
      <point x="68" y="1530" type="line"/>
      <point x="107" y="1582"/>
      <point x="311" y="1671"/>
      <point x="444" y="1671" type="qcurve" smooth="yes"/>
      <point x="608" y="1671"/>
      <point x="784" y="1529"/>
      <point x="784" y="1405" type="qcurve" smooth="yes"/>
      <point x="784" y="1204"/>
      <point x="514" y="1124" type="qcurve" smooth="yes"/>
      <point x="328" y="1065"/>
      <point x="328" y="956" type="qcurve"/>
      <point x="778" y="956" type="line"/>
      <point x="778" y="797" type="line"/>
    </contour>
  </outline>
</glyph>
<glyph name="threesuperior" format="2">
  <advance width="833"/>
  <unicode hex="00B3"/>
  <outline>
    <contour>
      <point x="57" y="946" type="qcurve"/>
      <point x="143" y="1057" type="line"/>
      <point x="172" y="1011"/>
      <point x="301" y="944"/>
      <point x="393" y="944" type="qcurve" smooth="yes"/>
      <point x="477" y="944"/>
      <point x="590" y="1003"/>
      <point x="590" y="1057" type="qcurve" smooth="yes"/>
      <point x="590" y="1169"/>
      <point x="322" y="1169" type="qcurve" smooth="yes"/>
      <point x="274" y="1169" type="line"/>
      <point x="274" y="1317" type="line"/>
      <point x="322" y="1317" type="line" smooth="yes"/>
      <point x="559" y="1317"/>
      <point x="559" y="1419" type="qcurve" smooth="yes"/>
      <point x="559" y="1471"/>
      <point x="460" y="1524"/>
      <point x="391" y="1524" type="qcurve" smooth="yes"/>
      <point x="241" y="1524"/>
      <point x="160" y="1425" type="qcurve"/>
      <point x="59" y="1548" type="line"/>
      <point x="103" y="1605"/>
      <point x="297" y="1671"/>
      <point x="401" y="1671" type="qcurve" smooth="yes"/>
      <point x="551" y="1671"/>
      <point x="743" y="1535"/>
      <point x="743" y="1432" type="qcurve" smooth="yes"/>
      <point x="743" y="1362"/>
      <point x="651" y="1268"/>
      <point x="567" y="1251" type="qcurve"/>
      <point x="656" y="1238"/>
      <point x="764" y="1113"/>
      <point x="764" y="1028" type="qcurve" smooth="yes"/>
      <point x="764" y="948"/>
      <point x="659" y="834"/>
      <point x="498" y="784"/>
      <point x="399" y="784" type="qcurve" smooth="yes"/>
      <point x="272" y="784"/>
      <point x="86" y="869"/>
    </contour>
  </outline>
</glyph>
<glyph name="acute" format="2">
  <advance width="522"/>
  <unicode hex="00B4"/>
  <anchor x="279" y="1495" name="Anchor-13"/>
  <outline>
    <contour>
      <point x="272" y="1198" type="line"/>
      <point x="96" y="1251" type="line"/>
      <point x="207" y="1495" type="line"/>
      <point x="463" y="1495" type="line"/>
    </contour>
  </outline>
</glyph>
<glyph name="mu" format="2">
  <advance width="1359"/>
  <unicode hex="00B5"/>
  <outline>
    <contour>
      <point x="158" y="1073" type="line"/>
      <point x="432" y="1073" type="line"/>
      <point x="432" y="461" type="line" smooth="yes"/>
      <point x="432" y="213"/>
      <point x="616" y="213" type="qcurve" smooth="yes"/>
      <point x="695" y="213"/>
      <point x="844" y="314"/>
      <point x="889" y="408" type="qcurve"/>
      <point x="889" y="1073" type="line"/>
      <point x="1163" y="1073" type="line"/>
      <point x="1163" y="315" type="line" smooth="yes"/>
      <point x="1163" y="272"/>
      <point x="1196" y="234"/>
      <point x="1237" y="233" type="qcurve"/>
      <point x="1237" y="0" type="line"/>
      <point x="1169" y="-12"/>
      <point x="1108" y="-12" type="qcurve" smooth="yes"/>
      <point x="1034" y="-12"/>
      <point x="940" y="62"/>
      <point x="934" y="123" type="qcurve" smooth="yes"/>
      <point x="930" y="201" type="line"/>
      <point x="891" y="120"/>
      <point x="698" y="-20"/>
      <point x="598" y="-20" type="qcurve" smooth="yes"/>
      <point x="526" y="-20"/>
      <point x="431" y="55"/>
      <point x="414" y="100" type="qcurve"/>
      <point x="432" y="-434" type="line"/>
      <point x="158" y="-434" type="line"/>
    </contour>
  </outline>
</glyph>
<glyph name="paragraph" format="2">
  <advance width="1345"/>
  <unicode hex="00B6"/>
  <outline>
    <contour>
      <point x="649" y="1454" type="qcurve" smooth="yes"/>
      <point x="1251" y="1454" type="line"/>
      <point x="1251" y="1249" type="line"/>
      <point x="1108" y="1249" type="line"/>
      <point x="1108" y="-164" type="line"/>
      <point x="877" y="-164" type="line"/>
      <point x="877" y="426" type="line"/>
      <point x="772" y="426" type="line"/>
      <point x="772" y="-164" type="line"/>
      <point x="539" y="-164" type="line"/>
      <point x="539" y="426" type="line"/>
      <point x="327" y="427"/>
      <point x="72" y="705"/>
      <point x="72" y="934" type="qcurve" smooth="yes"/>
      <point x="72" y="1182"/>
      <point x="374" y="1454"/>
    </contour>
    <contour>
      <point x="539" y="631" type="qcurve"/>
      <point x="539" y="1249" type="line"/>
      <point x="426" y="1243"/>
      <point x="301" y="1077"/>
      <point x="301" y="940" type="qcurve" smooth="yes"/>
      <point x="301" y="804"/>
      <point x="436" y="640"/>
    </contour>
    <contour>
      <point x="877" y="1249" type="line"/>
      <point x="772" y="1249" type="line"/>
      <point x="772" y="631" type="line"/>
      <point x="877" y="631" type="line"/>
    </contour>
  </outline>
</glyph>
<glyph name="cedilla" format="2">
  <advance width="667"/>
  <unicode hex="00B8"/>
  <outline>
    <contour>
      <point x="303" y="-412" type="qcurve" smooth="yes"/>
      <point x="184" y="-412"/>
      <point x="57" y="-350" type="qcurve"/>
      <point x="127" y="-205" type="line"/>
      <point x="195" y="-248"/>
      <point x="256" y="-248" type="qcurve" smooth="yes"/>
      <point x="309" y="-248"/>
      <point x="369" y="-200"/>
      <point x="369" y="-156" type="qcurve" smooth="yes"/>
      <point x="369" y="-76"/>
      <point x="254" y="0" type="qcurve"/>
      <point x="346" y="59" type="line"/>
      <point x="406" y="18"/>
      <point x="481" y="-51"/>
      <point x="535" y="-151"/>
      <point x="535" y="-209" type="qcurve" smooth="yes"/>
      <point x="535" y="-299"/>
      <point x="413" y="-412"/>
    </contour>
  </outline>
</glyph>
<glyph name="onesuperior" format="2">
  <advance width="610"/>
  <unicode hex="00B9"/>
  <outline>
    <contour>
      <point x="567" y="961" type="line"/>
      <point x="567" y="799" type="line"/>
      <point x="98" y="799" type="line"/>
      <point x="98" y="961" type="line"/>
      <point x="258" y="961" type="line"/>
      <point x="258" y="1495" type="line"/>
      <point x="233" y="1463"/>
      <point x="111" y="1391"/>
      <point x="66" y="1391" type="qcurve"/>
      <point x="66" y="1552" type="line"/>
      <point x="90" y="1552"/>
      <point x="147" y="1576"/>
      <point x="194" y="1609"/>
      <point x="234" y="1644"/>
      <point x="257" y="1669"/>
      <point x="258" y="1671" type="qcurve" smooth="yes"/>
      <point x="424" y="1671" type="line"/>
      <point x="424" y="961" type="line"/>
    </contour>
  </outline>
</glyph>
<glyph name="ordmasculine" format="2">
  <advance width="907"/>
  <unicode hex="00BA"/>
  <anchor x="0" y="0" name="Anchor-11"/>
  <anchor x="0" y="0" name="Anchor-10"/>
  <anchor x="575" y="1063" name="Anchor-9"/>
  <anchor x="0" y="0" name="Anchor-8"/>
  <anchor x="573" y="0" name="Anchor-7"/>
  <outline>
    <contour>
      <point x="74" y="1077" type="qcurve" smooth="yes"/>
      <point x="74" y="1238"/>
      <point x="282" y="1460"/>
      <point x="628" y="1460"/>
      <point x="836" y="1238"/>
      <point x="836" y="1077" type="qcurve" smooth="yes"/>
      <point x="836" y="974"/>
      <point x="748" y="802"/>
      <point x="571" y="694"/>
      <point x="339" y="694"/>
      <point x="162" y="802"/>
      <point x="74" y="974"/>
    </contour>
    <contour>
      <point x="455" y="866" type="qcurve" smooth="yes"/>
      <point x="530" y="866"/>
      <point x="631" y="985"/>
      <point x="631" y="1169"/>
      <point x="531" y="1286"/>
      <point x="379" y="1286"/>
      <point x="276" y="1168"/>
      <point x="276" y="1075" type="qcurve" smooth="yes"/>
      <point x="276" y="985"/>
      <point x="379" y="866"/>
    </contour>
  </outline>
</glyph>
<glyph name="guillemotright" format="2">
  <advance width="1329"/>
  <unicode hex="00BB"/>
  <outline>
    <contour>
      <point x="659" y="457" type="line"/>
      <point x="119" y="94" type="line"/>
      <point x="119" y="319" type="line"/>
      <point x="442" y="530" type="line"/>
      <point x="119" y="754" type="line"/>
      <point x="119" y="977" type="line"/>
      <point x="659" y="590" type="line"/>
    </contour>
    <contour>
      <point x="1255" y="457" type="line"/>
      <point x="715" y="94" type="line"/>
      <point x="715" y="319" type="line"/>
      <point x="1038" y="530" type="line"/>
      <point x="715" y="754" type="line"/>
      <point x="715" y="977" type="line"/>
      <point x="1255" y="590" type="line"/>
    </contour>
  </outline>
</glyph>
<glyph name="onequarter" format="2">
  <advance width="1808"/>
  <unicode hex="00BC"/>
  <outline>
    <contour>
      <point x="567" y="786" type="line"/>
      <point x="567" y="627" type="line"/>
      <point x="98" y="627" type="line"/>
      <point x="98" y="786" type="line"/>
      <point x="258" y="786" type="line"/>
      <point x="258" y="1321" type="line"/>
      <point x="233" y="1289"/>
      <point x="111" y="1217"/>
      <point x="66" y="1217" type="qcurve"/>
      <point x="66" y="1380" type="line"/>
      <point x="90" y="1380"/>
      <point x="147" y="1403"/>
      <point x="194" y="1436"/>
      <point x="234" y="1470"/>
      <point x="257" y="1495"/>
      <point x="258" y="1497" type="qcurve" smooth="yes"/>
      <point x="424" y="1497" type="line"/>
      <point x="424" y="786" type="line"/>
    </contour>
    <contour>
      <point x="197" y="96" type="line"/>
      <point x="774" y="770" type="line"/>
      <point x="1307" y="1470" type="line"/>
      <point x="1432" y="1360" type="line"/>
      <point x="870" y="696" type="line"/>
      <point x="322" y="-14" type="line"/>
    </contour>
    <contour>
      <point x="1456" y="0" type="line"/>
      <point x="1456" y="199" type="line"/>
      <point x="1012" y="199" type="line"/>
      <point x="1012" y="348" type="line"/>
      <point x="1516" y="864" type="line"/>
      <point x="1636" y="864" type="line"/>
      <point x="1636" y="340" type="line"/>
      <point x="1751" y="340" type="line"/>
      <point x="1751" y="199" type="line"/>
      <point x="1636" y="199" type="line"/>
      <point x="1636" y="0" type="line"/>
    </contour>
    <contour>
      <point x="1169" y="340" type="line"/>
      <point x="1462" y="340" type="line"/>
      <point x="1462" y="645" type="line"/>
    </contour>
  </outline>
</glyph>
<glyph name="onehalf" format="2">
  <advance width="1867"/>
  <unicode hex="00BD"/>
  <outline>
    <contour>
      <point x="567" y="786" type="line"/>
      <point x="567" y="627" type="line"/>
      <point x="98" y="627" type="line"/>
      <point x="98" y="786" type="line"/>
      <point x="258" y="786" type="line"/>
      <point x="258" y="1321" type="line"/>
      <point x="233" y="1289"/>
      <point x="111" y="1217"/>
      <point x="66" y="1217" type="qcurve"/>
      <point x="66" y="1380" type="line"/>
      <point x="90" y="1380"/>
      <point x="147" y="1403"/>
      <point x="194" y="1436"/>
      <point x="234" y="1470"/>
      <point x="257" y="1495"/>
      <point x="258" y="1497" type="qcurve" smooth="yes"/>
      <point x="424" y="1497" type="line"/>
      <point x="424" y="786" type="line"/>
    </contour>
    <contour>
      <point x="197" y="96" type="line"/>
      <point x="774" y="770" type="line"/>
      <point x="1307" y="1470" type="line"/>
      <point x="1432" y="1360" type="line"/>
      <point x="870" y="696" type="line"/>
      <point x="322" y="-14" type="line"/>
    </contour>
    <contour>
      <point x="1079" y="0" type="line"/>
      <point x="1079" y="161"/>
      <point x="1195" y="334"/>
      <point x="1343" y="397" type="qcurve" smooth="yes"/>
      <point x="1362" y="406"/>
      <point x="1467" y="448"/>
      <point x="1516" y="472"/>
      <point x="1583" y="516"/>
      <point x="1612" y="568"/>
      <point x="1612" y="600" type="qcurve" smooth="yes"/>
      <point x="1612" y="656"/>
      <point x="1519" y="723"/>
      <point x="1438" y="723" type="qcurve" smooth="yes"/>
      <point x="1290" y="723"/>
      <point x="1188" y="612" type="qcurve"/>
      <point x="1085" y="731" type="line"/>
      <point x="1126" y="783"/>
      <point x="1327" y="872"/>
      <point x="1456" y="872" type="qcurve" smooth="yes"/>
      <point x="1617" y="872"/>
      <point x="1788" y="730"/>
      <point x="1788" y="606" type="qcurve" smooth="yes"/>
      <point x="1788" y="554"/>
      <point x="1751" y="466"/>
      <point x="1699" y="410"/>
      <point x="1621" y="363"/>
      <point x="1561" y="339"/>
      <point x="1524" y="328" type="qcurve" smooth="yes"/>
      <point x="1341" y="269"/>
      <point x="1341" y="160" type="qcurve"/>
      <point x="1790" y="160" type="line"/>
      <point x="1790" y="0" type="line"/>
    </contour>
  </outline>
</glyph>
<glyph name="threequarters" format="2">
  <advance width="2031"/>
  <unicode hex="00BE"/>
  <outline>
    <contour>
      <point x="57" y="772" type="qcurve"/>
      <point x="143" y="885" type="line"/>
      <point x="171" y="838"/>
      <point x="301" y="770"/>
      <point x="393" y="770" type="qcurve" smooth="yes"/>
      <point x="477" y="770"/>
      <point x="590" y="829"/>
      <point x="590" y="883" type="qcurve" smooth="yes"/>
      <point x="590" y="997"/>
      <point x="322" y="997" type="qcurve" smooth="yes"/>
      <point x="274" y="997" type="line"/>
      <point x="274" y="1143" type="line"/>
      <point x="322" y="1143" type="line" smooth="yes"/>
      <point x="559" y="1143"/>
      <point x="559" y="1245" type="qcurve" smooth="yes"/>
      <point x="559" y="1297"/>
      <point x="459" y="1352"/>
      <point x="391" y="1352" type="qcurve" smooth="yes"/>
      <point x="243" y="1352"/>
      <point x="160" y="1251" type="qcurve"/>
      <point x="59" y="1376" type="line"/>
      <point x="103" y="1432"/>
      <point x="296" y="1497"/>
      <point x="401" y="1497" type="qcurve" smooth="yes"/>
      <point x="551" y="1497"/>
      <point x="743" y="1363"/>
      <point x="743" y="1260" type="qcurve" smooth="yes"/>
      <point x="743" y="1190"/>
      <point x="651" y="1094"/>
      <point x="567" y="1077" type="qcurve"/>
      <point x="657" y="1064"/>
      <point x="764" y="940"/>
      <point x="764" y="856" type="qcurve" smooth="yes"/>
      <point x="764" y="775"/>
      <point x="659" y="661"/>
      <point x="498" y="610"/>
      <point x="399" y="610" type="qcurve" smooth="yes"/>
      <point x="272" y="610"/>
      <point x="86" y="695"/>
    </contour>
    <contour>
      <point x="420" y="96" type="line"/>
      <point x="997" y="770" type="line"/>
      <point x="1530" y="1470" type="line"/>
      <point x="1655" y="1360" type="line"/>
      <point x="1094" y="696" type="line"/>
      <point x="545" y="-14" type="line"/>
    </contour>
    <contour>
      <point x="1679" y="0" type="line"/>
      <point x="1679" y="199" type="line"/>
      <point x="1235" y="199" type="line"/>
      <point x="1235" y="348" type="line"/>
      <point x="1739" y="864" type="line"/>
      <point x="1860" y="864" type="line"/>
      <point x="1860" y="340" type="line"/>
      <point x="1974" y="340" type="line"/>
      <point x="1974" y="199" type="line"/>
      <point x="1860" y="199" type="line"/>
      <point x="1860" y="0" type="line"/>
    </contour>
    <contour>
      <point x="1393" y="340" type="line"/>
      <point x="1686" y="340" type="line"/>
      <point x="1686" y="645" type="line"/>
    </contour>
  </outline>
</glyph>
<glyph name="questiondown" format="2">
  <advance width="980"/>
  <unicode hex="00BF"/>
  <outline>
    <contour>
      <point x="733" y="1036" type="line"/>
      <point x="733" y="754" type="line"/>
      <point x="506" y="754" type="line"/>
      <point x="506" y="1036" type="line"/>
    </contour>
    <contour>
      <point x="737" y="559" type="line"/>
      <point x="737" y="449"/>
      <point x="665" y="296"/>
      <point x="569" y="240" type="qcurve" smooth="yes"/>
      <point x="558" y="233"/>
      <point x="486" y="194"/>
      <point x="440" y="167"/>
      <point x="373" y="116"/>
      <point x="333" y="68"/>
      <point x="303" y="0"/>
      <point x="303" y="-37" type="qcurve" smooth="yes"/>
      <point x="303" y="-118"/>
      <point x="418" y="-213"/>
      <point x="498" y="-213" type="qcurve" smooth="yes"/>
      <point x="639" y="-213"/>
      <point x="739" y="-49" type="qcurve"/>
      <point x="918" y="-172" type="line"/>
      <point x="865" y="-296"/>
      <point x="631" y="-436"/>
      <point x="489" y="-436" type="qcurve" smooth="yes"/>
      <point x="408" y="-436"/>
      <point x="261" y="-389"/>
      <point x="137" y="-295"/>
      <point x="63" y="-136"/>
      <point x="63" y="-33" type="qcurve" smooth="yes"/>
      <point x="63" y="51"/>
      <point x="120" y="182"/>
      <point x="209" y="267"/>
      <point x="279" y="311" type="qcurve" smooth="yes"/>
      <point x="298" y="323"/>
      <point x="369" y="363"/>
      <point x="409" y="387"/>
      <point x="462" y="429"/>
      <point x="491" y="468"/>
      <point x="512" y="525"/>
      <point x="512" y="559" type="qcurve"/>
    </contour>
  </outline>
</glyph>
<glyph name="Aacute" format="2">
  <advance width="1376"/>
  <unicode hex="00C1"/>
  <anchor x="0" y="0" name="Anchor-11"/>
  <anchor x="0" y="0" name="Anchor-10"/>
  <anchor x="786" y="1874" name="Anchor-9"/>
  <anchor x="1368" y="0" name="Anchor-8"/>
  <anchor x="711" y="0" name="Anchor-7"/>
  <outline>
    <contour>
      <point x="780" y="1577" type="line"/>
      <point x="604" y="1630" type="line"/>
      <point x="715" y="1874" type="line"/>
      <point x="971" y="1874" type="line"/>
    </contour>
    <contour>
      <point x="547" y="1454" type="line"/>
      <point x="834" y="1454" type="line"/>
      <point x="1368" y="0" type="line"/>
      <point x="1077" y="0" type="line"/>
      <point x="942" y="362" type="line"/>
      <point x="434" y="362" type="line"/>
      <point x="301" y="0" type="line"/>
      <point x="10" y="0" type="line"/>
    </contour>
    <contour>
      <point x="891" y="561" type="line"/>
      <point x="690" y="1161" type="line"/>
      <point x="481" y="561" type="line"/>
    </contour>
  </outline>
</glyph>
<glyph name="Atilde" format="2">
  <advance width="1376"/>
  <unicode hex="00C3"/>
  <anchor x="0" y="0" name="Anchor-11"/>
  <anchor x="0" y="0" name="Anchor-10"/>
  <anchor x="690" y="1874" name="Anchor-9"/>
  <anchor x="1368" y="0" name="Anchor-8"/>
  <anchor x="711" y="0" name="Anchor-7"/>
  <outline>
    <contour>
      <point x="555" y="1704" type="qcurve" smooth="yes"/>
      <point x="529" y="1704"/>
      <point x="490" y="1684"/>
      <point x="471" y="1659"/>
      <point x="459" y="1627"/>
      <point x="457" y="1610"/>
      <point x="457" y="1606" type="qcurve"/>
      <point x="305" y="1606" type="line"/>
      <point x="305" y="1624"/>
      <point x="320" y="1682"/>
      <point x="356" y="1758"/>
      <point x="408" y="1823"/>
      <point x="494" y="1868"/>
      <point x="545" y="1868" type="qcurve" smooth="yes"/>
      <point x="587" y="1868"/>
      <point x="665" y="1838"/>
      <point x="715" y="1802"/>
      <point x="783" y="1772"/>
      <point x="815" y="1772" type="qcurve" smooth="yes"/>
      <point x="843" y="1772"/>
      <point x="885" y="1792"/>
      <point x="907" y="1819"/>
      <point x="921" y="1851"/>
      <point x="924" y="1869"/>
      <point x="924" y="1874" type="qcurve"/>
      <point x="1075" y="1874" type="line"/>
      <point x="1075" y="1860"/>
      <point x="1060" y="1804"/>
      <point x="1021" y="1727"/>
      <point x="967" y="1659"/>
      <point x="877" y="1612"/>
      <point x="823" y="1612" type="qcurve" smooth="yes"/>
      <point x="771" y="1612"/>
      <point x="675" y="1658"/>
      <point x="592" y="1704"/>
    </contour>
    <contour>
      <point x="547" y="1454" type="line"/>
      <point x="834" y="1454" type="line"/>
      <point x="1368" y="0" type="line"/>
      <point x="1077" y="0" type="line"/>
      <point x="942" y="362" type="line"/>
      <point x="434" y="362" type="line"/>
      <point x="301" y="0" type="line"/>
      <point x="10" y="0" type="line"/>
    </contour>
    <contour>
      <point x="891" y="561" type="line"/>
      <point x="690" y="1161" type="line"/>
      <point x="481" y="561" type="line"/>
    </contour>
  </outline>
</glyph>
<glyph name="Aring" format="2">
  <advance width="1376"/>
  <unicode hex="00C5"/>
  <anchor x="0" y="0" name="Anchor-11"/>
  <anchor x="0" y="0" name="Anchor-10"/>
  <anchor x="690" y="1901" name="Anchor-9"/>
  <anchor x="1368" y="0" name="Anchor-8"/>
  <anchor x="711" y="0" name="Anchor-7"/>
  <outline>
    <contour>
      <point x="690" y="1907" type="qcurve" smooth="yes"/>
      <point x="787" y="1907"/>
      <point x="905" y="1805"/>
      <point x="905" y="1720" type="qcurve" smooth="yes"/>
      <point x="905" y="1636"/>
      <point x="787" y="1536"/>
      <point x="690" y="1536" type="qcurve" smooth="yes"/>
      <point x="594" y="1536"/>
      <point x="475" y="1636"/>
      <point x="475" y="1804"/>
      <point x="594" y="1907"/>
    </contour>
    <contour>
      <point x="600" y="1722" type="qcurve" smooth="yes"/>
      <point x="600" y="1685"/>
      <point x="652" y="1632"/>
      <point x="690" y="1632" type="qcurve" smooth="yes"/>
      <point x="727" y="1632"/>
      <point x="780" y="1684"/>
      <point x="780" y="1760"/>
      <point x="728" y="1810"/>
      <point x="652" y="1810"/>
      <point x="600" y="1760"/>
    </contour>
    <contour>
      <point x="547" y="1454" type="line"/>
      <point x="834" y="1454" type="line"/>
      <point x="1368" y="0" type="line"/>
      <point x="1077" y="0" type="line"/>
      <point x="942" y="362" type="line"/>
      <point x="434" y="362" type="line"/>
      <point x="301" y="0" type="line"/>
      <point x="10" y="0" type="line"/>
    </contour>
    <contour>
      <point x="891" y="561" type="line"/>
      <point x="690" y="1161" type="line"/>
      <point x="481" y="561" type="line"/>
    </contour>
  </outline>
</glyph>
<glyph name="Ccedilla" format="2">
  <advance width="1404"/>
  <unicode hex="00C7"/>
  <anchor x="0" y="0" name="Anchor-11"/>
  <anchor x="0" y="0" name="Anchor-10"/>
  <anchor x="778" y="1452" name="Anchor-9"/>
  <anchor x="0" y="0" name="Anchor-8"/>
  <anchor x="770" y="0" name="Anchor-7"/>
  <outline>
    <contour>
      <point x="1366" y="326" type="line"/>
      <point x="1310" y="193"/>
      <point x="1034" y="19"/>
      <point x="870" y="-4" type="qcurve"/>
      <point x="975" y="-96"/>
      <point x="975" y="-209" type="qcurve" smooth="yes"/>
      <point x="975" y="-299"/>
      <point x="853" y="-412"/>
      <point x="743" y="-412" type="qcurve" smooth="yes"/>
      <point x="625" y="-412"/>
      <point x="498" y="-350" type="qcurve"/>
      <point x="567" y="-205" type="line"/>
      <point x="635" y="-248"/>
      <point x="696" y="-248" type="qcurve" smooth="yes"/>
      <point x="749" y="-248"/>
      <point x="809" y="-200"/>
      <point x="809" y="-156" type="qcurve" smooth="yes"/>
      <point x="809" y="-78"/>
      <point x="709" y="-10" type="qcurve"/>
      <point x="570" y="3"/>
      <point x="325" y="142"/>
      <point x="159" y="349"/>
      <point x="63" y="606"/>
      <point x="63" y="737" type="qcurve" smooth="yes"/>
      <point x="63" y="871"/>
      <point x="162" y="1129"/>
      <point x="340" y="1335"/>
      <point x="616" y="1462"/>
      <point x="780" y="1462" type="qcurve" smooth="yes"/>
      <point x="975" y="1462"/>
      <point x="1274" y="1290"/>
      <point x="1346" y="1145" type="qcurve"/>
      <point x="1128" y="995" type="line"/>
      <point x="1093" y="1073"/>
      <point x="969" y="1174"/>
      <point x="842" y="1212"/>
      <point x="772" y="1212" type="qcurve" smooth="yes"/>
      <point x="670" y="1212"/>
      <point x="505" y="1127"/>
      <point x="404" y="987"/>
      <point x="350" y="818"/>
      <point x="350" y="729" type="qcurve" smooth="yes"/>
      <point x="350" y="600"/>
      <point x="456" y="376"/>
      <point x="654" y="238"/>
      <point x="776" y="238" type="qcurve" smooth="yes"/>
      <point x="846" y="238"/>
      <point x="980" y="281"/>
      <point x="1103" y="384"/>
      <point x="1135" y="459" type="qcurve"/>
    </contour>
  </outline>
</glyph>
<glyph name="Egrave" format="2">
  <advance width="1230"/>
  <unicode hex="00C8"/>
  <anchor x="0" y="0" name="Anchor-11"/>
  <anchor x="0" y="0" name="Anchor-10"/>
  <anchor x="596" y="1876" name="Anchor-9"/>
  <anchor x="1161" y="0" name="Anchor-8"/>
  <anchor x="668" y="0" name="Anchor-7"/>
  <outline>
    <contour>
      <point x="414" y="1876" type="line"/>
      <point x="668" y="1876" type="line"/>
      <point x="780" y="1632" type="line"/>
      <point x="604" y="1579" type="line"/>
    </contour>
    <contour>
      <point x="1161" y="248" type="line"/>
      <point x="1161" y="0" type="line"/>
      <point x="152" y="0" type="line"/>
      <point x="152" y="1454" type="line"/>
      <point x="1143" y="1454" type="line"/>
      <point x="1143" y="1206" type="line"/>
      <point x="434" y="1206" type="line"/>
      <point x="434" y="856" type="line"/>
      <point x="1047" y="856" type="line"/>
      <point x="1047" y="627" type="line"/>
      <point x="434" y="627" type="line"/>
      <point x="434" y="248" type="line"/>
    </contour>
  </outline>
</glyph>
<glyph name="Edieresis" format="2">
  <advance width="1230"/>
  <unicode hex="00CB"/>
  <anchor x="0" y="0" name="Anchor-11"/>
  <anchor x="0" y="0" name="Anchor-10"/>
  <anchor x="668" y="1855" name="Anchor-9"/>
  <anchor x="1161" y="0" name="Anchor-8"/>
  <anchor x="668" y="0" name="Anchor-7"/>
  <outline>
    <contour>
      <point x="356" y="1618" type="line"/>
      <point x="356" y="1862" type="line"/>
      <point x="584" y="1862" type="line"/>
      <point x="584" y="1618" type="line"/>
    </contour>
    <contour>
      <point x="750" y="1618" type="line"/>
      <point x="750" y="1862" type="line"/>
      <point x="977" y="1862" type="line"/>
      <point x="977" y="1618" type="line"/>
    </contour>
    <contour>
      <point x="1161" y="248" type="line"/>
      <point x="1161" y="0" type="line"/>
      <point x="152" y="0" type="line"/>
      <point x="152" y="1454" type="line"/>
      <point x="1143" y="1454" type="line"/>
      <point x="1143" y="1206" type="line"/>
      <point x="434" y="1206" type="line"/>
      <point x="434" y="856" type="line"/>
      <point x="1047" y="856" type="line"/>
      <point x="1047" y="627" type="line"/>
      <point x="434" y="627" type="line"/>
      <point x="434" y="248" type="line"/>
    </contour>
  </outline>
</glyph>
<glyph name="Igrave" format="2">
  <advance width="585"/>
  <unicode hex="00CC"/>
  <anchor x="0" y="0" name="Anchor-11"/>
  <anchor x="0" y="0" name="Anchor-10"/>
  <anchor x="221" y="1876" name="Anchor-9"/>
  <anchor x="434" y="0" name="Anchor-8"/>
  <anchor x="293" y="0" name="Anchor-7"/>
  <outline>
    <contour>
      <point x="39" y="1876" type="line"/>
      <point x="293" y="1876" type="line"/>
      <point x="406" y="1632" type="line"/>
      <point x="229" y="1579" type="line"/>
    </contour>
    <contour>
      <point x="152" y="0" type="line"/>
      <point x="152" y="1454" type="line"/>
      <point x="434" y="1454" type="line"/>
      <point x="434" y="0" type="line"/>
    </contour>
  </outline>
</glyph>
<glyph name="Iacute" format="2">
  <advance width="585"/>
  <unicode hex="00CD"/>
  <anchor x="0" y="0" name="Anchor-11"/>
  <anchor x="0" y="0" name="Anchor-10"/>
  <anchor x="389" y="1874" name="Anchor-9"/>
  <anchor x="434" y="0" name="Anchor-8"/>
  <anchor x="293" y="0" name="Anchor-7"/>
  <outline>
    <contour>
      <point x="383" y="1577" type="line"/>
      <point x="207" y="1630" type="line"/>
      <point x="317" y="1874" type="line"/>
      <point x="573" y="1874" type="line"/>
    </contour>
    <contour>
      <point x="152" y="0" type="line"/>
      <point x="152" y="1454" type="line"/>
      <point x="434" y="1454" type="line"/>
      <point x="434" y="0" type="line"/>
    </contour>
  </outline>
</glyph>
<glyph name="Icircumflex" format="2">
  <advance width="585"/>
  <unicode hex="00CE"/>
  <anchor x="0" y="0" name="Anchor-11"/>
  <anchor x="0" y="0" name="Anchor-10"/>
  <anchor x="293" y="1874" name="Anchor-9"/>
  <anchor x="434" y="0" name="Anchor-8"/>
  <anchor x="293" y="0" name="Anchor-7"/>
  <outline>
    <contour>
      <point x="-25" y="1667" type="line"/>
      <point x="193" y="1874" type="line"/>
      <point x="391" y="1874" type="line"/>
      <point x="608" y="1667" type="line"/>
      <point x="467" y="1602" type="line"/>
      <point x="293" y="1731" type="line"/>
      <point x="119" y="1602" type="line"/>
    </contour>
    <contour>
      <point x="152" y="0" type="line"/>
      <point x="152" y="1454" type="line"/>
      <point x="434" y="1454" type="line"/>
      <point x="434" y="0" type="line"/>
    </contour>
  </outline>
</glyph>
<glyph name="Idieresis" format="2">
  <advance width="585"/>
  <unicode hex="00CF"/>
  <anchor x="0" y="0" name="Anchor-11"/>
  <anchor x="0" y="0" name="Anchor-10"/>
  <anchor x="293" y="1855" name="Anchor-9"/>
  <anchor x="434" y="0" name="Anchor-8"/>
  <anchor x="293" y="0" name="Anchor-7"/>
  <outline>
    <contour>
      <point x="-18" y="1618" type="line"/>
      <point x="-18" y="1862" type="line"/>
      <point x="209" y="1862" type="line"/>
      <point x="209" y="1618" type="line"/>
    </contour>
    <contour>
      <point x="375" y="1618" type="line"/>
      <point x="375" y="1862" type="line"/>
      <point x="602" y="1862" type="line"/>
      <point x="602" y="1618" type="line"/>
    </contour>
    <contour>
      <point x="152" y="0" type="line"/>
      <point x="152" y="1454" type="line"/>
      <point x="434" y="1454" type="line"/>
      <point x="434" y="0" type="line"/>
    </contour>
  </outline>
</glyph>
<glyph name="Ntilde" format="2">
  <advance width="1562"/>
  <unicode hex="00D1"/>
  <anchor x="0" y="0" name="Anchor-11"/>
  <anchor x="0" y="0" name="Anchor-10"/>
  <anchor x="780" y="1872" name="Anchor-9"/>
  <anchor x="0" y="0" name="Anchor-8"/>
  <anchor x="780" y="0" name="Anchor-7"/>
  <outline>
    <contour>
      <point x="645" y="1702" type="qcurve" smooth="yes"/>
      <point x="619" y="1702"/>
      <point x="580" y="1682"/>
      <point x="561" y="1657"/>
      <point x="549" y="1625"/>
      <point x="547" y="1608"/>
      <point x="547" y="1604" type="qcurve"/>
      <point x="395" y="1604" type="line"/>
      <point x="395" y="1622"/>
      <point x="410" y="1680"/>
      <point x="446" y="1756"/>
      <point x="498" y="1821"/>
      <point x="584" y="1866"/>
      <point x="635" y="1866" type="qcurve" smooth="yes"/>
      <point x="677" y="1866"/>
      <point x="755" y="1836"/>
      <point x="805" y="1799"/>
      <point x="873" y="1769"/>
      <point x="905" y="1769" type="qcurve" smooth="yes"/>
      <point x="933" y="1769"/>
      <point x="975" y="1789"/>
      <point x="997" y="1816"/>
      <point x="1011" y="1849"/>
      <point x="1014" y="1867"/>
      <point x="1014" y="1872" type="qcurve"/>
      <point x="1165" y="1872" type="line"/>
      <point x="1165" y="1858"/>
      <point x="1150" y="1802"/>
      <point x="1111" y="1725"/>
      <point x="1057" y="1657"/>
      <point x="967" y="1610"/>
      <point x="913" y="1610" type="qcurve" smooth="yes"/>
      <point x="861" y="1610"/>
      <point x="765" y="1656"/>
      <point x="682" y="1702"/>
    </contour>
    <contour>
      <point x="434" y="934" type="line"/>
      <point x="434" y="0" type="line"/>
      <point x="152" y="0" type="line"/>
      <point x="152" y="1454" type="line"/>
      <point x="377" y="1454" type="line"/>
      <point x="1128" y="496" type="line"/>
      <point x="1128" y="1452" type="line"/>
      <point x="1411" y="1452" type="line"/>
      <point x="1411" y="0" type="line"/>
      <point x="1176" y="0" type="line"/>
    </contour>
  </outline>
</glyph>
<glyph name="multiply" format="2">
  <advance width="976"/>
  <unicode hex="00D7"/>
  <outline>
    <contour>
      <point x="870" y="352" type="line"/>
      <point x="698" y="182" type="line"/>
      <point x="487" y="393" type="line"/>
      <point x="276" y="182" type="line"/>
      <point x="106" y="354" type="line"/>
      <point x="315" y="563" type="line"/>
      <point x="115" y="766" type="line"/>
      <point x="287" y="936" type="line"/>
      <point x="487" y="735" type="line"/>
      <point x="690" y="938" type="line"/>
      <point x="860" y="766" type="line"/>
      <point x="659" y="563" type="line"/>
    </contour>
  </outline>
</glyph>
<glyph name="Oslash" format="2">
  <advance width="1546"/>
  <unicode hex="00D8"/>
  <anchor x="1071" y="1313" name="Anchor-11"/>
  <anchor x="774" y="727" name="Anchor-10"/>
  <anchor x="778" y="1452" name="Anchor-9"/>
  <anchor x="944" y="14" name="Anchor-8"/>
  <anchor x="772" y="0" name="Anchor-7"/>
  <outline>
    <contour>
      <point x="1282" y="1237" type="line"/>
      <point x="1377" y="1133"/>
      <point x="1483" y="862"/>
      <point x="1483" y="723" type="qcurve" smooth="yes"/>
      <point x="1483" y="580"/>
      <point x="1375" y="313"/>
      <point x="1190" y="111"/>
      <point x="923" y="-10"/>
      <point x="772" y="-10" type="qcurve" smooth="yes"/>
      <point x="604" y="-10"/>
      <point x="461" y="63" type="qcurve"/>
      <point x="418" y="0" type="line"/>
      <point x="115" y="0" type="line"/>
      <point x="264" y="213" type="line"/>
      <point x="168" y="318"/>
      <point x="63" y="586"/>
      <point x="63" y="727" type="qcurve" smooth="yes"/>
      <point x="63" y="871"/>
      <point x="172" y="1140"/>
      <point x="359" y="1342"/>
      <point x="627" y="1464"/>
      <point x="778" y="1464" type="qcurve" smooth="yes"/>
      <point x="942" y="1464"/>
      <point x="1085" y="1391" type="qcurve"/>
      <point x="1128" y="1454" type="line"/>
      <point x="1434" y="1454" type="line"/>
    </contour>
    <contour>
      <point x="350" y="727" type="qcurve" smooth="yes"/>
      <point x="350" y="568"/>
      <point x="424" y="444" type="qcurve"/>
      <point x="936" y="1180" type="line"/>
      <point x="861" y="1212"/>
      <point x="774" y="1212" type="qcurve" smooth="yes"/>
      <point x="675" y="1212"/>
      <point x="511" y="1128"/>
      <point x="407" y="990"/>
      <point x="350" y="818"/>
    </contour>
    <contour>
      <point x="774" y="240" type="qcurve" smooth="yes"/>
      <point x="873" y="240"/>
      <point x="1037" y="324"/>
      <point x="1141" y="463"/>
      <point x="1198" y="636"/>
      <point x="1198" y="727" type="qcurve" smooth="yes"/>
      <point x="1198" y="883"/>
      <point x="1122" y="1010" type="qcurve"/>
      <point x="608" y="274" type="line"/>
      <point x="680" y="240"/>
    </contour>
  </outline>
</glyph>
<glyph name="Ugrave" format="2">
  <advance width="1536"/>
  <unicode hex="00D9"/>
  <anchor x="1409" y="1315" name="Anchor-11"/>
  <anchor x="0" y="0" name="Anchor-10"/>
  <anchor x="696" y="1876" name="Anchor-9"/>
  <anchor x="928" y="6" name="Anchor-8"/>
  <anchor x="768" y="0" name="Anchor-7"/>
  <outline>
    <contour>
      <point x="514" y="1876" type="line"/>
      <point x="768" y="1876" type="line"/>
      <point x="881" y="1632" type="line"/>
      <point x="705" y="1579" type="line"/>
    </contour>
    <contour>
      <point x="768" y="-10" type="qcurve" smooth="yes"/>
      <point x="633" y="-10"/>
      <point x="415" y="69"/>
      <point x="270" y="203"/>
      <point x="173" y="389"/>
      <point x="131" y="596"/>
      <point x="131" y="713" type="qcurve" smooth="yes"/>
      <point x="131" y="1454" type="line"/>
      <point x="414" y="1454" type="line"/>
      <point x="414" y="713" type="line" smooth="yes"/>
      <point x="414" y="617"/>
      <point x="451" y="454"/>
      <point x="530" y="318"/>
      <point x="671" y="240"/>
      <point x="766" y="240" type="qcurve" smooth="yes"/>
      <point x="863" y="240"/>
      <point x="1006" y="319"/>
      <point x="1085" y="457"/>
      <point x="1122" y="618"/>
      <point x="1122" y="713" type="qcurve" smooth="yes"/>
      <point x="1122" y="1454" type="line"/>
      <point x="1403" y="1454" type="line"/>
      <point x="1403" y="713" type="line" smooth="yes"/>
      <point x="1403" y="560"/>
      <point x="1329" y="304"/>
      <point x="1180" y="103"/>
      <point x="931" y="-10"/>
    </contour>
  </outline>
</glyph>
<glyph name="Yacute" format="2">
  <advance width="1351"/>
  <unicode hex="00DD"/>
  <anchor x="0" y="0" name="Anchor-11"/>
  <anchor x="0" y="0" name="Anchor-10"/>
  <anchor x="770" y="1874" name="Anchor-9"/>
  <anchor x="0" y="0" name="Anchor-8"/>
  <anchor x="676" y="0" name="Anchor-7"/>
  <outline>
    <contour>
      <point x="764" y="1577" type="line"/>
      <point x="588" y="1630" type="line"/>
      <point x="698" y="1874" type="line"/>
      <point x="954" y="1874" type="line"/>
    </contour>
    <contour>
      <point x="315" y="1454" type="line"/>
      <point x="674" y="770" type="line"/>
      <point x="1038" y="1454" type="line"/>
      <point x="1343" y="1454" type="line"/>
      <point x="815" y="508" type="line"/>
      <point x="815" y="0" type="line"/>
      <point x="535" y="0" type="line"/>
      <point x="535" y="512" type="line"/>
      <point x="8" y="1454" type="line"/>
    </contour>
  </outline>
</glyph>
<glyph name="Thorn" format="2">
  <advance width="1236"/>
  <unicode hex="00DE"/>
  <outline>
    <contour>
      <point x="1196" y="709" type="qcurve" smooth="yes"/>
      <point x="1196" y="583"/>
      <point x="1084" y="363"/>
      <point x="875" y="225"/>
      <point x="745" y="225" type="qcurve" smooth="yes"/>
      <point x="434" y="225" type="line"/>
      <point x="434" y="0" type="line"/>
      <point x="152" y="0" type="line"/>
      <point x="152" y="1454" type="line"/>
      <point x="434" y="1454" type="line"/>
      <point x="434" y="1192" type="line"/>
      <point x="733" y="1192" type="line" smooth="yes"/>
      <point x="830" y="1192"/>
      <point x="1005" y="1108"/>
      <point x="1126" y="973"/>
      <point x="1196" y="799"/>
    </contour>
    <contour>
      <point x="915" y="709" type="qcurve" smooth="yes"/>
      <point x="915" y="808"/>
      <point x="797" y="944"/>
      <point x="719" y="944" type="qcurve" smooth="yes"/>
      <point x="434" y="944" type="line"/>
      <point x="434" y="473" type="line"/>
      <point x="731" y="473" type="line" smooth="yes"/>
      <point x="810" y="473"/>
      <point x="915" y="611"/>
    </contour>
  </outline>
</glyph>
<glyph name="germandbls" format="2">
  <advance width="1142"/>
  <unicode hex="00DF"/>
  <outline>
    <contour>
      <point x="506" y="240" type="line"/>
      <point x="639" y="242"/>
      <point x="799" y="352"/>
      <point x="799" y="461" type="qcurve" smooth="yes"/>
      <point x="799" y="562"/>
      <point x="661" y="682"/>
      <point x="565" y="682" type="qcurve" smooth="yes"/>
      <point x="522" y="682" type="line"/>
      <point x="522" y="928" type="line"/>
      <point x="561" y="928" type="line" smooth="yes"/>
      <point x="634" y="928"/>
      <point x="719" y="1011"/>
      <point x="719" y="1079" type="qcurve" smooth="yes"/>
      <point x="719" y="1133"/>
      <point x="663" y="1204"/>
      <point x="594" y="1229"/>
      <point x="557" y="1229" type="qcurve" smooth="yes"/>
      <point x="468" y="1229"/>
      <point x="385" y="1104"/>
      <point x="385" y="1022" type="qcurve" smooth="yes"/>
      <point x="385" y="0" type="line"/>
      <point x="125" y="0" type="line"/>
      <point x="125" y="1069" type="line" smooth="yes"/>
      <point x="125" y="1240"/>
      <point x="384" y="1462"/>
      <point x="580" y="1462" type="qcurve" smooth="yes"/>
      <point x="754" y="1462"/>
      <point x="979" y="1278"/>
      <point x="979" y="1126" type="qcurve" smooth="yes"/>
      <point x="979" y="1022"/>
      <point x="875" y="850"/>
      <point x="801" y="823" type="qcurve"/>
      <point x="933" y="786"/>
      <point x="1085" y="577"/>
      <point x="1085" y="430" type="qcurve" smooth="yes"/>
      <point x="1085" y="339"/>
      <point x="1023" y="191"/>
      <point x="916" y="91"/>
      <point x="767" y="22"/>
      <point x="600" y="-10"/>
      <point x="506" y="-12" type="qcurve"/>
    </contour>
  </outline>
</glyph>
<glyph name="atilde" format="2">
  <advance width="1175"/>
  <unicode hex="00E3"/>
  <anchor x="0" y="0" name="Anchor-11"/>
  <anchor x="0" y="0" name="Anchor-10"/>
  <anchor x="557" y="1495" name="Anchor-9"/>
  <anchor x="1110" y="0" name="Anchor-8"/>
  <anchor x="612" y="0" name="Anchor-7"/>
  <outline>
    <contour>
      <point x="422" y="1325" type="qcurve" smooth="yes"/>
      <point x="396" y="1325"/>
      <point x="357" y="1305"/>
      <point x="338" y="1280"/>
      <point x="326" y="1248"/>
      <point x="324" y="1231"/>
      <point x="324" y="1227" type="qcurve"/>
      <point x="172" y="1227" type="line"/>
      <point x="172" y="1245"/>
      <point x="187" y="1303"/>
      <point x="223" y="1379"/>
      <point x="275" y="1444"/>
      <point x="361" y="1489"/>
      <point x="412" y="1489" type="qcurve" smooth="yes"/>
      <point x="454" y="1489"/>
      <point x="532" y="1459"/>
      <point x="582" y="1423"/>
      <point x="650" y="1393"/>
      <point x="682" y="1393" type="qcurve" smooth="yes"/>
      <point x="710" y="1393"/>
      <point x="752" y="1413"/>
      <point x="774" y="1440"/>
      <point x="788" y="1472"/>
      <point x="791" y="1490"/>
      <point x="791" y="1495" type="qcurve"/>
      <point x="942" y="1495" type="line"/>
      <point x="942" y="1481"/>
      <point x="927" y="1425"/>
      <point x="888" y="1348"/>
      <point x="834" y="1280"/>
      <point x="744" y="1233"/>
      <point x="690" y="1233" type="qcurve" smooth="yes"/>
      <point x="638" y="1233"/>
      <point x="542" y="1279"/>
      <point x="459" y="1325"/>
    </contour>
    <contour>
      <point x="51" y="317" type="qcurve" smooth="yes"/>
      <point x="51" y="473"/>
      <point x="307" y="666"/>
      <point x="512" y="666" type="qcurve" smooth="yes"/>
      <point x="666" y="666"/>
      <point x="770" y="623" type="qcurve"/>
      <point x="770" y="680" type="line" smooth="yes"/>
      <point x="770" y="783"/>
      <point x="649" y="893"/>
      <point x="530" y="893" type="qcurve" smooth="yes"/>
      <point x="444" y="893"/>
      <point x="288" y="834"/>
      <point x="195" y="772" type="qcurve"/>
      <point x="106" y="952" type="line"/>
      <point x="321" y="1092"/>
      <point x="559" y="1092" type="qcurve" smooth="yes"/>
      <point x="789" y="1092"/>
      <point x="1044" y="862"/>
      <point x="1044" y="649" type="qcurve" smooth="yes"/>
      <point x="1044" y="307" type="line" smooth="yes"/>
      <point x="1044" y="263"/>
      <point x="1074" y="226"/>
      <point x="1110" y="223" type="qcurve"/>
      <point x="1110" y="0" type="line"/>
      <point x="1041" y="-14"/>
      <point x="993" y="-14" type="qcurve" smooth="yes"/>
      <point x="914" y="-14"/>
      <point x="827" y="55"/>
      <point x="817" y="113" type="qcurve" smooth="yes"/>
      <point x="811" y="168" type="line"/>
      <point x="742" y="79"/>
      <point x="533" y="-20"/>
      <point x="424" y="-20" type="qcurve" smooth="yes"/>
      <point x="263" y="-20"/>
      <point x="51" y="172"/>
    </contour>
    <contour>
      <point x="719" y="262" type="qcurve" smooth="yes"/>
      <point x="770" y="313"/>
      <point x="770" y="356" type="qcurve" smooth="yes"/>
      <point x="770" y="465" type="line"/>
      <point x="665" y="508"/>
      <point x="555" y="508" type="qcurve" smooth="yes"/>
      <point x="447" y="508"/>
      <point x="311" y="415"/>
      <point x="311" y="340" type="qcurve" smooth="yes"/>
      <point x="311" y="275"/>
      <point x="415" y="180"/>
      <point x="502" y="180" type="qcurve" smooth="yes"/>
      <point x="563" y="180"/>
      <point x="680" y="225"/>
    </contour>
  </outline>
</glyph>
<glyph name="edieresis" format="2">
  <advance width="1226"/>
  <unicode hex="00EB"/>
  <anchor x="0" y="0" name="Anchor-11"/>
  <anchor x="0" y="0" name="Anchor-10"/>
  <anchor x="621" y="1477" name="Anchor-9"/>
  <anchor x="784" y="0" name="Anchor-8"/>
  <anchor x="623" y="0" name="Anchor-7"/>
  <outline>
    <contour>
      <point x="309" y="1239" type="line"/>
      <point x="309" y="1483" type="line"/>
      <point x="537" y="1483" type="line"/>
      <point x="537" y="1239" type="line"/>
    </contour>
    <contour>
      <point x="702" y="1239" type="line"/>
      <point x="702" y="1483" type="line"/>
      <point x="930" y="1483" type="line"/>
      <point x="930" y="1239" type="line"/>
    </contour>
    <contour>
      <point x="623" y="-20" type="qcurve" smooth="yes"/>
      <point x="455" y="-20"/>
      <point x="193" y="132"/>
      <point x="57" y="381"/>
      <point x="57" y="530" type="qcurve" smooth="yes"/>
      <point x="57" y="683"/>
      <point x="193" y="938"/>
      <point x="455" y="1092"/>
      <point x="625" y="1092" type="qcurve" smooth="yes"/>
      <point x="753" y="1092"/>
      <point x="966" y="1002"/>
      <point x="1107" y="849"/>
      <point x="1184" y="651"/>
      <point x="1184" y="541" type="qcurve" smooth="yes"/>
      <point x="1184" y="484"/>
      <point x="1178" y="449" type="qcurve"/>
      <point x="348" y="449" type="line"/>
      <point x="358" y="327"/>
      <point x="522" y="180"/>
      <point x="633" y="180" type="qcurve" smooth="yes"/>
      <point x="716" y="180"/>
      <point x="861" y="261"/>
      <point x="887" y="326" type="qcurve"/>
      <point x="1122" y="260" type="line"/>
      <point x="1062" y="134"/>
      <point x="797" y="-20"/>
    </contour>
    <contour>
      <point x="342" y="623" type="qcurve"/>
      <point x="903" y="623" type="line"/>
      <point x="891" y="744"/>
      <point x="734" y="893"/>
      <point x="621" y="893" type="qcurve" smooth="yes"/>
      <point x="510" y="893"/>
      <point x="352" y="743"/>
    </contour>
  </outline>
</glyph>
<glyph name="igrave" format="2">
  <advance width="522"/>
  <unicode hex="00EC"/>
  <anchor x="0" y="0" name="Anchor-11"/>
  <anchor x="0" y="0" name="Anchor-10"/>
  <anchor x="190" y="1497" name="Anchor-9"/>
  <anchor x="0" y="0" name="Anchor-8"/>
  <anchor x="0" y="0" name="Anchor-7"/>
  <outline>
    <contour>
      <point x="8" y="1497" type="line"/>
      <point x="262" y="1497" type="line"/>
      <point x="375" y="1253" type="line"/>
      <point x="199" y="1200" type="line"/>
    </contour>
    <contour>
      <point x="125" y="0" type="line"/>
      <point x="125" y="1073" type="line"/>
      <point x="399" y="1073" type="line"/>
      <point x="399" y="0" type="line"/>
    </contour>
  </outline>
</glyph>
<glyph name="iacute" format="2">
  <advance width="522"/>
  <unicode hex="00ED"/>
  <anchor x="0" y="0" name="Anchor-11"/>
  <anchor x="0" y="0" name="Anchor-10"/>
  <anchor x="358" y="1495" name="Anchor-9"/>
  <anchor x="0" y="0" name="Anchor-8"/>
  <anchor x="0" y="0" name="Anchor-7"/>
  <outline>
    <contour>
      <point x="352" y="1198" type="line"/>
      <point x="176" y="1251" type="line"/>
      <point x="287" y="1495" type="line"/>
      <point x="543" y="1495" type="line"/>
    </contour>
    <contour>
      <point x="125" y="0" type="line"/>
      <point x="125" y="1073" type="line"/>
      <point x="399" y="1073" type="line"/>
      <point x="399" y="0" type="line"/>
    </contour>
  </outline>
</glyph>
<glyph name="icircumflex" format="2">
  <advance width="522"/>
  <unicode hex="00EE"/>
  <anchor x="0" y="0" name="Anchor-11"/>
  <anchor x="0" y="0" name="Anchor-10"/>
  <anchor x="262" y="1495" name="Anchor-9"/>
  <anchor x="0" y="0" name="Anchor-8"/>
  <anchor x="0" y="0" name="Anchor-7"/>
  <outline>
    <contour>
      <point x="-55" y="1288" type="line"/>
      <point x="162" y="1495" type="line"/>
      <point x="360" y="1495" type="line"/>
      <point x="578" y="1288" type="line"/>
      <point x="436" y="1223" type="line"/>
      <point x="262" y="1352" type="line"/>
      <point x="88" y="1223" type="line"/>
    </contour>
    <contour>
      <point x="125" y="0" type="line"/>
      <point x="125" y="1073" type="line"/>
      <point x="399" y="1073" type="line"/>
      <point x="399" y="0" type="line"/>
    </contour>
  </outline>
</glyph>
<glyph name="idieresis" format="2">
  <advance width="522"/>
  <unicode hex="00EF"/>
  <anchor x="0" y="0" name="Anchor-11"/>
  <anchor x="0" y="0" name="Anchor-10"/>
  <anchor x="262" y="1477" name="Anchor-9"/>
  <anchor x="0" y="0" name="Anchor-8"/>
  <anchor x="0" y="0" name="Anchor-7"/>
  <outline>
    <contour>
      <point x="-49" y="1239" type="line"/>
      <point x="-49" y="1483" type="line"/>
      <point x="178" y="1483" type="line"/>
      <point x="178" y="1239" type="line"/>
    </contour>
    <contour>
      <point x="344" y="1239" type="line"/>
      <point x="344" y="1483" type="line"/>
      <point x="571" y="1483" type="line"/>
      <point x="571" y="1239" type="line"/>
    </contour>
    <contour>
      <point x="125" y="0" type="line"/>
      <point x="125" y="1073" type="line"/>
      <point x="399" y="1073" type="line"/>
      <point x="399" y="0" type="line"/>
    </contour>
  </outline>
</glyph>
<glyph name="eth" format="2">
  <advance width="1255"/>
  <unicode hex="00F0"/>
  <outline>
    <contour>
      <point x="932" y="1272" type="line"/>
      <point x="1058" y="1128"/>
      <point x="1188" y="770"/>
      <point x="1188" y="594" type="qcurve" smooth="yes"/>
      <point x="1188" y="313"/>
      <point x="871" y="-20"/>
      <point x="621" y="-20" type="qcurve" smooth="yes"/>
      <point x="465" y="-20"/>
      <point x="210" y="109"/>
      <point x="63" y="337"/>
      <point x="63" y="477" type="qcurve" smooth="yes"/>
      <point x="63" y="610"/>
      <point x="195" y="836"/>
      <point x="423" y="967"/>
      <point x="559" y="967" type="qcurve" smooth="yes"/>
      <point x="663" y="967"/>
      <point x="849" y="880"/>
      <point x="907" y="807" type="qcurve"/>
      <point x="860" y="1017"/>
      <point x="723" y="1178" type="qcurve"/>
      <point x="532" y="1069" type="line"/>
      <point x="453" y="1176" type="line"/>
      <point x="627" y="1274" type="line"/>
      <point x="503" y="1386"/>
      <point x="299" y="1495" type="qcurve"/>
      <point x="651" y="1495" type="line"/>
      <point x="760" y="1437"/>
      <point x="838" y="1368" type="qcurve"/>
      <point x="997" y="1460" type="line"/>
      <point x="1077" y="1352" type="line"/>
    </contour>
    <contour>
      <point x="625" y="213" type="qcurve" smooth="yes"/>
      <point x="746" y="213"/>
      <point x="907" y="370"/>
      <point x="907" y="485" type="qcurve" smooth="yes"/>
      <point x="907" y="598"/>
      <point x="748" y="745"/>
      <point x="629" y="745" type="qcurve" smooth="yes"/>
      <point x="508" y="745"/>
      <point x="346" y="593"/>
      <point x="346" y="365"/>
      <point x="505" y="213"/>
    </contour>
  </outline>
</glyph>
<glyph name="ntilde" format="2">
  <advance width="1236"/>
  <unicode hex="00F1"/>
  <anchor x="0" y="0" name="Anchor-11"/>
  <anchor x="0" y="0" name="Anchor-10"/>
  <anchor x="649" y="1495" name="Anchor-9"/>
  <anchor x="0" y="0" name="Anchor-8"/>
  <anchor x="618" y="0" name="Anchor-7"/>
  <outline>
    <contour>
      <point x="514" y="1325" type="qcurve" smooth="yes"/>
      <point x="488" y="1325"/>
      <point x="449" y="1305"/>
      <point x="430" y="1280"/>
      <point x="418" y="1248"/>
      <point x="416" y="1231"/>
      <point x="416" y="1227" type="qcurve"/>
      <point x="264" y="1227" type="line"/>
      <point x="264" y="1245"/>
      <point x="279" y="1303"/>
      <point x="315" y="1379"/>
      <point x="367" y="1444"/>
      <point x="453" y="1489"/>
      <point x="504" y="1489" type="qcurve" smooth="yes"/>
      <point x="546" y="1489"/>
      <point x="624" y="1459"/>
      <point x="674" y="1423"/>
      <point x="742" y="1393"/>
      <point x="774" y="1393" type="qcurve" smooth="yes"/>
      <point x="802" y="1393"/>
      <point x="844" y="1413"/>
      <point x="866" y="1440"/>
      <point x="880" y="1472"/>
      <point x="883" y="1490"/>
      <point x="883" y="1495" type="qcurve"/>
      <point x="1034" y="1495" type="line"/>
      <point x="1034" y="1481"/>
      <point x="1019" y="1425"/>
      <point x="980" y="1348"/>
      <point x="926" y="1280"/>
      <point x="836" y="1233"/>
      <point x="782" y="1233" type="qcurve" smooth="yes"/>
      <point x="730" y="1233"/>
      <point x="634" y="1279"/>
      <point x="551" y="1325"/>
    </contour>
    <contour>
      <point x="1122" y="0" type="line"/>
      <point x="848" y="0" type="line"/>
      <point x="848" y="602" type="line" smooth="yes"/>
      <point x="848" y="850"/>
      <point x="678" y="850" type="qcurve" smooth="yes"/>
      <point x="593" y="850"/>
      <point x="429" y="722"/>
      <point x="399" y="627" type="qcurve"/>
      <point x="399" y="0" type="line"/>
      <point x="125" y="0" type="line"/>
      <point x="125" y="1073" type="line"/>
      <point x="373" y="1073" type="line"/>
      <point x="373" y="874" type="line"/>
      <point x="433" y="976"/>
      <point x="660" y="1092"/>
      <point x="799" y="1092" type="qcurve" smooth="yes"/>
      <point x="877" y="1092"/>
      <point x="994" y="1043"/>
      <point x="1064" y="965"/>
      <point x="1107" y="851"/>
      <point x="1122" y="738"/>
      <point x="1122" y="670" type="qcurve" smooth="yes"/>
    </contour>
  </outline>
</glyph>
<glyph name="ograve" format="2">
  <advance width="1241"/>
  <unicode hex="00F2"/>
  <anchor x="918" y="934" name="Anchor-11"/>
  <anchor x="621" y="537" name="Anchor-10"/>
  <anchor x="549" y="1497" name="Anchor-9"/>
  <anchor x="780" y="0" name="Anchor-8"/>
  <anchor x="621" y="0" name="Anchor-7"/>
  <outline>
    <contour>
      <point x="367" y="1497" type="line"/>
      <point x="621" y="1497" type="line"/>
      <point x="733" y="1253" type="line"/>
      <point x="557" y="1200" type="line"/>
    </contour>
    <contour>
      <point x="57" y="535" type="qcurve" smooth="yes"/>
      <point x="57" y="647"/>
      <point x="137" y="849"/>
      <point x="279" y="1002"/>
      <point x="494" y="1092"/>
      <point x="621" y="1092" type="qcurve" smooth="yes"/>
      <point x="790" y="1092"/>
      <point x="1049" y="937"/>
      <point x="1182" y="686"/>
      <point x="1182" y="535" type="qcurve" smooth="yes"/>
      <point x="1182" y="424"/>
      <point x="1104" y="223"/>
      <point x="963" y="70"/>
      <point x="749" y="-20"/>
      <point x="621" y="-20" type="qcurve" smooth="yes"/>
      <point x="518" y="-20"/>
      <point x="338" y="39"/>
      <point x="204" y="143"/>
      <point x="106" y="282"/>
      <point x="57" y="447"/>
    </contour>
    <contour>
      <point x="621" y="213" type="qcurve" smooth="yes"/>
      <point x="740" y="213"/>
      <point x="901" y="397"/>
      <point x="901" y="537" type="qcurve" smooth="yes"/>
      <point x="901" y="676"/>
      <point x="740" y="858"/>
      <point x="502" y="858"/>
      <point x="340" y="674"/>
      <point x="340" y="535" type="qcurve" smooth="yes"/>
      <point x="340" y="395"/>
      <point x="501" y="213"/>
    </contour>
  </outline>
</glyph>
<glyph name="divide" format="2">
  <advance width="1046"/>
  <unicode hex="00F7"/>
  <outline>
    <contour>
      <point x="410" y="858" type="line"/>
      <point x="410" y="1120" type="line"/>
      <point x="641" y="1120" type="line"/>
      <point x="641" y="858" type="line"/>
    </contour>
    <contour>
      <point x="111" y="500" type="line"/>
      <point x="111" y="719" type="line"/>
      <point x="938" y="719" type="line"/>
      <point x="938" y="500" type="line"/>
    </contour>
    <contour>
      <point x="410" y="98" type="line"/>
      <point x="410" y="362" type="line"/>
      <point x="641" y="362" type="line"/>
      <point x="641" y="98" type="line"/>
    </contour>
  </outline>
</glyph>
<glyph name="oslash" format="2">
  <advance width="1241"/>
  <unicode hex="00F8"/>
  <outline>
    <contour>
      <point x="1024" y="932" type="line"/>
      <point x="1100" y="856"/>
      <point x="1182" y="651"/>
      <point x="1182" y="535" type="qcurve" smooth="yes"/>
      <point x="1182" y="424"/>
      <point x="1104" y="223"/>
      <point x="963" y="70"/>
      <point x="749" y="-20"/>
      <point x="621" y="-20" type="qcurve" smooth="yes"/>
      <point x="449" y="-20"/>
      <point x="317" y="57" type="qcurve"/>
      <point x="262" y="-8" type="line"/>
      <point x="86" y="-8" type="line"/>
      <point x="209" y="143" type="line"/>
      <point x="136" y="219"/>
      <point x="57" y="422"/>
      <point x="57" y="535" type="qcurve" smooth="yes"/>
      <point x="57" y="647"/>
      <point x="137" y="849"/>
      <point x="279" y="1002"/>
      <point x="494" y="1092"/>
      <point x="621" y="1092" type="qcurve" smooth="yes"/>
      <point x="784" y="1092"/>
      <point x="913" y="1018" type="qcurve"/>
      <point x="965" y="1081" type="line"/>
      <point x="1145" y="1081" type="line"/>
    </contour>
    <contour>
      <point x="621" y="858" type="qcurve" smooth="yes"/>
      <point x="502" y="858"/>
      <point x="340" y="674"/>
      <point x="340" y="535" type="qcurve" smooth="yes"/>
      <point x="340" y="423"/>
      <point x="391" y="344" type="qcurve"/>
      <point x="756" y="821" type="line"/>
      <point x="695" y="858"/>
    </contour>
    <contour>
      <point x="621" y="213" type="qcurve" smooth="yes"/>
      <point x="740" y="213"/>
      <point x="901" y="397"/>
      <point x="901" y="537" type="qcurve" smooth="yes"/>
      <point x="901" y="650"/>
      <point x="846" y="733" type="qcurve"/>
      <point x="479" y="254" type="line"/>
      <point x="541" y="213"/>
    </contour>
  </outline>
</glyph>
<glyph name="thorn" format="2">
  <advance width="1230"/>
  <unicode hex="00FE"/>
  <outline>
    <contour>
      <point x="637" y="-49" type="qcurve" smooth="yes"/>
      <point x="551" y="-49"/>
      <point x="432" y="14"/>
      <point x="406" y="55" type="qcurve"/>
      <point x="406" y="-436" type="line"/>
      <point x="125" y="-436" type="line"/>
      <point x="125" y="1454" type="line"/>
      <point x="406" y="1454" type="line"/>
      <point x="406" y="989" type="line"/>
      <point x="489" y="1104"/>
      <point x="653" y="1104" type="qcurve" smooth="yes"/>
      <point x="746" y="1104"/>
      <point x="913" y="1037"/>
      <point x="1037" y="922"/>
      <point x="1129" y="773"/>
      <point x="1176" y="607"/>
      <point x="1176" y="524" type="qcurve" smooth="yes"/>
      <point x="1175" y="374"/>
      <point x="1030" y="110"/>
      <point x="781" y="-49"/>
    </contour>
    <contour>
      <point x="637" y="856" type="qcurve" smooth="yes"/>
      <point x="494" y="856"/>
      <point x="406" y="688" type="qcurve"/>
      <point x="406" y="360" type="line" smooth="yes"/>
      <point x="406" y="303"/>
      <point x="551" y="199"/>
      <point x="629" y="199" type="qcurve" smooth="yes"/>
      <point x="743" y="199"/>
      <point x="895" y="391"/>
      <point x="895" y="665"/>
      <point x="753" y="856"/>
    </contour>
  </outline>
</glyph>
<glyph name="amacron" format="2">
  <advance width="1175"/>
  <unicode hex="0101"/>
  <anchor x="0" y="0" name="Anchor-11"/>
  <anchor x="0" y="0" name="Anchor-10"/>
  <anchor x="559" y="1466" name="Anchor-9"/>
  <anchor x="1110" y="0" name="Anchor-8"/>
  <anchor x="612" y="0" name="Anchor-7"/>
  <outline>
    <contour>
      <point x="252" y="1296" type="line"/>
      <point x="252" y="1466" type="line"/>
      <point x="866" y="1466" type="line"/>
      <point x="866" y="1296" type="line"/>
    </contour>
    <contour>
      <point x="51" y="317" type="qcurve" smooth="yes"/>
      <point x="51" y="473"/>
      <point x="307" y="666"/>
      <point x="512" y="666" type="qcurve" smooth="yes"/>
      <point x="666" y="666"/>
      <point x="770" y="623" type="qcurve"/>
      <point x="770" y="680" type="line" smooth="yes"/>
      <point x="770" y="783"/>
      <point x="649" y="893"/>
      <point x="530" y="893" type="qcurve" smooth="yes"/>
      <point x="444" y="893"/>
      <point x="288" y="834"/>
      <point x="195" y="772" type="qcurve"/>
      <point x="106" y="952" type="line"/>
      <point x="321" y="1092"/>
      <point x="559" y="1092" type="qcurve" smooth="yes"/>
      <point x="789" y="1092"/>
      <point x="1044" y="862"/>
      <point x="1044" y="649" type="qcurve" smooth="yes"/>
      <point x="1044" y="307" type="line" smooth="yes"/>
      <point x="1044" y="263"/>
      <point x="1074" y="226"/>
      <point x="1110" y="223" type="qcurve"/>
      <point x="1110" y="0" type="line"/>
      <point x="1041" y="-14"/>
      <point x="993" y="-14" type="qcurve" smooth="yes"/>
      <point x="914" y="-14"/>
      <point x="827" y="55"/>
      <point x="817" y="113" type="qcurve" smooth="yes"/>
      <point x="811" y="168" type="line"/>
      <point x="742" y="79"/>
      <point x="533" y="-20"/>
      <point x="424" y="-20" type="qcurve" smooth="yes"/>
      <point x="263" y="-20"/>
      <point x="51" y="172"/>
    </contour>
    <contour>
      <point x="719" y="262" type="qcurve" smooth="yes"/>
      <point x="770" y="313"/>
      <point x="770" y="356" type="qcurve" smooth="yes"/>
      <point x="770" y="465" type="line"/>
      <point x="665" y="508"/>
      <point x="555" y="508" type="qcurve" smooth="yes"/>
      <point x="447" y="508"/>
      <point x="311" y="415"/>
      <point x="311" y="340" type="qcurve" smooth="yes"/>
      <point x="311" y="275"/>
      <point x="415" y="180"/>
      <point x="502" y="180" type="qcurve" smooth="yes"/>
      <point x="563" y="180"/>
      <point x="680" y="225"/>
    </contour>
  </outline>
</glyph>
<glyph name="Abreve" format="2">
  <advance width="1376"/>
  <unicode hex="0102"/>
  <anchor x="0" y="0" name="Anchor-11"/>
  <anchor x="0" y="0" name="Anchor-10"/>
  <anchor x="690" y="1874" name="Anchor-9"/>
  <anchor x="1368" y="0" name="Anchor-8"/>
  <anchor x="711" y="0" name="Anchor-7"/>
  <outline>
    <contour>
      <point x="813" y="1874" type="qcurve"/>
      <point x="958" y="1874" type="line"/>
      <point x="958" y="1755"/>
      <point x="807" y="1599"/>
      <point x="573" y="1599"/>
      <point x="422" y="1755"/>
      <point x="422" y="1874" type="qcurve"/>
      <point x="569" y="1874" type="line"/>
      <point x="569" y="1813"/>
      <point x="642" y="1722"/>
      <point x="690" y="1722" type="qcurve" smooth="yes"/>
      <point x="736" y="1722"/>
      <point x="807" y="1809"/>
    </contour>
    <contour>
      <point x="547" y="1454" type="line"/>
      <point x="834" y="1454" type="line"/>
      <point x="1368" y="0" type="line"/>
      <point x="1077" y="0" type="line"/>
      <point x="942" y="362" type="line"/>
      <point x="434" y="362" type="line"/>
      <point x="301" y="0" type="line"/>
      <point x="10" y="0" type="line"/>
    </contour>
    <contour>
      <point x="891" y="561" type="line"/>
      <point x="690" y="1161" type="line"/>
      <point x="481" y="561" type="line"/>
    </contour>
  </outline>
</glyph>
<glyph name="Aogonek" format="2">
  <advance width="1376"/>
  <unicode hex="0104"/>
  <anchor x="0" y="0" name="Anchor-11"/>
  <anchor x="0" y="0" name="Anchor-10"/>
  <anchor x="690" y="1452" name="Anchor-9"/>
  <anchor x="1368" y="0" name="Anchor-8"/>
  <anchor x="711" y="0" name="Anchor-7"/>
  <outline>
    <contour>
      <point x="1214" y="-178" type="qcurve" smooth="yes"/>
      <point x="1214" y="-251"/>
      <point x="1368" y="-254" type="qcurve"/>
      <point x="1313" y="-410" type="line"/>
      <point x="1169" y="-397"/>
      <point x="1040" y="-295"/>
      <point x="1040" y="-225" type="qcurve" smooth="yes"/>
      <point x="1040" y="-104"/>
      <point x="1182" y="0" type="qcurve"/>
      <point x="1077" y="0" type="line"/>
      <point x="942" y="362" type="line"/>
      <point x="434" y="362" type="line"/>
      <point x="301" y="0" type="line"/>
      <point x="10" y="0" type="line"/>
      <point x="547" y="1454" type="line"/>
      <point x="834" y="1454" type="line"/>
      <point x="1368" y="0" type="line"/>
      <point x="1214" y="-109"/>
    </contour>
    <contour>
      <point x="481" y="561" type="line"/>
      <point x="891" y="561" type="line"/>
      <point x="690" y="1161" type="line"/>
    </contour>
  </outline>
</glyph>
<glyph name="aogonek" format="2">
  <advance width="1175"/>
  <unicode hex="0105"/>
  <anchor x="0" y="0" name="Anchor-11"/>
  <anchor x="0" y="0" name="Anchor-10"/>
  <anchor x="557" y="1073" name="Anchor-9"/>
  <anchor x="1110" y="0" name="Anchor-8"/>
  <anchor x="612" y="0" name="Anchor-7"/>
  <outline>
    <contour>
      <point x="1110" y="0" type="line"/>
      <point x="956" y="-109"/>
      <point x="956" y="-178" type="qcurve" smooth="yes"/>
      <point x="956" y="-251"/>
      <point x="1110" y="-254" type="qcurve"/>
      <point x="1055" y="-410" type="line"/>
      <point x="911" y="-397"/>
      <point x="782" y="-295"/>
      <point x="782" y="-225" type="qcurve" smooth="yes"/>
      <point x="782" y="-106"/>
      <point x="920" y="-4" type="qcurve"/>
      <point x="876" y="9"/>
      <point x="823" y="72"/>
      <point x="817" y="113" type="qcurve" smooth="yes"/>
      <point x="811" y="168" type="line"/>
      <point x="742" y="79"/>
      <point x="533" y="-20"/>
      <point x="424" y="-20" type="qcurve" smooth="yes"/>
      <point x="263" y="-20"/>
      <point x="51" y="172"/>
      <point x="51" y="317" type="qcurve" smooth="yes"/>
      <point x="51" y="473"/>
      <point x="307" y="666"/>
      <point x="512" y="666" type="qcurve" smooth="yes"/>
      <point x="666" y="666"/>
      <point x="770" y="623" type="qcurve"/>
      <point x="770" y="680" type="line" smooth="yes"/>
      <point x="770" y="783"/>
      <point x="649" y="893"/>
      <point x="530" y="893" type="qcurve" smooth="yes"/>
      <point x="444" y="893"/>
      <point x="288" y="834"/>
      <point x="195" y="772" type="qcurve"/>
      <point x="106" y="952" type="line"/>
      <point x="321" y="1092"/>
      <point x="559" y="1092" type="qcurve" smooth="yes"/>
      <point x="789" y="1092"/>
      <point x="1044" y="862"/>
      <point x="1044" y="649" type="qcurve" smooth="yes"/>
      <point x="1044" y="307" type="line" smooth="yes"/>
      <point x="1044" y="263"/>
      <point x="1074" y="226"/>
      <point x="1110" y="223" type="qcurve"/>
    </contour>
    <contour>
      <point x="770" y="356" type="qcurve" smooth="yes"/>
      <point x="770" y="465" type="line"/>
      <point x="665" y="508"/>
      <point x="555" y="508" type="qcurve" smooth="yes"/>
      <point x="447" y="508"/>
      <point x="311" y="415"/>
      <point x="311" y="340" type="qcurve" smooth="yes"/>
      <point x="311" y="275"/>
      <point x="415" y="180"/>
      <point x="502" y="180" type="qcurve" smooth="yes"/>
      <point x="563" y="180"/>
      <point x="680" y="225"/>
      <point x="719" y="262" type="qcurve" smooth="yes"/>
      <point x="770" y="313"/>
    </contour>
  </outline>
</glyph>
<glyph name="ccircumflex" format="2">
  <advance width="1155"/>
  <unicode hex="0109"/>
  <anchor x="0" y="0" name="Anchor-11"/>
  <anchor x="0" y="0" name="Anchor-10"/>
  <anchor x="623" y="1495" name="Anchor-9"/>
  <anchor x="0" y="0" name="Anchor-8"/>
  <anchor x="625" y="0" name="Anchor-7"/>
  <outline>
    <contour>
      <point x="305" y="1288" type="line"/>
      <point x="522" y="1495" type="line"/>
      <point x="721" y="1495" type="line"/>
      <point x="938" y="1288" type="line"/>
      <point x="797" y="1223" type="line"/>
      <point x="623" y="1352" type="line"/>
      <point x="449" y="1223" type="line"/>
    </contour>
    <contour>
      <point x="625" y="-20" type="qcurve" smooth="yes"/>
      <point x="498" y="-20"/>
      <point x="282" y="71"/>
      <point x="138" y="224"/>
      <point x="57" y="426"/>
      <point x="57" y="537" type="qcurve" smooth="yes"/>
      <point x="57" y="688"/>
      <point x="192" y="938"/>
      <point x="453" y="1092"/>
      <point x="793" y="1092"/>
      <point x="1045" y="944"/>
      <point x="1108" y="817" type="qcurve"/>
      <point x="840" y="735" type="line"/>
      <point x="806" y="793"/>
      <point x="690" y="858"/>
      <point x="621" y="858" type="qcurve" smooth="yes"/>
      <point x="501" y="858"/>
      <point x="340" y="678"/>
      <point x="340" y="537" type="qcurve" smooth="yes"/>
      <point x="340" y="398"/>
      <point x="504" y="213"/>
      <point x="621" y="213" type="qcurve" smooth="yes"/>
      <point x="694" y="213"/>
      <point x="819" y="285"/>
      <point x="844" y="340" type="qcurve"/>
      <point x="1112" y="258" type="line"/>
      <point x="1055" y="133"/>
      <point x="797" y="-20"/>
    </contour>
  </outline>
</glyph>
<glyph name="Dcaron" format="2">
  <advance width="1466"/>
  <unicode hex="010E"/>
  <anchor x="0" y="0" name="Anchor-11"/>
  <anchor x="733" y="727" name="Anchor-10"/>
  <anchor x="676" y="1874" name="Anchor-9"/>
  <anchor x="0" y="0" name="Anchor-8"/>
  <anchor x="733" y="0" name="Anchor-7"/>
  <outline>
    <contour>
      <point x="502" y="1874" type="line"/>
      <point x="676" y="1745" type="line"/>
      <point x="850" y="1874" type="line"/>
      <point x="991" y="1808" type="line"/>
      <point x="774" y="1602" type="line"/>
      <point x="575" y="1602" type="line"/>
      <point x="358" y="1808" type="line"/>
    </contour>
    <contour>
      <point x="152" y="0" type="line"/>
      <point x="152" y="1454" type="line"/>
      <point x="680" y="1454" type="line" smooth="yes"/>
      <point x="853" y="1454"/>
      <point x="1130" y="1341"/>
      <point x="1305" y="1142"/>
      <point x="1397" y="881"/>
      <point x="1397" y="729" type="qcurve" smooth="yes"/>
      <point x="1397" y="398"/>
      <point x="1006" y="0"/>
      <point x="680" y="0" type="qcurve" smooth="yes"/>
    </contour>
    <contour>
      <point x="680" y="1206" type="qcurve" smooth="yes"/>
      <point x="434" y="1206" type="line"/>
      <point x="434" y="248" type="line"/>
      <point x="680" y="248" type="line" smooth="yes"/>
      <point x="883" y="248"/>
      <point x="1112" y="517"/>
      <point x="1112" y="729" type="qcurve" smooth="yes"/>
      <point x="1112" y="944"/>
      <point x="882" y="1206"/>
    </contour>
  </outline>
</glyph>
<glyph name="Dcroat" format="2">
  <advance width="1476"/>
  <unicode hex="0110"/>
  <anchor x="0" y="0" name="Anchor-11"/>
  <anchor x="743" y="727" name="Anchor-10"/>
  <anchor x="686" y="1452" name="Anchor-9"/>
  <anchor x="0" y="0" name="Anchor-8"/>
  <anchor x="743" y="0" name="Anchor-7"/>
  <outline>
    <contour>
      <point x="690" y="1454" type="line" smooth="yes"/>
      <point x="863" y="1454"/>
      <point x="1140" y="1341"/>
      <point x="1315" y="1142"/>
      <point x="1407" y="881"/>
      <point x="1407" y="729" type="qcurve" smooth="yes"/>
      <point x="1407" y="398"/>
      <point x="1016" y="0"/>
      <point x="690" y="0" type="qcurve" smooth="yes"/>
      <point x="162" y="0" type="line"/>
      <point x="162" y="629" type="line"/>
      <point x="63" y="629" type="line"/>
      <point x="63" y="834" type="line"/>
      <point x="162" y="834" type="line"/>
      <point x="162" y="1454" type="line"/>
    </contour>
    <contour>
      <point x="690" y="248" type="line" smooth="yes"/>
      <point x="893" y="248"/>
      <point x="1122" y="517"/>
      <point x="1122" y="729" type="qcurve" smooth="yes"/>
      <point x="1122" y="944"/>
      <point x="892" y="1206"/>
      <point x="690" y="1206" type="qcurve" smooth="yes"/>
      <point x="444" y="1206" type="line"/>
      <point x="444" y="834" type="line"/>
      <point x="729" y="834" type="line"/>
      <point x="729" y="629" type="line"/>
      <point x="444" y="629" type="line"/>
      <point x="444" y="248" type="line"/>
    </contour>
  </outline>
</glyph>
<glyph name="Emacron" format="2">
  <advance width="1230"/>
  <unicode hex="0112"/>
  <anchor x="0" y="0" name="Anchor-11"/>
  <anchor x="0" y="0" name="Anchor-10"/>
  <anchor x="670" y="1845" name="Anchor-9"/>
  <anchor x="1161" y="0" name="Anchor-8"/>
  <anchor x="668" y="0" name="Anchor-7"/>
  <outline>
    <contour>
      <point x="362" y="1675" type="line"/>
      <point x="362" y="1845" type="line"/>
      <point x="977" y="1845" type="line"/>
      <point x="977" y="1675" type="line"/>
    </contour>
    <contour>
      <point x="1161" y="248" type="line"/>
      <point x="1161" y="0" type="line"/>
      <point x="152" y="0" type="line"/>
      <point x="152" y="1454" type="line"/>
      <point x="1143" y="1454" type="line"/>
      <point x="1143" y="1206" type="line"/>
      <point x="434" y="1206" type="line"/>
      <point x="434" y="856" type="line"/>
      <point x="1047" y="856" type="line"/>
      <point x="1047" y="627" type="line"/>
      <point x="434" y="627" type="line"/>
      <point x="434" y="248" type="line"/>
    </contour>
  </outline>
</glyph>
<glyph name="Ebreve" format="2">
  <advance width="1230"/>
  <unicode hex="0114"/>
  <anchor x="0" y="0" name="Anchor-11"/>
  <anchor x="0" y="0" name="Anchor-10"/>
  <anchor x="668" y="1874" name="Anchor-9"/>
  <anchor x="1161" y="0" name="Anchor-8"/>
  <anchor x="668" y="0" name="Anchor-7"/>
  <outline>
    <contour>
      <point x="791" y="1874" type="qcurve"/>
      <point x="936" y="1874" type="line"/>
      <point x="936" y="1755"/>
      <point x="785" y="1599"/>
      <point x="551" y="1599"/>
      <point x="399" y="1755"/>
      <point x="399" y="1874" type="qcurve"/>
      <point x="547" y="1874" type="line"/>
      <point x="547" y="1813"/>
      <point x="620" y="1722"/>
      <point x="668" y="1722" type="qcurve" smooth="yes"/>
      <point x="714" y="1722"/>
      <point x="785" y="1809"/>
    </contour>
    <contour>
      <point x="1161" y="248" type="line"/>
      <point x="1161" y="0" type="line"/>
      <point x="152" y="0" type="line"/>
      <point x="152" y="1454" type="line"/>
      <point x="1143" y="1454" type="line"/>
      <point x="1143" y="1206" type="line"/>
      <point x="434" y="1206" type="line"/>
      <point x="434" y="856" type="line"/>
      <point x="1047" y="856" type="line"/>
      <point x="1047" y="627" type="line"/>
      <point x="434" y="627" type="line"/>
      <point x="434" y="248" type="line"/>
    </contour>
  </outline>
</glyph>
<glyph name="Edot" format="2">
  <advance width="1230"/>
  <unicode hex="0116"/>
  <anchor x="0" y="0" name="Anchor-11"/>
  <anchor x="0" y="0" name="Anchor-10"/>
  <anchor x="668" y="1874" name="Anchor-9"/>
  <anchor x="1161" y="0" name="Anchor-8"/>
  <anchor x="668" y="0" name="Anchor-7"/>
  <outline>
    <contour>
      <point x="545" y="1616" type="line"/>
      <point x="545" y="1874" type="line"/>
      <point x="793" y="1874" type="line"/>
      <point x="793" y="1616" type="line"/>
    </contour>
    <contour>
      <point x="1161" y="248" type="line"/>
      <point x="1161" y="0" type="line"/>
      <point x="152" y="0" type="line"/>
      <point x="152" y="1454" type="line"/>
      <point x="1143" y="1454" type="line"/>
      <point x="1143" y="1206" type="line"/>
      <point x="434" y="1206" type="line"/>
      <point x="434" y="856" type="line"/>
      <point x="1047" y="856" type="line"/>
      <point x="1047" y="627" type="line"/>
      <point x="434" y="627" type="line"/>
      <point x="434" y="248" type="line"/>
    </contour>
  </outline>
</glyph>
<glyph name="Eogonek" format="2">
  <advance width="1230"/>
  <unicode hex="0118"/>
  <anchor x="0" y="0" name="Anchor-11"/>
  <anchor x="0" y="0" name="Anchor-10"/>
  <anchor x="668" y="1452" name="Anchor-9"/>
  <anchor x="1161" y="0" name="Anchor-8"/>
  <anchor x="668" y="0" name="Anchor-7"/>
  <outline>
    <contour>
      <point x="1161" y="0" type="line"/>
      <point x="1008" y="-108"/>
      <point x="1008" y="-178" type="qcurve" smooth="yes"/>
      <point x="1008" y="-251"/>
      <point x="1161" y="-254" type="qcurve"/>
      <point x="1106" y="-410" type="line"/>
      <point x="1031" y="-404"/>
      <point x="922" y="-367"/>
      <point x="862" y="-315"/>
      <point x="834" y="-258"/>
      <point x="834" y="-225" type="qcurve" smooth="yes"/>
      <point x="834" y="-103"/>
      <point x="975" y="0" type="qcurve"/>
      <point x="152" y="0" type="line"/>
      <point x="152" y="1454" type="line"/>
      <point x="1143" y="1454" type="line"/>
      <point x="1143" y="1206" type="line"/>
      <point x="434" y="1206" type="line"/>
      <point x="434" y="856" type="line"/>
      <point x="1047" y="856" type="line"/>
      <point x="1047" y="627" type="line"/>
      <point x="434" y="627" type="line"/>
      <point x="434" y="248" type="line"/>
      <point x="1161" y="248" type="line"/>
    </contour>
  </outline>
</glyph>
<glyph name="eogonek" format="2">
  <advance width="1226"/>
  <unicode hex="0119"/>
  <anchor x="0" y="0" name="Anchor-11"/>
  <anchor x="0" y="0" name="Anchor-10"/>
  <anchor x="621" y="1073" name="Anchor-9"/>
  <anchor x="784" y="0" name="Anchor-8"/>
  <anchor x="623" y="0" name="Anchor-7"/>
  <outline>
    <contour>
      <point x="1184" y="541" type="qcurve" smooth="yes"/>
      <point x="1184" y="484"/>
      <point x="1178" y="449" type="qcurve"/>
      <point x="348" y="449" type="line"/>
      <point x="358" y="327"/>
      <point x="522" y="180"/>
      <point x="633" y="180" type="qcurve" smooth="yes"/>
      <point x="716" y="180"/>
      <point x="861" y="261"/>
      <point x="887" y="326" type="qcurve"/>
      <point x="1122" y="260" type="line"/>
      <point x="1077" y="165"/>
      <point x="900" y="27"/>
      <point x="782" y="-2" type="qcurve"/>
      <point x="631" y="-108"/>
      <point x="631" y="-178" type="qcurve" smooth="yes"/>
      <point x="631" y="-251"/>
      <point x="784" y="-254" type="qcurve"/>
      <point x="729" y="-410" type="line"/>
      <point x="654" y="-404"/>
      <point x="545" y="-367"/>
      <point x="485" y="-315"/>
      <point x="457" y="-258"/>
      <point x="457" y="-225" type="qcurve" smooth="yes"/>
      <point x="457" y="-116"/>
      <point x="573" y="-18" type="qcurve"/>
      <point x="341" y="-1"/>
      <point x="57" y="312"/>
      <point x="57" y="530" type="qcurve" smooth="yes"/>
      <point x="57" y="683"/>
      <point x="193" y="938"/>
      <point x="455" y="1092"/>
      <point x="625" y="1092" type="qcurve" smooth="yes"/>
      <point x="753" y="1092"/>
      <point x="966" y="1002"/>
      <point x="1107" y="849"/>
      <point x="1184" y="651"/>
    </contour>
    <contour>
      <point x="342" y="623" type="qcurve"/>
      <point x="903" y="623" type="line"/>
      <point x="891" y="744"/>
      <point x="734" y="893"/>
      <point x="621" y="893" type="qcurve" smooth="yes"/>
      <point x="510" y="893"/>
      <point x="352" y="743"/>
    </contour>
  </outline>
</glyph>
<glyph name="Ecaron" format="2">
  <advance width="1230"/>
  <unicode hex="011A"/>
  <anchor x="0" y="0" name="Anchor-11"/>
  <anchor x="0" y="0" name="Anchor-10"/>
  <anchor x="668" y="1874" name="Anchor-9"/>
  <anchor x="1161" y="0" name="Anchor-8"/>
  <anchor x="668" y="0" name="Anchor-7"/>
  <outline>
    <contour>
      <point x="494" y="1874" type="line"/>
      <point x="668" y="1745" type="line"/>
      <point x="842" y="1874" type="line"/>
      <point x="983" y="1808" type="line"/>
      <point x="766" y="1602" type="line"/>
      <point x="567" y="1602" type="line"/>
      <point x="350" y="1808" type="line"/>
    </contour>
    <contour>
      <point x="1161" y="248" type="line"/>
      <point x="1161" y="0" type="line"/>
      <point x="152" y="0" type="line"/>
      <point x="152" y="1454" type="line"/>
      <point x="1143" y="1454" type="line"/>
      <point x="1143" y="1206" type="line"/>
      <point x="434" y="1206" type="line"/>
      <point x="434" y="856" type="line"/>
      <point x="1047" y="856" type="line"/>
      <point x="1047" y="627" type="line"/>
      <point x="434" y="627" type="line"/>
      <point x="434" y="248" type="line"/>
    </contour>
  </outline>
</glyph>
<glyph name="gbreve" format="2">
  <advance width="1298"/>
  <unicode hex="011F"/>
  <anchor x="0" y="0" name="Anchor-11"/>
  <anchor x="0" y="0" name="Anchor-10"/>
  <anchor x="639" y="1495" name="Anchor-9"/>
  <anchor x="0" y="0" name="Anchor-8"/>
  <anchor x="0" y="0" name="Anchor-7"/>
  <outline>
    <contour>
      <point x="762" y="1495" type="qcurve"/>
      <point x="907" y="1495" type="line"/>
      <point x="907" y="1376"/>
      <point x="756" y="1221"/>
      <point x="522" y="1221"/>
      <point x="371" y="1376"/>
      <point x="371" y="1495" type="qcurve"/>
      <point x="518" y="1495" type="line"/>
      <point x="518" y="1434"/>
      <point x="591" y="1343"/>
      <point x="639" y="1343" type="qcurve" smooth="yes"/>
      <point x="685" y="1343"/>
      <point x="756" y="1430"/>
    </contour>
    <contour>
      <point x="61" y="537" type="qcurve" smooth="yes"/>
      <point x="61" y="691"/>
      <point x="187" y="944"/>
      <point x="417" y="1092"/>
      <point x="561" y="1092" type="qcurve" smooth="yes"/>
      <point x="682" y="1092"/>
      <point x="872" y="982"/>
      <point x="936" y="885" type="qcurve"/>
      <point x="936" y="1073" type="line"/>
      <point x="1176" y="1073" type="line"/>
      <point x="1176" y="51" type="line" smooth="yes"/>
      <point x="1176" y="-104"/>
      <point x="1021" y="-337"/>
      <point x="752" y="-457"/>
      <point x="580" y="-457" type="qcurve" smooth="yes"/>
      <point x="411" y="-457"/>
      <point x="168" y="-343"/>
      <point x="78" y="-233" type="qcurve"/>
      <point x="227" y="-88" type="line"/>
      <point x="289" y="-163"/>
      <point x="476" y="-250"/>
      <point x="580" y="-250" type="qcurve" smooth="yes"/>
      <point x="646" y="-250"/>
      <point x="760" y="-214"/>
      <point x="850" y="-143"/>
      <point x="901" y="-25"/>
      <point x="901" y="51" type="qcurve" smooth="yes"/>
      <point x="901" y="186" type="line"/>
      <point x="848" y="95"/>
      <point x="656" y="-6"/>
      <point x="545" y="-6" type="qcurve" smooth="yes"/>
      <point x="405" y="-6"/>
      <point x="182" y="142"/>
      <point x="61" y="390"/>
    </contour>
    <contour>
      <point x="901" y="393" type="qcurve"/>
      <point x="901" y="649" type="line"/>
      <point x="865" y="742"/>
      <point x="708" y="858"/>
      <point x="621" y="858" type="qcurve" smooth="yes"/>
      <point x="499" y="858"/>
      <point x="342" y="661"/>
      <point x="342" y="395"/>
      <point x="512" y="213"/>
      <point x="637" y="213" type="qcurve" smooth="yes"/>
      <point x="724" y="213"/>
      <point x="871" y="317"/>
    </contour>
  </outline>
</glyph>
<glyph name="Gcedilla" format="2">
  <advance width="1484"/>
  <unicode hex="0122"/>
  <anchor x="0" y="0" name="Anchor-11"/>
  <anchor x="0" y="0" name="Anchor-10"/>
  <anchor x="772" y="1452" name="Anchor-9"/>
  <anchor x="0" y="0" name="Anchor-8"/>
  <anchor x="762" y="0" name="Anchor-7"/>
  <outline>
    <contour>
      <point x="868" y="748" type="line"/>
      <point x="1395" y="748" type="line"/>
      <point x="1395" y="0" type="line"/>
      <point x="1161" y="0" type="line"/>
      <point x="1161" y="166" type="line"/>
      <point x="985" y="-10"/>
      <point x="756" y="-10" type="qcurve" smooth="yes"/>
      <point x="567" y="-10"/>
      <point x="250" y="186"/>
      <point x="66" y="529"/>
      <point x="66" y="735" type="qcurve" smooth="yes"/>
      <point x="66" y="882"/>
      <point x="175" y="1150"/>
      <point x="362" y="1347"/>
      <point x="626" y="1464"/>
      <point x="774" y="1464" type="qcurve" smooth="yes"/>
      <point x="974" y="1464"/>
      <point x="1271" y="1295"/>
      <point x="1346" y="1147" type="qcurve"/>
      <point x="1135" y="991" type="line"/>
      <point x="1080" y="1097"/>
      <point x="882" y="1214"/>
      <point x="764" y="1214" type="qcurve" smooth="yes"/>
      <point x="643" y="1214"/>
      <point x="452" y="1080"/>
      <point x="350" y="858"/>
      <point x="350" y="727" type="qcurve" smooth="yes"/>
      <point x="350" y="520"/>
      <point x="595" y="240"/>
      <point x="780" y="240" type="qcurve" smooth="yes"/>
      <point x="991" y="240"/>
      <point x="1161" y="440" type="qcurve"/>
      <point x="1161" y="541" type="line"/>
      <point x="868" y="541" type="line"/>
    </contour>
    <contour>
      <point x="639" y="-289" type="line"/>
      <point x="639" y="-96" type="line"/>
      <point x="870" y="-96" type="line"/>
      <point x="870" y="-289" type="line"/>
      <point x="788" y="-436" type="line"/>
      <point x="664" y="-436" type="line"/>
      <point x="719" y="-289" type="line"/>
    </contour>
  </outline>
</glyph>
<glyph name="Hcircumflex" format="2">
  <advance width="1525"/>
  <unicode hex="0124"/>
  <anchor x="0" y="0" name="Anchor-11"/>
  <anchor x="764" y="727" name="Anchor-10"/>
  <anchor x="768" y="1872" name="Anchor-9"/>
  <anchor x="0" y="0" name="Anchor-8"/>
  <anchor x="764" y="0" name="Anchor-7"/>
  <outline>
    <contour>
      <point x="451" y="1665" type="line"/>
      <point x="668" y="1872" type="line"/>
      <point x="866" y="1872" type="line"/>
      <point x="1083" y="1665" type="line"/>
      <point x="942" y="1599" type="line"/>
      <point x="768" y="1729" type="line"/>
      <point x="594" y="1599" type="line"/>
    </contour>
    <contour>
      <point x="1374" y="1454" type="line"/>
      <point x="1374" y="0" type="line"/>
      <point x="1094" y="0" type="line"/>
      <point x="1094" y="621" type="line"/>
      <point x="434" y="621" type="line"/>
      <point x="434" y="0" type="line"/>
      <point x="152" y="0" type="line"/>
      <point x="152" y="1454" type="line"/>
      <point x="434" y="1454" type="line"/>
      <point x="434" y="866" type="line"/>
      <point x="1094" y="866" type="line"/>
      <point x="1094" y="1454" type="line"/>
    </contour>
  </outline>
</glyph>
<glyph name="Hbar" format="2">
  <advance width="1542"/>
  <unicode hex="0126"/>
  <anchor x="0" y="0" name="Anchor-11"/>
  <anchor x="772" y="727" name="Anchor-10"/>
  <anchor x="776" y="1450" name="Anchor-9"/>
  <anchor x="0" y="0" name="Anchor-8"/>
  <anchor x="772" y="0" name="Anchor-7"/>
  <outline>
    <contour>
      <point x="1485" y="1247" type="line"/>
      <point x="1485" y="1092" type="line"/>
      <point x="1382" y="1092" type="line"/>
      <point x="1382" y="0" type="line"/>
      <point x="1102" y="0" type="line"/>
      <point x="1102" y="621" type="line"/>
      <point x="442" y="621" type="line"/>
      <point x="442" y="0" type="line"/>
      <point x="160" y="0" type="line"/>
      <point x="160" y="1092" type="line"/>
      <point x="57" y="1092" type="line"/>
      <point x="57" y="1247" type="line"/>
      <point x="160" y="1247" type="line"/>
      <point x="160" y="1454" type="line"/>
      <point x="442" y="1454" type="line"/>
      <point x="442" y="1247" type="line"/>
      <point x="1102" y="1247" type="line"/>
      <point x="1102" y="1454" type="line"/>
      <point x="1382" y="1454" type="line"/>
      <point x="1382" y="1247" type="line"/>
    </contour>
    <contour>
      <point x="1102" y="866" type="line"/>
      <point x="1102" y="1092" type="line"/>
      <point x="442" y="1092" type="line"/>
      <point x="442" y="866" type="line"/>
    </contour>
  </outline>
</glyph>
<glyph name="hbar" format="2">
  <advance width="1236"/>
  <unicode hex="0127"/>
  <anchor x="0" y="0" name="Anchor-11"/>
  <anchor x="618" y="537" name="Anchor-10"/>
  <anchor x="655" y="1454" name="Anchor-9"/>
  <anchor x="0" y="0" name="Anchor-8"/>
  <anchor x="618" y="0" name="Anchor-7"/>
  <outline>
    <contour>
      <point x="784" y="1092" type="qcurve" smooth="yes"/>
      <point x="1122" y="1092"/>
      <point x="1122" y="670" type="qcurve" smooth="yes"/>
      <point x="1122" y="0" type="line"/>
      <point x="848" y="0" type="line"/>
      <point x="848" y="602" type="line" smooth="yes"/>
      <point x="848" y="726"/>
      <point x="754" y="850"/>
      <point x="668" y="850" type="qcurve" smooth="yes"/>
      <point x="590" y="850"/>
      <point x="429" y="722"/>
      <point x="399" y="627" type="qcurve"/>
      <point x="399" y="0" type="line"/>
      <point x="125" y="0" type="line"/>
      <point x="125" y="1223" type="line"/>
      <point x="33" y="1223" type="line"/>
      <point x="33" y="1384" type="line"/>
      <point x="125" y="1384" type="line"/>
      <point x="125" y="1495" type="line"/>
      <point x="399" y="1495" type="line"/>
      <point x="399" y="1384" type="line"/>
      <point x="641" y="1384" type="line"/>
      <point x="641" y="1223" type="line"/>
      <point x="399" y="1223" type="line"/>
      <point x="399" y="874" type="line"/>
      <point x="459" y="977"/>
      <point x="663" y="1092"/>
    </contour>
  </outline>
</glyph>
<glyph name="Itilde" format="2">
  <advance width="585"/>
  <unicode hex="0128"/>
  <anchor x="0" y="0" name="Anchor-11"/>
  <anchor x="0" y="0" name="Anchor-10"/>
  <anchor x="293" y="1874" name="Anchor-9"/>
  <anchor x="434" y="0" name="Anchor-8"/>
  <anchor x="293" y="0" name="Anchor-7"/>
  <outline>
    <contour>
      <point x="158" y="1704" type="qcurve" smooth="yes"/>
      <point x="132" y="1704"/>
      <point x="93" y="1684"/>
      <point x="74" y="1659"/>
      <point x="62" y="1627"/>
      <point x="59" y="1610"/>
      <point x="59" y="1606" type="qcurve"/>
      <point x="-92" y="1606" type="line"/>
      <point x="-92" y="1630"/>
      <point x="-66" y="1709"/>
      <point x="-15" y="1802"/>
      <point x="84" y="1868"/>
      <point x="147" y="1868" type="qcurve" smooth="yes"/>
      <point x="200" y="1868"/>
      <point x="294" y="1820"/>
      <point x="378" y="1772"/>
      <point x="418" y="1772" type="qcurve" smooth="yes"/>
      <point x="446" y="1772"/>
      <point x="488" y="1792"/>
      <point x="509" y="1819"/>
      <point x="523" y="1851"/>
      <point x="526" y="1869"/>
      <point x="526" y="1874" type="qcurve"/>
      <point x="678" y="1874" type="line"/>
      <point x="678" y="1860"/>
      <point x="663" y="1804"/>
      <point x="624" y="1727"/>
      <point x="570" y="1659"/>
      <point x="480" y="1612"/>
      <point x="426" y="1612" type="qcurve" smooth="yes"/>
      <point x="374" y="1612"/>
      <point x="278" y="1658"/>
      <point x="195" y="1704"/>
    </contour>
    <contour>
      <point x="152" y="0" type="line"/>
      <point x="152" y="1454" type="line"/>
      <point x="434" y="1454" type="line"/>
      <point x="434" y="0" type="line"/>
    </contour>
  </outline>
</glyph>
<glyph name="itilde" format="2">
  <advance width="522"/>
  <unicode hex="0129"/>
  <anchor x="0" y="0" name="Anchor-11"/>
  <anchor x="0" y="0" name="Anchor-10"/>
  <anchor x="262" y="1495" name="Anchor-9"/>
  <anchor x="0" y="0" name="Anchor-8"/>
  <anchor x="0" y="0" name="Anchor-7"/>
  <outline>
    <contour>
      <point x="127" y="1325" type="qcurve" smooth="yes"/>
      <point x="101" y="1325"/>
      <point x="62" y="1305"/>
      <point x="43" y="1280"/>
      <point x="31" y="1248"/>
      <point x="29" y="1231"/>
      <point x="29" y="1227" type="qcurve"/>
      <point x="-123" y="1227" type="line"/>
      <point x="-123" y="1245"/>
      <point x="-108" y="1303"/>
      <point x="-72" y="1379"/>
      <point x="-20" y="1444"/>
      <point x="66" y="1489"/>
      <point x="117" y="1489" type="qcurve" smooth="yes"/>
      <point x="159" y="1489"/>
      <point x="237" y="1459"/>
      <point x="287" y="1423"/>
      <point x="355" y="1393"/>
      <point x="387" y="1393" type="qcurve" smooth="yes"/>
      <point x="415" y="1393"/>
      <point x="457" y="1413"/>
      <point x="479" y="1440"/>
      <point x="493" y="1472"/>
      <point x="496" y="1490"/>
      <point x="496" y="1495" type="qcurve"/>
      <point x="647" y="1495" type="line"/>
      <point x="647" y="1481"/>
      <point x="632" y="1425"/>
      <point x="593" y="1348"/>
      <point x="539" y="1280"/>
      <point x="449" y="1233"/>
      <point x="395" y="1233" type="qcurve" smooth="yes"/>
      <point x="343" y="1233"/>
      <point x="247" y="1279"/>
      <point x="164" y="1325"/>
    </contour>
    <contour>
      <point x="125" y="0" type="line"/>
      <point x="125" y="1073" type="line"/>
      <point x="399" y="1073" type="line"/>
      <point x="399" y="0" type="line"/>
    </contour>
  </outline>
</glyph>
<glyph name="Imacron" format="2">
  <advance width="585"/>
  <unicode hex="012A"/>
  <anchor x="0" y="0" name="Anchor-11"/>
  <anchor x="0" y="0" name="Anchor-10"/>
  <anchor x="295" y="1845" name="Anchor-9"/>
  <anchor x="434" y="0" name="Anchor-8"/>
  <anchor x="293" y="0" name="Anchor-7"/>
  <outline>
    <contour>
      <point x="-12" y="1675" type="line"/>
      <point x="-12" y="1845" type="line"/>
      <point x="602" y="1845" type="line"/>
      <point x="602" y="1675" type="line"/>
    </contour>
    <contour>
      <point x="152" y="0" type="line"/>
      <point x="152" y="1454" type="line"/>
      <point x="434" y="1454" type="line"/>
      <point x="434" y="0" type="line"/>
    </contour>
  </outline>
</glyph>
<glyph name="imacron" format="2">
  <advance width="522"/>
  <unicode hex="012B"/>
  <anchor x="0" y="0" name="Anchor-11"/>
  <anchor x="0" y="0" name="Anchor-10"/>
  <anchor x="264" y="1466" name="Anchor-9"/>
  <anchor x="0" y="0" name="Anchor-8"/>
  <anchor x="0" y="0" name="Anchor-7"/>
  <outline>
    <contour>
      <point x="-43" y="1296" type="line"/>
      <point x="-43" y="1466" type="line"/>
      <point x="571" y="1466" type="line"/>
      <point x="571" y="1296" type="line"/>
    </contour>
    <contour>
      <point x="125" y="0" type="line"/>
      <point x="125" y="1073" type="line"/>
      <point x="399" y="1073" type="line"/>
      <point x="399" y="0" type="line"/>
    </contour>
  </outline>
</glyph>
<glyph name="Ibreve" format="2">
  <advance width="585"/>
  <unicode hex="012C"/>
  <anchor x="0" y="0" name="Anchor-11"/>
  <anchor x="0" y="0" name="Anchor-10"/>
  <anchor x="293" y="1874" name="Anchor-9"/>
  <anchor x="434" y="0" name="Anchor-8"/>
  <anchor x="293" y="0" name="Anchor-7"/>
  <outline>
    <contour>
      <point x="416" y="1874" type="qcurve"/>
      <point x="561" y="1874" type="line"/>
      <point x="561" y="1755"/>
      <point x="410" y="1599"/>
      <point x="176" y="1599"/>
      <point x="25" y="1755"/>
      <point x="25" y="1874" type="qcurve"/>
      <point x="172" y="1874" type="line"/>
      <point x="172" y="1813"/>
      <point x="245" y="1722"/>
      <point x="293" y="1722" type="qcurve" smooth="yes"/>
      <point x="339" y="1722"/>
      <point x="410" y="1809"/>
    </contour>
    <contour>
      <point x="152" y="0" type="line"/>
      <point x="152" y="1454" type="line"/>
      <point x="434" y="1454" type="line"/>
      <point x="434" y="0" type="line"/>
    </contour>
  </outline>
</glyph>
<glyph name="ibreve" format="2">
  <advance width="522"/>
  <unicode hex="012D"/>
  <anchor x="0" y="0" name="Anchor-11"/>
  <anchor x="0" y="0" name="Anchor-10"/>
  <anchor x="262" y="1495" name="Anchor-9"/>
  <anchor x="0" y="0" name="Anchor-8"/>
  <anchor x="0" y="0" name="Anchor-7"/>
  <outline>
    <contour>
      <point x="385" y="1495" type="qcurve"/>
      <point x="530" y="1495" type="line"/>
      <point x="530" y="1376"/>
      <point x="379" y="1221"/>
      <point x="145" y="1221"/>
      <point x="-6" y="1376"/>
      <point x="-6" y="1495" type="qcurve"/>
      <point x="141" y="1495" type="line"/>
      <point x="141" y="1434"/>
      <point x="214" y="1343"/>
      <point x="262" y="1343" type="qcurve" smooth="yes"/>
      <point x="308" y="1343"/>
      <point x="379" y="1430"/>
    </contour>
    <contour>
      <point x="125" y="0" type="line"/>
      <point x="125" y="1073" type="line"/>
      <point x="399" y="1073" type="line"/>
      <point x="399" y="0" type="line"/>
    </contour>
  </outline>
</glyph>
<glyph name="Iogonek" format="2">
  <advance width="585"/>
  <unicode hex="012E"/>
  <anchor x="0" y="0" name="Anchor-11"/>
  <anchor x="0" y="0" name="Anchor-10"/>
  <anchor x="293" y="1452" name="Anchor-9"/>
  <anchor x="434" y="0" name="Anchor-8"/>
  <anchor x="293" y="0" name="Anchor-7"/>
  <outline>
    <contour>
      <point x="434" y="0" type="line"/>
      <point x="281" y="-108"/>
      <point x="281" y="-178" type="qcurve" smooth="yes"/>
      <point x="281" y="-251"/>
      <point x="434" y="-254" type="qcurve"/>
      <point x="379" y="-410" type="line"/>
      <point x="235" y="-397"/>
      <point x="106" y="-295"/>
      <point x="106" y="-225" type="qcurve" smooth="yes"/>
      <point x="106" y="-104"/>
      <point x="248" y="0" type="qcurve"/>
      <point x="152" y="0" type="line"/>
      <point x="152" y="1454" type="line"/>
      <point x="434" y="1454" type="line"/>
    </contour>
  </outline>
</glyph>
<glyph name="iogonek" format="2">
  <advance width="522"/>
  <unicode hex="012F"/>
  <anchor x="0" y="0" name="Anchor-11"/>
  <anchor x="0" y="0" name="Anchor-10"/>
  <anchor x="0" y="0" name="Anchor-9"/>
  <anchor x="399" y="0" name="Anchor-8"/>
  <anchor x="262" y="0" name="Anchor-7"/>
  <outline>
    <contour>
      <point x="125" y="1495" type="line"/>
      <point x="399" y="1495" type="line"/>
      <point x="399" y="1223" type="line"/>
      <point x="125" y="1223" type="line"/>
    </contour>
    <contour>
      <point x="125" y="0" type="line"/>
      <point x="125" y="1073" type="line"/>
      <point x="399" y="1073" type="line"/>
      <point x="399" y="0" type="line"/>
      <point x="246" y="-108"/>
      <point x="246" y="-178" type="qcurve" smooth="yes"/>
      <point x="246" y="-251"/>
      <point x="399" y="-254" type="qcurve"/>
      <point x="344" y="-410" type="line"/>
      <point x="269" y="-404"/>
      <point x="160" y="-367"/>
      <point x="100" y="-315"/>
      <point x="72" y="-258"/>
      <point x="72" y="-225" type="qcurve" smooth="yes"/>
      <point x="72" y="-103"/>
      <point x="213" y="0" type="qcurve"/>
    </contour>
  </outline>
</glyph>
<glyph name="dotlessi" format="2">
  <advance width="522"/>
  <unicode hex="0131"/>
  <anchor x="0" y="0" name="Anchor-11"/>
  <anchor x="0" y="0" name="Anchor-10"/>
  <anchor x="262" y="1073" name="Anchor-9"/>
  <anchor x="0" y="0" name="Anchor-8"/>
  <anchor x="0" y="0" name="Anchor-7"/>
  <outline>
    <contour>
      <point x="125" y="0" type="line"/>
      <point x="125" y="1073" type="line"/>
      <point x="399" y="1073" type="line"/>
      <point x="399" y="0" type="line"/>
    </contour>
  </outline>
</glyph>
<glyph name="jcircumflex" format="2">
  <advance width="522"/>
  <unicode hex="0135"/>
  <anchor x="0" y="0" name="Anchor-11"/>
  <anchor x="0" y="0" name="Anchor-10"/>
  <anchor x="262" y="1495" name="Anchor-9"/>
  <anchor x="0" y="0" name="Anchor-8"/>
  <anchor x="0" y="0" name="Anchor-7"/>
  <outline>
    <contour>
      <point x="-55" y="1288" type="line"/>
      <point x="162" y="1495" type="line"/>
      <point x="360" y="1495" type="line"/>
      <point x="578" y="1288" type="line"/>
      <point x="436" y="1223" type="line"/>
      <point x="262" y="1352" type="line"/>
      <point x="88" y="1223" type="line"/>
    </contour>
    <contour>
      <point x="-246" y="-305" type="qcurve"/>
      <point x="-129" y="-119" type="line"/>
      <point x="-81" y="-164"/>
      <point x="-8" y="-164" type="qcurve" smooth="yes"/>
      <point x="47" y="-164"/>
      <point x="125" y="-88"/>
      <point x="125" y="-29" type="qcurve" smooth="yes"/>
      <point x="125" y="1073" type="line"/>
      <point x="399" y="1073" type="line"/>
      <point x="399" y="-8" type="line" smooth="yes"/>
      <point x="399" y="-179"/>
      <point x="184" y="-401"/>
      <point x="27" y="-401" type="qcurve" smooth="yes"/>
      <point x="-138" y="-401"/>
    </contour>
  </outline>
</glyph>
<glyph name="Kcedilla" format="2">
  <advance width="1370"/>
  <unicode hex="0136"/>
  <anchor x="0" y="0" name="Anchor-11"/>
  <anchor x="0" y="0" name="Anchor-10"/>
  <anchor x="0" y="0" name="Anchor-9"/>
  <anchor x="0" y="0" name="Anchor-8"/>
  <anchor x="721" y="0" name="Anchor-7"/>
  <outline>
    <contour>
      <point x="152" y="0" type="line"/>
      <point x="152" y="1452" type="line"/>
      <point x="434" y="1452" type="line"/>
      <point x="434" y="762" type="line"/>
      <point x="1044" y="1454" type="line"/>
      <point x="1356" y="1454" type="line"/>
      <point x="799" y="809" type="line"/>
      <point x="1391" y="0" type="line"/>
      <point x="1071" y="0" type="line"/>
      <point x="618" y="627" type="line"/>
      <point x="434" y="434" type="line"/>
      <point x="434" y="0" type="line"/>
    </contour>
    <contour>
      <point x="623" y="-436" type="line"/>
      <point x="678" y="-289" type="line"/>
      <point x="598" y="-289" type="line"/>
      <point x="598" y="-96" type="line"/>
      <point x="829" y="-96" type="line"/>
      <point x="829" y="-289" type="line"/>
      <point x="748" y="-436" type="line"/>
    </contour>
  </outline>
</glyph>
<glyph name="kcedilla" format="2">
  <advance width="1142"/>
  <unicode hex="0137"/>
  <anchor x="0" y="0" name="Anchor-11"/>
  <anchor x="0" y="0" name="Anchor-10"/>
  <anchor x="0" y="0" name="Anchor-9"/>
  <anchor x="0" y="0" name="Anchor-8"/>
  <anchor x="592" y="0" name="Anchor-7"/>
  <outline>
    <contour>
      <point x="858" y="0" type="line"/>
      <point x="545" y="463" type="line"/>
      <point x="399" y="319" type="line"/>
      <point x="399" y="0" type="line"/>
      <point x="125" y="0" type="line"/>
      <point x="125" y="1495" type="line"/>
      <point x="399" y="1495" type="line"/>
      <point x="399" y="590" type="line"/>
      <point x="831" y="1071" type="line"/>
      <point x="1122" y="1071" type="line"/>
      <point x="723" y="616" type="line"/>
      <point x="1151" y="0" type="line"/>
    </contour>
    <contour>
      <point x="494" y="-436" type="line"/>
      <point x="549" y="-289" type="line"/>
      <point x="469" y="-289" type="line"/>
      <point x="469" y="-96" type="line"/>
      <point x="700" y="-96" type="line"/>
      <point x="700" y="-289" type="line"/>
      <point x="618" y="-436" type="line"/>
    </contour>
  </outline>
</glyph>
<glyph name="kgreenlandic" format="2">
  <advance width="1142"/>
  <unicode hex="0138"/>
  <outline>
    <contour>
      <point x="858" y="0" type="line"/>
      <point x="547" y="465" type="line"/>
      <point x="399" y="319" type="line"/>
      <point x="399" y="0" type="line"/>
      <point x="125" y="0" type="line"/>
      <point x="125" y="1073" type="line"/>
      <point x="399" y="1073" type="line"/>
      <point x="399" y="588" type="line"/>
      <point x="829" y="1071" type="line"/>
      <point x="1122" y="1071" type="line"/>
      <point x="723" y="616" type="line"/>
      <point x="1151" y="0" type="line"/>
    </contour>
  </outline>
</glyph>
<glyph name="Lacute" format="2">
  <advance width="1196"/>
  <unicode hex="0139"/>
  <anchor x="788" y="1077" name="Anchor-11"/>
  <anchor x="598" y="727" name="Anchor-10"/>
  <anchor x="387" y="1874" name="Anchor-9"/>
  <anchor x="0" y="0" name="Anchor-8"/>
  <anchor x="688" y="0" name="Anchor-7"/>
  <outline>
    <contour>
      <point x="381" y="1577" type="line"/>
      <point x="205" y="1630" type="line"/>
      <point x="315" y="1874" type="line"/>
      <point x="571" y="1874" type="line"/>
    </contour>
    <contour>
      <point x="152" y="0" type="line"/>
      <point x="152" y="1454" type="line"/>
      <point x="434" y="1454" type="line"/>
      <point x="434" y="248" type="line"/>
      <point x="1176" y="248" type="line"/>
      <point x="1176" y="0" type="line"/>
    </contour>
  </outline>
</glyph>
<glyph name="lacute" format="2">
  <advance width="649"/>
  <unicode hex="013A"/>
  <anchor x="528" y="1073" name="Anchor-11"/>
  <anchor x="326" y="537" name="Anchor-10"/>
  <anchor x="356" y="1876" name="Anchor-9"/>
  <anchor x="0" y="0" name="Anchor-8"/>
  <anchor x="387" y="0" name="Anchor-7"/>
  <outline>
    <contour>
      <point x="350" y="1579" type="line"/>
      <point x="174" y="1632" type="line"/>
      <point x="285" y="1876" type="line"/>
      <point x="541" y="1876" type="line"/>
    </contour>
    <contour>
      <point x="123" y="1495" type="line"/>
      <point x="397" y="1495" type="line"/>
      <point x="397" y="344" type="line" smooth="yes"/>
      <point x="397" y="273"/>
      <point x="443" y="219"/>
      <point x="489" y="219" type="qcurve" smooth="yes"/>
      <point x="555" y="219"/>
      <point x="618" y="248" type="qcurve"/>
      <point x="655" y="39" type="line"/>
      <point x="601" y="14"/>
      <point x="455" y="-16"/>
      <point x="393" y="-16" type="qcurve" smooth="yes"/>
      <point x="265" y="-16"/>
      <point x="123" y="122"/>
      <point x="123" y="248" type="qcurve" smooth="yes"/>
    </contour>
  </outline>
</glyph>
<glyph name="Lcedilla" format="2">
  <advance width="1196"/>
  <unicode hex="013B"/>
  <anchor x="788" y="1077" name="Anchor-11"/>
  <anchor x="598" y="727" name="Anchor-10"/>
  <anchor x="291" y="1452" name="Anchor-9"/>
  <anchor x="0" y="0" name="Anchor-8"/>
  <anchor x="688" y="0" name="Anchor-7"/>
  <outline>
    <contour>
      <point x="152" y="0" type="line"/>
      <point x="152" y="1454" type="line"/>
      <point x="434" y="1454" type="line"/>
      <point x="434" y="248" type="line"/>
      <point x="1176" y="248" type="line"/>
      <point x="1176" y="0" type="line"/>
    </contour>
    <contour>
      <point x="590" y="-436" type="line"/>
      <point x="645" y="-289" type="line"/>
      <point x="565" y="-289" type="line"/>
      <point x="565" y="-96" type="line"/>
      <point x="797" y="-96" type="line"/>
      <point x="797" y="-289" type="line"/>
      <point x="715" y="-436" type="line"/>
    </contour>
  </outline>
</glyph>
<glyph name="Lcaron" format="2">
  <advance width="1196"/>
  <unicode hex="013D"/>
  <anchor x="788" y="1077" name="Anchor-11"/>
  <anchor x="598" y="727" name="Anchor-10"/>
  <anchor x="291" y="1452" name="Anchor-9"/>
  <anchor x="0" y="0" name="Anchor-8"/>
  <anchor x="688" y="0" name="Anchor-7"/>
  <outline>
    <contour>
      <point x="913" y="1202" type="line"/>
      <point x="737" y="1255" type="line"/>
      <point x="848" y="1499" type="line"/>
      <point x="1104" y="1499" type="line"/>
    </contour>
    <contour>
      <point x="152" y="0" type="line"/>
      <point x="152" y="1454" type="line"/>
      <point x="434" y="1454" type="line"/>
      <point x="434" y="248" type="line"/>
      <point x="1176" y="248" type="line"/>
      <point x="1176" y="0" type="line"/>
    </contour>
  </outline>
</glyph>
<glyph name="Ldot" format="2">
  <advance width="1196"/>
  <unicode hex="013F"/>
  <anchor x="788" y="1077" name="Anchor-11"/>
  <anchor x="598" y="727" name="Anchor-10"/>
  <anchor x="291" y="1452" name="Anchor-9"/>
  <anchor x="0" y="0" name="Anchor-8"/>
  <anchor x="688" y="0" name="Anchor-7"/>
  <outline>
    <contour>
      <point x="152" y="0" type="line"/>
      <point x="152" y="1454" type="line"/>
      <point x="434" y="1454" type="line"/>
      <point x="434" y="248" type="line"/>
      <point x="1176" y="248" type="line"/>
      <point x="1176" y="0" type="line"/>
    </contour>
    <contour>
      <point x="748" y="678" type="line"/>
      <point x="748" y="987" type="line"/>
      <point x="973" y="987" type="line"/>
      <point x="973" y="678" type="line"/>
    </contour>
  </outline>
</glyph>
<glyph name="ldot" format="2">
  <advance width="813"/>
  <unicode hex="0140"/>
  <anchor x="528" y="1073" name="Anchor-11"/>
  <anchor x="326" y="537" name="Anchor-10"/>
  <anchor x="260" y="1454" name="Anchor-9"/>
  <anchor x="0" y="0" name="Anchor-8"/>
  <anchor x="387" y="0" name="Anchor-7"/>
  <outline>
    <contour>
      <point x="123" y="1495" type="line"/>
      <point x="397" y="1495" type="line"/>
      <point x="397" y="344" type="line" smooth="yes"/>
      <point x="397" y="273"/>
      <point x="443" y="219"/>
      <point x="489" y="219" type="qcurve" smooth="yes"/>
      <point x="555" y="219"/>
      <point x="618" y="248" type="qcurve"/>
      <point x="655" y="39" type="line"/>
      <point x="601" y="14"/>
      <point x="455" y="-16"/>
      <point x="393" y="-16" type="qcurve" smooth="yes"/>
      <point x="265" y="-16"/>
      <point x="123" y="122"/>
      <point x="123" y="248" type="qcurve" smooth="yes"/>
    </contour>
    <contour>
      <point x="553" y="496" type="line"/>
      <point x="553" y="805" type="line"/>
      <point x="778" y="805" type="line"/>
      <point x="778" y="496" type="line"/>
    </contour>
  </outline>
</glyph>
<glyph name="Lslash" format="2">
  <advance width="1216"/>
  <unicode hex="0141"/>
  <anchor x="807" y="1077" name="Anchor-11"/>
  <anchor x="616" y="727" name="Anchor-10"/>
  <anchor x="309" y="1452" name="Anchor-9"/>
  <anchor x="0" y="0" name="Anchor-8"/>
  <anchor x="707" y="0" name="Anchor-7"/>
  <outline>
    <contour>
      <point x="453" y="248" type="line"/>
      <point x="1194" y="248" type="line"/>
      <point x="1194" y="0" type="line"/>
      <point x="170" y="0" type="line"/>
      <point x="170" y="563" type="line"/>
      <point x="63" y="496" type="line"/>
      <point x="-4" y="645" type="line"/>
      <point x="170" y="756" type="line"/>
      <point x="170" y="1454" type="line"/>
      <point x="453" y="1454" type="line"/>
      <point x="453" y="934" type="line"/>
      <point x="678" y="1075" type="line"/>
      <point x="745" y="926" type="line"/>
      <point x="453" y="741" type="line"/>
    </contour>
  </outline>
</glyph>
<glyph name="lslash" format="2">
  <advance width="704"/>
  <unicode hex="0142"/>
  <anchor x="578" y="1073" name="Anchor-11"/>
  <anchor x="375" y="537" name="Anchor-10"/>
  <anchor x="309" y="1454" name="Anchor-9"/>
  <anchor x="0" y="0" name="Anchor-8"/>
  <anchor x="436" y="0" name="Anchor-7"/>
  <outline>
    <contour>
      <point x="668" y="248" type="qcurve"/>
      <point x="705" y="39" type="line"/>
      <point x="651" y="14"/>
      <point x="504" y="-16"/>
      <point x="442" y="-16" type="qcurve" smooth="yes"/>
      <point x="314" y="-16"/>
      <point x="172" y="122"/>
      <point x="172" y="248" type="qcurve" smooth="yes"/>
      <point x="172" y="614" type="line"/>
      <point x="68" y="551" type="line"/>
      <point x="-2" y="698" type="line"/>
      <point x="172" y="803" type="line"/>
      <point x="172" y="1495" type="line"/>
      <point x="446" y="1495" type="line"/>
      <point x="446" y="967" type="line"/>
      <point x="623" y="1073" type="line"/>
      <point x="692" y="926" type="line"/>
      <point x="446" y="778" type="line"/>
      <point x="446" y="344" type="line" smooth="yes"/>
      <point x="446" y="273"/>
      <point x="493" y="219"/>
      <point x="539" y="219" type="qcurve" smooth="yes"/>
      <point x="605" y="219"/>
    </contour>
  </outline>
</glyph>
<glyph name="Nacute" format="2">
  <advance width="1562"/>
  <unicode hex="0143"/>
  <anchor x="0" y="0" name="Anchor-11"/>
  <anchor x="0" y="0" name="Anchor-10"/>
  <anchor x="877" y="1872" name="Anchor-9"/>
  <anchor x="0" y="0" name="Anchor-8"/>
  <anchor x="780" y="0" name="Anchor-7"/>
  <outline>
    <contour>
      <point x="870" y="1575" type="line"/>
      <point x="694" y="1628" type="line"/>
      <point x="805" y="1872" type="line"/>
      <point x="1061" y="1872" type="line"/>
    </contour>
    <contour>
      <point x="434" y="934" type="line"/>
      <point x="434" y="0" type="line"/>
      <point x="152" y="0" type="line"/>
      <point x="152" y="1454" type="line"/>
      <point x="377" y="1454" type="line"/>
      <point x="1128" y="496" type="line"/>
      <point x="1128" y="1452" type="line"/>
      <point x="1411" y="1452" type="line"/>
      <point x="1411" y="0" type="line"/>
      <point x="1176" y="0" type="line"/>
    </contour>
  </outline>
</glyph>
<glyph name="Ncedilla" format="2">
  <advance width="1562"/>
  <unicode hex="0145"/>
  <anchor x="0" y="0" name="Anchor-11"/>
  <anchor x="0" y="0" name="Anchor-10"/>
  <anchor x="780" y="1450" name="Anchor-9"/>
  <anchor x="0" y="0" name="Anchor-8"/>
  <anchor x="780" y="0" name="Anchor-7"/>
  <outline>
    <contour>
      <point x="434" y="934" type="line"/>
      <point x="434" y="0" type="line"/>
      <point x="152" y="0" type="line"/>
      <point x="152" y="1454" type="line"/>
      <point x="377" y="1454" type="line"/>
      <point x="1128" y="496" type="line"/>
      <point x="1128" y="1452" type="line"/>
      <point x="1411" y="1452" type="line"/>
      <point x="1411" y="0" type="line"/>
      <point x="1176" y="0" type="line"/>
    </contour>
    <contour>
      <point x="682" y="-436" type="line"/>
      <point x="737" y="-289" type="line"/>
      <point x="657" y="-289" type="line"/>
      <point x="657" y="-96" type="line"/>
      <point x="889" y="-96" type="line"/>
      <point x="889" y="-289" type="line"/>
      <point x="807" y="-436" type="line"/>
    </contour>
  </outline>
</glyph>
<glyph name="Ncaron" format="2">
  <advance width="1562"/>
  <unicode hex="0147"/>
  <anchor x="0" y="0" name="Anchor-11"/>
  <anchor x="0" y="0" name="Anchor-10"/>
  <anchor x="780" y="1872" name="Anchor-9"/>
  <anchor x="0" y="0" name="Anchor-8"/>
  <anchor x="780" y="0" name="Anchor-7"/>
  <outline>
    <contour>
      <point x="606" y="1872" type="line"/>
      <point x="780" y="1743" type="line"/>
      <point x="954" y="1872" type="line"/>
      <point x="1096" y="1806" type="line"/>
      <point x="879" y="1599" type="line"/>
      <point x="680" y="1599" type="line"/>
      <point x="463" y="1806" type="line"/>
    </contour>
    <contour>
      <point x="434" y="934" type="line"/>
      <point x="434" y="0" type="line"/>
      <point x="152" y="0" type="line"/>
      <point x="152" y="1454" type="line"/>
      <point x="377" y="1454" type="line"/>
      <point x="1128" y="496" type="line"/>
      <point x="1128" y="1452" type="line"/>
      <point x="1411" y="1452" type="line"/>
      <point x="1411" y="0" type="line"/>
      <point x="1176" y="0" type="line"/>
    </contour>
  </outline>
</glyph>
<glyph name="ncaron" format="2">
  <advance width="1236"/>
  <unicode hex="0148"/>
  <anchor x="0" y="0" name="Anchor-11"/>
  <anchor x="0" y="0" name="Anchor-10"/>
  <anchor x="649" y="1495" name="Anchor-9"/>
  <anchor x="0" y="0" name="Anchor-8"/>
  <anchor x="618" y="0" name="Anchor-7"/>
  <outline>
    <contour>
      <point x="475" y="1495" type="line"/>
      <point x="649" y="1366" type="line"/>
      <point x="823" y="1495" type="line"/>
      <point x="965" y="1430" type="line"/>
      <point x="748" y="1223" type="line"/>
      <point x="549" y="1223" type="line"/>
      <point x="332" y="1430" type="line"/>
    </contour>
    <contour>
      <point x="1122" y="0" type="line"/>
      <point x="848" y="0" type="line"/>
      <point x="848" y="602" type="line" smooth="yes"/>
      <point x="848" y="850"/>
      <point x="678" y="850" type="qcurve" smooth="yes"/>
      <point x="593" y="850"/>
      <point x="429" y="722"/>
      <point x="399" y="627" type="qcurve"/>
      <point x="399" y="0" type="line"/>
      <point x="125" y="0" type="line"/>
      <point x="125" y="1073" type="line"/>
      <point x="373" y="1073" type="line"/>
      <point x="373" y="874" type="line"/>
      <point x="433" y="976"/>
      <point x="660" y="1092"/>
      <point x="799" y="1092" type="qcurve" smooth="yes"/>
      <point x="877" y="1092"/>
      <point x="994" y="1043"/>
      <point x="1064" y="965"/>
      <point x="1107" y="851"/>
      <point x="1122" y="738"/>
      <point x="1122" y="670" type="qcurve" smooth="yes"/>
    </contour>
  </outline>
</glyph>
<glyph name="Eng" format="2">
  <advance width="1536"/>
  <unicode hex="014A"/>
  <outline>
    <contour>
      <point x="434" y="924" type="line"/>
      <point x="434" y="0" type="line"/>
      <point x="152" y="0" type="line"/>
      <point x="152" y="1454" type="line"/>
      <point x="369" y="1454" type="line"/>
      <point x="1102" y="512" type="line"/>
      <point x="1102" y="1452" type="line"/>
      <point x="1382" y="1452" type="line"/>
      <point x="1382" y="-18" type="line" smooth="yes"/>
      <point x="1382" y="-186"/>
      <point x="1166" y="-401"/>
      <point x="1010" y="-401" type="qcurve" smooth="yes"/>
      <point x="845" y="-401"/>
      <point x="737" y="-305" type="qcurve"/>
      <point x="856" y="-119" type="line"/>
      <point x="901" y="-164"/>
      <point x="975" y="-164" type="qcurve" smooth="yes"/>
      <point x="1030" y="-164"/>
      <point x="1108" y="-88"/>
      <point x="1108" y="-29" type="qcurve" smooth="yes"/>
      <point x="1108" y="57" type="line"/>
    </contour>
  </outline>
</glyph>
<glyph name="eng" format="2">
  <advance width="1236"/>
  <unicode hex="014B"/>
  <outline>
    <contour>
      <point x="477" y="-305" type="qcurve"/>
      <point x="594" y="-119" type="line"/>
      <point x="642" y="-164"/>
      <point x="715" y="-164" type="qcurve" smooth="yes"/>
      <point x="770" y="-164"/>
      <point x="848" y="-88"/>
      <point x="848" y="-29" type="qcurve" smooth="yes"/>
      <point x="848" y="602" type="line" smooth="yes"/>
      <point x="848" y="850"/>
      <point x="678" y="850" type="qcurve" smooth="yes"/>
      <point x="593" y="850"/>
      <point x="429" y="722"/>
      <point x="399" y="627" type="qcurve"/>
      <point x="399" y="0" type="line"/>
      <point x="125" y="0" type="line"/>
      <point x="125" y="1073" type="line"/>
      <point x="373" y="1073" type="line"/>
      <point x="373" y="874" type="line"/>
      <point x="433" y="976"/>
      <point x="660" y="1092"/>
      <point x="799" y="1092" type="qcurve" smooth="yes"/>
      <point x="877" y="1092"/>
      <point x="993" y="1043"/>
      <point x="1063" y="965"/>
      <point x="1105" y="851"/>
      <point x="1120" y="738"/>
      <point x="1120" y="670" type="qcurve" smooth="yes"/>
      <point x="1120" y="-8" type="line" smooth="yes"/>
      <point x="1120" y="-179"/>
      <point x="906" y="-401"/>
      <point x="750" y="-401" type="qcurve" smooth="yes"/>
      <point x="585" y="-401"/>
    </contour>
  </outline>
</glyph>
<glyph name="Odblacute" format="2">
  <advance width="1548"/>
  <unicode hex="0150"/>
  <anchor x="1071" y="1313" name="Anchor-11"/>
  <anchor x="774" y="727" name="Anchor-10"/>
  <anchor x="778" y="1452" name="Anchor-9"/>
  <anchor x="944" y="14" name="Anchor-8"/>
  <anchor x="772" y="0" name="Anchor-7"/>
  <outline>
    <contour>
      <point x="649" y="1579" type="line"/>
      <point x="514" y="1632" type="line"/>
      <point x="612" y="1876" type="line"/>
      <point x="825" y="1876" type="line"/>
    </contour>
    <contour>
      <point x="977" y="1579" type="line"/>
      <point x="844" y="1632" type="line"/>
      <point x="940" y="1876" type="line"/>
      <point x="1155" y="1876" type="line"/>
    </contour>
    <contour>
      <point x="63" y="727" type="qcurve" smooth="yes"/>
      <point x="63" y="871"/>
      <point x="172" y="1140"/>
      <point x="359" y="1342"/>
      <point x="627" y="1464"/>
      <point x="778" y="1464" type="qcurve" smooth="yes"/>
      <point x="901" y="1464"/>
      <point x="1125" y="1381"/>
      <point x="1293" y="1236"/>
      <point x="1418" y="1049"/>
      <point x="1483" y="833"/>
      <point x="1483" y="723" type="qcurve" smooth="yes"/>
      <point x="1483" y="580"/>
      <point x="1375" y="313"/>
      <point x="1190" y="111"/>
      <point x="923" y="-10"/>
      <point x="772" y="-10" type="qcurve" smooth="yes"/>
      <point x="648" y="-10"/>
      <point x="424" y="71"/>
      <point x="254" y="213"/>
      <point x="128" y="399"/>
      <point x="63" y="616"/>
    </contour>
    <contour>
      <point x="774" y="240" type="qcurve" smooth="yes"/>
      <point x="873" y="240"/>
      <point x="1037" y="324"/>
      <point x="1141" y="463"/>
      <point x="1198" y="636"/>
      <point x="1198" y="727" type="qcurve" smooth="yes"/>
      <point x="1198" y="855"/>
      <point x="1097" y="1074"/>
      <point x="900" y="1212"/>
      <point x="774" y="1212" type="qcurve" smooth="yes"/>
      <point x="675" y="1212"/>
      <point x="511" y="1128"/>
      <point x="407" y="990"/>
      <point x="350" y="818"/>
      <point x="350" y="727" type="qcurve" smooth="yes"/>
      <point x="350" y="599"/>
      <point x="448" y="380"/>
      <point x="645" y="240"/>
    </contour>
  </outline>
</glyph>
<glyph name="odblacute" format="2">
  <advance width="1241"/>
  <unicode hex="0151"/>
  <anchor x="918" y="934" name="Anchor-11"/>
  <anchor x="621" y="537" name="Anchor-10"/>
  <anchor x="621" y="1073" name="Anchor-9"/>
  <anchor x="780" y="0" name="Anchor-8"/>
  <anchor x="621" y="0" name="Anchor-7"/>
  <outline>
    <contour>
      <point x="492" y="1200" type="line"/>
      <point x="356" y="1253" type="line"/>
      <point x="455" y="1497" type="line"/>
      <point x="668" y="1497" type="line"/>
    </contour>
    <contour>
      <point x="819" y="1200" type="line"/>
      <point x="686" y="1253" type="line"/>
      <point x="782" y="1497" type="line"/>
      <point x="997" y="1497" type="line"/>
    </contour>
    <contour>
      <point x="57" y="535" type="qcurve" smooth="yes"/>
      <point x="57" y="647"/>
      <point x="137" y="849"/>
      <point x="279" y="1002"/>
      <point x="494" y="1092"/>
      <point x="621" y="1092" type="qcurve" smooth="yes"/>
      <point x="790" y="1092"/>
      <point x="1049" y="937"/>
      <point x="1182" y="686"/>
      <point x="1182" y="535" type="qcurve" smooth="yes"/>
      <point x="1182" y="424"/>
      <point x="1104" y="223"/>
      <point x="963" y="70"/>
      <point x="749" y="-20"/>
      <point x="621" y="-20" type="qcurve" smooth="yes"/>
      <point x="518" y="-20"/>
      <point x="338" y="39"/>
      <point x="204" y="143"/>
      <point x="106" y="282"/>
      <point x="57" y="447"/>
    </contour>
    <contour>
      <point x="621" y="213" type="qcurve" smooth="yes"/>
      <point x="740" y="213"/>
      <point x="901" y="397"/>
      <point x="901" y="537" type="qcurve" smooth="yes"/>
      <point x="901" y="676"/>
      <point x="740" y="858"/>
      <point x="502" y="858"/>
      <point x="340" y="674"/>
      <point x="340" y="535" type="qcurve" smooth="yes"/>
      <point x="340" y="395"/>
      <point x="501" y="213"/>
    </contour>
  </outline>
</glyph>
<glyph name="OE" format="2">
  <advance width="2222"/>
  <unicode hex="0152"/>
  <outline>
    <contour>
      <point x="2154" y="248" type="line"/>
      <point x="2154" y="0" type="line"/>
      <point x="1171" y="0" type="line"/>
      <point x="1171" y="215" type="line"/>
      <point x="1099" y="114"/>
      <point x="880" y="-10"/>
      <point x="754" y="-10" type="qcurve" smooth="yes"/>
      <point x="604" y="-10"/>
      <point x="342" y="115"/>
      <point x="165" y="322"/>
      <point x="63" y="587"/>
      <point x="63" y="727" type="qcurve" smooth="yes"/>
      <point x="63" y="920"/>
      <point x="242" y="1257"/>
      <point x="564" y="1464"/>
      <point x="758" y="1464" type="qcurve" smooth="yes"/>
      <point x="886" y="1464"/>
      <point x="1100" y="1342"/>
      <point x="1171" y="1241" type="qcurve"/>
      <point x="1171" y="1454" type="line"/>
      <point x="2136" y="1454" type="line"/>
      <point x="2136" y="1206" type="line"/>
      <point x="1454" y="1206" type="line"/>
      <point x="1454" y="864" type="line"/>
      <point x="2025" y="864" type="line"/>
      <point x="2025" y="616" type="line"/>
      <point x="1454" y="616" type="line"/>
      <point x="1454" y="248" type="line"/>
    </contour>
    <contour>
      <point x="1159" y="729" type="qcurve" smooth="yes"/>
      <point x="1159" y="823"/>
      <point x="1102" y="998"/>
      <point x="1001" y="1133"/>
      <point x="847" y="1214"/>
      <point x="756" y="1214" type="qcurve" smooth="yes"/>
      <point x="661" y="1214"/>
      <point x="504" y="1130"/>
      <point x="404" y="991"/>
      <point x="350" y="818"/>
      <point x="350" y="727" type="qcurve" smooth="yes"/>
      <point x="350" y="599"/>
      <point x="445" y="379"/>
      <point x="634" y="240"/>
      <point x="756" y="240" type="qcurve" smooth="yes"/>
      <point x="851" y="240"/>
      <point x="1007" y="324"/>
      <point x="1106" y="464"/>
      <point x="1159" y="637"/>
    </contour>
  </outline>
</glyph>
